<?xml version="1.0" encoding="utf-8"?>
<!-- Generator: Adobe Illustrator 15.1.0, SVG Export Plug-In . SVG Version: 6.00 Build 0)  -->
<!DOCTYPE svg PUBLIC "-//W3C//DTD SVG 1.1//EN" "http://www.w3.org/Graphics/SVG/1.1/DTD/svg11.dtd">
<svg version="1.1" xmlns="http://www.w3.org/2000/svg" xmlns:xlink="http://www.w3.org/1999/xlink" x="0px" y="0px" width="124px"
	 height="124px" viewBox="0 0 124 124" enable-background="new 0 0 124 124" xml:space="preserve">
<g id="Layer_2">
</g>
<g id="Layer_1">
	<g>
		<circle fill="#03B3DE" cx="62" cy="62" r="62"/>
		<circle display="none" fill="#F26739" cx="62" cy="62" r="62"/>
		<circle display="none" fill="#6FBE44" cx="62" cy="62" r="62"/>
		<circle display="none" fill="#FFCD33" cx="62" cy="62" r="62"/>
		<circle display="none" fill="#F89838" cx="62" cy="62" r="62"/>
		<g>
			<defs>
				<circle id="SVGID_1_" cx="62" cy="62" r="62"/>
			</defs>
			<clipPath id="SVGID_2_">
				<use xlink:href="#SVGID_1_"  overflow="visible"/>
			</clipPath>
			<g clip-path="url(#SVGID_2_)">
				<path fill="#CCCCCC" d="M152,145.955c0,3.314-2.687,6-6,6H38c-3.313,0-6-2.686-6-6v-108c0-3.313,2.687-6,6-6h108
					c3.313,0,6,2.687,6,6V145.955z"/>
				<path d="M146,131.955c0,2.209-1.791,4-4,4H42c-2.209,0-4-1.791-4-4v-80c0-2.209,1.791-4,4-4h100c2.209,0,4,1.791,4,4V131.955z"
					/>
				<circle fill="#575757" cx="43" cy="40.25" r="4"/>
				<circle fill="#575757" cx="57" cy="40.25" r="4"/>
			</g>
		</g>
		<g id="R_x3E_">
			<path fill="#FFFFFF" d="M57.689,68.24l5.43,8.76H57.54l-4.5-7.95h-1.381V77h-4.92V56.211h6.541c5.669,0,8.549,2.01,8.549,6.33
				C61.829,65.51,59.999,67.311,57.689,68.24z M53.28,59.661h-1.621v6h1.83c2.131,0,3.271-0.93,3.271-3.12
				C56.76,60.531,55.589,59.661,53.28,59.661z"/>
			<path fill="#FFFFFF" d="M78.929,65.871v3.42L67.229,76.55l-2.13-3.24l9.72-5.729l-9.72-5.55l2.1-3.42L78.929,65.871z"/>
		</g>
	</g>
</g>
</svg>
