<?xml version="1.0" encoding="utf-8"?>
<!-- Generator: Adobe Illustrator 15.1.0, SVG Export Plug-In . SVG Version: 6.00 Build 0)  -->
<!DOCTYPE svg PUBLIC "-//W3C//DTD SVG 1.1//EN" "http://www.w3.org/Graphics/SVG/1.1/DTD/svg11.dtd">
<svg version="1.1" id="Layer_1" xmlns="http://www.w3.org/2000/svg" xmlns:xlink="http://www.w3.org/1999/xlink" x="0px" y="0px"
	 width="256.75px" height="256.75px" viewBox="0 0 256.75 256.75" enable-background="new 0 0 256.75 256.75" xml:space="preserve">
<line fill="none" stroke="#808285" stroke-width="1.5" stroke-linecap="round" stroke-miterlimit="10" x1="22.391" y1="201.709" x2="22.391" y2="219.709"/>
<line fill="none" stroke="#808285" stroke-width="1.5" stroke-linecap="round" stroke-miterlimit="10" x1="183.771" y1="201.709" x2="183.771" y2="219.709"/>
<g>
	
		<line fill="none" stroke="#C7C8CA" stroke-width="0.5" stroke-linecap="round" stroke-linejoin="round" stroke-miterlimit="10" x1="0.375" y1="96.375" x2="256.375" y2="96.375"/>
	
		<line fill="none" stroke="#C7C8CA" stroke-width="0.5" stroke-linecap="round" stroke-linejoin="round" stroke-miterlimit="10" x1="0.375" y1="160.375" x2="256.375" y2="160.375"/>
	
		<line fill="none" stroke="#C7C8CA" stroke-width="0.5" stroke-linecap="round" stroke-linejoin="round" stroke-miterlimit="10" x1="0.375" y1="224.375" x2="256.375" y2="224.375"/>
	
		<line fill="none" stroke="#C7C8CA" stroke-width="0.5" stroke-linecap="round" stroke-linejoin="round" stroke-miterlimit="10" x1="0.375" y1="32.375" x2="256.375" y2="32.375"/>
	
		<line fill="none" stroke="#C7C8CA" stroke-width="0.5" stroke-linecap="round" stroke-linejoin="round" stroke-miterlimit="10" x1="96.375" y1="256.375" x2="96.375" y2="0.375"/>
	
		<line fill="none" stroke="#C7C8CA" stroke-width="0.5" stroke-linecap="round" stroke-linejoin="round" stroke-miterlimit="10" x1="160.375" y1="256.375" x2="160.375" y2="0.375"/>
	
		<line fill="none" stroke="#C7C8CA" stroke-width="0.5" stroke-linecap="round" stroke-linejoin="round" stroke-miterlimit="10" x1="224.375" y1="256.375" x2="224.375" y2="0.375"/>
	
		<line fill="none" stroke="#C7C8CA" stroke-width="0.5" stroke-linecap="round" stroke-linejoin="round" stroke-miterlimit="10" x1="32.375" y1="256.375" x2="32.375" y2="0.375"/>
</g>
<g>
	
		<line fill="none" stroke="#C7C8CA" stroke-width="0.75" stroke-linecap="round" stroke-linejoin="round" stroke-miterlimit="10" x1="0.375" y1="128.375" x2="256.375" y2="128.375"/>
	
		<line fill="none" stroke="#C7C8CA" stroke-width="0.75" stroke-linecap="round" stroke-linejoin="round" stroke-miterlimit="10" x1="0.375" y1="192.375" x2="256.375" y2="192.375"/>
	
		<line fill="none" stroke="#C7C8CA" stroke-width="0.75" stroke-linecap="round" stroke-linejoin="round" stroke-miterlimit="10" x1="0.375" y1="64.375" x2="256.375" y2="64.375"/>
	
		<line fill="none" stroke="#C7C8CA" stroke-width="0.75" stroke-linecap="round" stroke-linejoin="round" stroke-miterlimit="10" x1="128.375" y1="256.375" x2="128.375" y2="0.375"/>
	
		<line fill="none" stroke="#C7C8CA" stroke-width="0.75" stroke-linecap="round" stroke-linejoin="round" stroke-miterlimit="10" x1="192.375" y1="256.375" x2="192.375" y2="0.375"/>
	
		<line fill="none" stroke="#C7C8CA" stroke-width="0.75" stroke-linecap="round" stroke-linejoin="round" stroke-miterlimit="10" x1="64.375" y1="256.375" x2="64.375" y2="0.375"/>
</g>
<g>
	<path fill="none" stroke="#808285" stroke-width="2" stroke-linecap="round" stroke-linejoin="round" stroke-miterlimit="10" d="
		M68.5,100.498c-7.71,11.873-15.42,23.745-23.131,35.617"/>
	<path fill="none" stroke="#808285" stroke-width="2" stroke-linecap="round" stroke-linejoin="round" stroke-miterlimit="10" d="
		M112.485,32.766c-2.275,3.503-4.55,7.007-6.826,10.51"/>
	<path fill="none" stroke="#808285" stroke-width="2" stroke-linecap="round" stroke-linejoin="round" stroke-miterlimit="10" d="
		M65.551,122.964c-6.628,10.217-13.222,20.457-19.742,30.743"/>
	<path fill="none" stroke="#808285" stroke-width="2" stroke-linecap="round" stroke-linejoin="round" stroke-miterlimit="10" d="
		M73.443,110.829c-0.753,1.155-1.505,2.31-2.257,3.466"/>
	<path fill="none" stroke="#808285" stroke-width="2" stroke-linecap="round" stroke-linejoin="round" stroke-miterlimit="10" d="
		M121.225,37.008c-2.593,4.103-5.199,8.198-7.815,12.287"/>
	<path fill="none" stroke="#808285" stroke-width="2" stroke-linecap="round" stroke-linejoin="round" stroke-miterlimit="10" d="
		M36.474,186.697c-1.215,1.881-2.446,3.752-3.698,5.608"/>
	<path fill="none" stroke="#808285" stroke-width="2" stroke-linecap="round" stroke-linejoin="round" stroke-miterlimit="10" d="
		M66.73,138.957c-7.792,11.057-14.736,22.675-21.794,34.205"/>
	<path fill="none" stroke="#808285" stroke-width="2" stroke-linecap="round" stroke-linejoin="round" stroke-miterlimit="10" d="
		M86.337,110.211c-0.965,1.546-1.927,3.094-2.885,4.645"/>
	<path fill="none" stroke="#808285" stroke-width="2" stroke-linecap="round" stroke-linejoin="round" stroke-miterlimit="10" d="
		M130.299,42.628c-3.166,4.802-6.338,9.601-9.509,14.4"/>
	<path fill="none" stroke="#808285" stroke-width="2" stroke-linecap="round" stroke-linejoin="round" stroke-miterlimit="10" d="
		M66.982,157.857c-6.994,10.641-13.784,21.412-20.568,32.186"/>
	<path fill="none" stroke="#808285" stroke-width="2" stroke-linecap="round" stroke-linejoin="round" stroke-miterlimit="10" d="
		M101.233,106.047c-3.347,4.956-6.703,9.906-10.064,14.852"/>
	<path fill="none" stroke="#808285" stroke-width="2" stroke-linecap="round" stroke-linejoin="round" stroke-miterlimit="10" d="
		M138.941,49.085c-4.989,7.73-10.021,15.432-15.089,23.111"/>
	<path fill="none" stroke="#808285" stroke-width="2" stroke-linecap="round" stroke-linejoin="round" stroke-miterlimit="10" d="
		M69.162,172.738c-4.322,6.523-8.603,13.072-12.861,19.637"/>
	<path fill="none" stroke="#808285" stroke-width="2" stroke-linecap="round" stroke-linejoin="round" stroke-miterlimit="10" d="
		M106.305,116.455c-2.918,4.304-5.868,8.586-8.853,12.844"/>
	<path fill="none" stroke="#808285" stroke-width="2" stroke-linecap="round" stroke-linejoin="round" stroke-miterlimit="10" d="
		M145.192,55.996c-11.336,18.241-22.784,36.416-34.721,54.271"/>
	<path fill="none" stroke="#808285" stroke-width="2" stroke-linecap="round" stroke-linejoin="round" stroke-miterlimit="10" d="
		M74.002,184.6c-1.259,1.936-2.518,3.871-3.778,5.807"/>
	<path fill="none" stroke="#808285" stroke-width="2" stroke-linecap="round" stroke-linejoin="round" stroke-miterlimit="10" d="
		M114.297,122.296c-3.505,5.44-7.012,10.88-10.521,16.318"/>
	<path fill="none" stroke="#808285" stroke-width="2" stroke-linecap="round" stroke-linejoin="round" stroke-miterlimit="10" d="
		M147.048,71.41c-7.781,12.091-15.56,24.184-23.341,36.274"/>
	<path fill="none" stroke="#808285" stroke-width="2" stroke-linecap="round" stroke-linejoin="round" stroke-miterlimit="10" d="
		M83.317,187.844c-0.883,1.36-1.766,2.721-2.649,4.08"/>
	<path fill="none" stroke="#808285" stroke-width="2" stroke-linecap="round" stroke-linejoin="round" stroke-miterlimit="10" d="
		M120.995,129.826c-3.68,5.666-7.359,11.331-11.038,16.997"/>
	<path fill="none" stroke="#808285" stroke-width="2" stroke-linecap="round" stroke-linejoin="round" stroke-miterlimit="10" d="
		M127.003,138.936c-3.809,5.863-7.617,11.728-11.425,17.592"/>
	<path fill="none" stroke="#808285" stroke-width="2" stroke-linecap="round" stroke-linejoin="round" stroke-miterlimit="10" d="
		M30.802,29.604c-0.939,1.502-1.872,3.008-2.798,4.517"/>
	<path fill="none" stroke="#808285" stroke-width="2" stroke-linecap="round" stroke-linejoin="round" stroke-miterlimit="10" d="
		M42.817,29.879c-1.645,2.533-3.29,5.066-4.935,7.599"/>
	<path fill="none" stroke="#808285" stroke-width="2" stroke-linecap="round" stroke-linejoin="round" stroke-miterlimit="10" d="
		M55.134,29.154c-3.217,4.983-6.434,9.967-9.649,14.951"/>
	<path fill="none" stroke="#808285" stroke-width="2" stroke-linecap="round" stroke-linejoin="round" stroke-miterlimit="10" d="
		M66.301,30.235c-7.023,10.717-14.006,21.462-20.875,32.279"/>
	<path fill="none" stroke="#808285" stroke-width="2" stroke-linecap="round" stroke-linejoin="round" stroke-miterlimit="10" d="
		M66.395,47.298c-7.037,10.871-13.949,21.823-20.636,32.914"/>
	<path fill="none" stroke="#808285" stroke-width="2" stroke-linecap="round" stroke-linejoin="round" stroke-miterlimit="10" d="
		M77.97,29.623c-2.005,3.032-4.004,6.068-5.996,9.108"/>
	<path fill="none" stroke="#808285" stroke-width="2" stroke-linecap="round" stroke-linejoin="round" stroke-miterlimit="10" d="
		M69.124,63.292c-7.852,11.97-15.72,23.929-23.587,35.889"/>
	<path fill="none" stroke="#808285" stroke-width="2" stroke-linecap="round" stroke-linejoin="round" stroke-miterlimit="10" d="
		M91.101,29.662c-1.888,2.903-3.779,5.805-5.671,8.706"/>
	<path fill="none" stroke="#808285" stroke-width="2" stroke-linecap="round" stroke-linejoin="round" stroke-miterlimit="10" d="
		M68.767,81.726c-7.981,12.289-15.961,24.579-23.942,36.868"/>
	<path fill="none" stroke="#808285" stroke-width="2" stroke-linecap="round" stroke-linejoin="round" stroke-miterlimit="10" d="
		M101.449,31.398c-1.647,2.536-3.293,5.072-4.94,7.607"/>
	<path fill="none" stroke="#808285" stroke-width="2" stroke-linecap="round" stroke-linejoin="round" stroke-miterlimit="10" d="
		M132.831,148.322c-3.679,5.664-7.358,11.33-11.037,16.995"/>
	<path fill="none" stroke="#808285" stroke-width="2" stroke-linecap="round" stroke-linejoin="round" stroke-miterlimit="10" d="
		M138.183,158.441c-3.656,5.631-7.312,11.26-10.968,16.89"/>
	<path fill="none" stroke="#808285" stroke-width="2" stroke-linecap="round" stroke-linejoin="round" stroke-miterlimit="10" d="
		M145.262,165.94c-3.591,5.617-7.196,11.225-10.813,16.825"/>
	<path fill="none" stroke="#808285" stroke-width="2" stroke-linecap="round" stroke-linejoin="round" stroke-miterlimit="10" d="
		M150.813,175.73c-3.079,4.766-6.157,9.531-9.238,14.295"/>
	<path fill="none" stroke="#808285" stroke-width="2" stroke-linecap="round" stroke-linejoin="round" stroke-miterlimit="10" d="
		M159.906,180.072c-2.529,3.895-5.058,7.789-7.587,11.684"/>
	<path fill="none" stroke="#808285" stroke-width="2" stroke-linecap="round" stroke-linejoin="round" stroke-miterlimit="10" d="
		M168.293,185.52c-1.228,1.943-2.457,3.885-3.688,5.825"/>
	<path fill="none" stroke="#808285" stroke-width="2" stroke-linecap="round" stroke-linejoin="round" stroke-miterlimit="10" d="
		M178.58,188.039c-0.471,0.932-0.959,1.854-1.464,2.768"/>
</g>
<path fill="none" stroke="#808285" stroke-width="2" stroke-linecap="round" stroke-linejoin="round" stroke-miterlimit="10" d="
	M162.237,181.561c-5.503-3.508-12.082-10.605-19.738-21.294l-33.496-46.536c13.637-3.03,23.705-8.213,30.206-15.552
	c6.499-7.336,9.749-15.989,9.749-25.959c0-9.331-2.852-17.365-8.553-24.105c-5.703-6.739-12.642-11.365-20.815-13.877
	c-8.176-2.513-20.876-3.769-38.103-3.769H22.391v4.426h6.101c6.14,0,10.767,1.755,13.877,5.264c2.232,2.473,3.35,8.813,3.35,19.021
	v104.794c0,9.253-0.837,15.115-2.512,17.586c-2.952,4.467-7.856,6.699-14.714,6.699h-6.101v4.426h69.504v-4.426h-6.34
	c-6.063,0-10.608-1.754-13.638-5.264c-2.234-2.471-3.35-8.812-3.35-19.021v-47.133c1.275,0.081,2.512,0.14,3.708,0.18
	c1.196,0.041,2.312,0.06,3.35,0.06c2.551,0,5.861-0.079,9.93-0.239l54.909,75.844h43.306v-4.426
	C174.918,187.303,167.74,185.07,162.237,181.561z M75.267,109.424c-0.718,0-1.636-0.019-2.751-0.06
	c-1.118-0.04-2.434-0.06-3.948-0.06V41.834c7.896-1.514,14.156-2.273,18.782-2.273c10.447,0,18.842,3.17,25.182,9.511
	c6.341,6.34,9.511,14.576,9.511,24.703c0,10.369-3.929,18.901-11.783,25.601C102.402,106.075,90.738,109.424,75.267,109.424z"/>
<g>
	<g>
		
			<line fill="none" stroke="#808285" stroke-width="1.5" stroke-miterlimit="10" x1="28.312" y1="215.375" x2="177.85" y2="215.375"/>
		<g>
			<polygon fill="#808285" points="29.515,219.466 22.391,215.353 29.515,211.238 			"/>
		</g>
		<g>
			<polygon fill="#808285" points="176.646,219.466 183.771,215.353 176.646,211.238 			"/>
		</g>
	</g>
</g>
<g>
	<g>
		
			<line fill="none" stroke="#808285" stroke-width="1.5" stroke-miterlimit="10" x1="214.042" y1="36.39" x2="214.042" y2="186.766"/>
		<g>
			<polygon fill="#808285" points="209.951,37.593 214.064,30.469 218.179,37.593 			"/>
		</g>
		<g>
			<polygon fill="#808285" points="209.951,185.562 214.064,192.686 218.179,185.562 			"/>
		</g>
	</g>
</g>
<line fill="none" stroke="#808285" stroke-width="1.5" stroke-linecap="round" stroke-miterlimit="10" x1="132.698" y1="30.469" x2="219.042" y2="30.469"/>
<line fill="none" stroke="#808285" stroke-width="1.5" stroke-linecap="round" stroke-miterlimit="10" x1="192.375" y1="192.686" x2="219.042" y2="192.686"/>
</svg>
