<?xml version="1.0" encoding="utf-8"?>
<!-- Generator: Adobe Illustrator 15.1.0, SVG Export Plug-In . SVG Version: 6.00 Build 0)  -->
<!DOCTYPE svg PUBLIC "-//W3C//DTD SVG 1.1//EN" "http://www.w3.org/Graphics/SVG/1.1/DTD/svg11.dtd">
<svg version="1.1" id="Layer_1" xmlns="http://www.w3.org/2000/svg" xmlns:xlink="http://www.w3.org/1999/xlink" x="0px" y="0px"
	 width="612px" height="792px" viewBox="0 0 612 792" enable-background="new 0 0 612 792" xml:space="preserve">
<linearGradient id="SVGID_1_" gradientUnits="userSpaceOnUse" x1="48.1172" y1="653.6045" x2="560.1169" y2="141.6047">
	<stop  offset="0" style="stop-color:#00AEEF"/>
	<stop  offset="1" style="stop-color:#2B2E7D"/>
</linearGradient>
<rect x="48.116" y="141.604" fill="url(#SVGID_1_)" width="512" height="512"/>
<g>
	<path fill="#FFFFFF" d="M168.548,586.117h-0.054c-0.42,0-0.828,0.123-1.224,0.369c-0.396,0.246-0.763,0.549-1.099,0.91
		c-0.468,0.432-0.899,0.957-1.296,1.574c-0.396,0.619-0.762,1.252-1.098,1.898c-0.313,0.648-0.504,1.309-0.576,1.98
		c-0.012,0.037-0.018,0.127-0.018,0.27v0.217c0.06,0.336,0.188,0.637,0.387,0.9s0.411,0.504,0.639,0.719
		c0.54,0.217,0.954,0.355,1.242,0.414c0.288,0.061,0.528,0.092,0.72,0.092c0.336,0,0.559-0.02,0.666-0.055
		c0.612-0.168,1.11-0.34,1.494-0.514s0.732-0.344,1.044-0.512h-0.036c0.12-0.098,0.262-0.182,0.424-0.252
		c0.161-0.072,0.314-0.133,0.459-0.182c0.144-0.047,0.267-0.084,0.368-0.107c0.103-0.023,0.159-0.035,0.171-0.035h0.072
		c0.504,0,0.756,0.293,0.756,0.881v-0.035c-0.06,0.119-0.135,0.234-0.225,0.342s-0.237,0.246-0.441,0.414
		c-0.744,0.564-1.467,0.998-2.169,1.305s-1.503,0.459-2.402,0.459c-0.217,0-0.424-0.012-0.621-0.035
		c-0.198-0.025-0.394-0.049-0.585-0.072c-0.673-0.096-1.332-0.268-1.98-0.514c-0.647-0.246-1.188-0.656-1.62-1.232l-0.396-0.469
		c-0.108-0.203-0.189-0.416-0.243-0.639s-0.093-0.494-0.117-0.818c-0.012-0.037-0.018-0.102-0.018-0.199v-0.232
		c0.096-0.889,0.3-1.746,0.611-2.574c0.313-0.828,0.711-1.609,1.197-2.34c0.486-0.732,1.047-1.402,1.684-2.008
		c0.636-0.605,1.325-1.137,2.069-1.594c0.313-0.096,0.601-0.164,0.864-0.207c0.264-0.041,0.492-0.063,0.684-0.063
		c0.181,0,0.352,0.016,0.514,0.045c0.162,0.031,0.336,0.078,0.521,0.145c0.187,0.066,0.399,0.152,0.64,0.26
		c0.239,0.109,0.521,0.246,0.846,0.414c0.407,0.205,0.747,0.424,1.017,0.658c0.271,0.234,0.441,0.506,0.514,0.818v0.145
		c0.012,0.023,0.018,0.061,0.018,0.107c0,0.145-0.084,0.309-0.252,0.496c-0.168,0.186-0.391,0.344-0.666,0.477
		c-0.012,0-0.093-0.039-0.243-0.117s-0.285-0.15-0.405-0.217c-0.12-0.064-0.191-0.104-0.216-0.117L168.548,586.117z"/>
	<path fill="#FFFFFF" d="M181.076,584.443c0.252,0.037,0.521,0.105,0.81,0.207c0.288,0.104,0.582,0.256,0.882,0.459
		c0.3,0.205,0.591,0.463,0.873,0.775c0.282,0.311,0.549,0.701,0.801,1.17c0.108,0.215,0.189,0.439,0.243,0.674
		s0.093,0.465,0.117,0.693c0.012,0.061,0.021,0.127,0.027,0.197c0.006,0.072,0.009,0.139,0.009,0.199v0.396
		c0,0.563-0.063,1.148-0.189,1.754s-0.317,1.203-0.576,1.791c-0.258,0.588-0.588,1.162-0.989,1.719
		c-0.402,0.559-0.873,1.072-1.413,1.539c-0.48,0.373-1.044,0.639-1.692,0.801c-0.647,0.162-1.368,0.244-2.16,0.244
		c-0.276,0-0.534-0.01-0.773-0.027c-0.24-0.018-0.492-0.057-0.756-0.117c-0.961-0.156-1.746-0.402-2.358-0.738
		s-1.122-0.84-1.53-1.512v0.018c-0.24-0.348-0.404-0.668-0.495-0.963c-0.09-0.293-0.152-0.578-0.188-0.855
		c-0.013-0.035-0.019-0.113-0.019-0.232v-0.271c0-0.539,0.081-1.104,0.243-1.691s0.394-1.16,0.693-1.719s0.663-1.09,1.089-1.594
		s0.903-0.947,1.431-1.332c0.097-0.059,0.24-0.148,0.433-0.27c0.191-0.119,0.443-0.27,0.756-0.449
		c0.36-0.205,0.837-0.375,1.431-0.514s1.306-0.254,2.133-0.352H181.076z M179.969,585.992c-0.15,0.023-0.285,0.055-0.405,0.09
		c-0.504,0.119-0.983,0.326-1.439,0.621s-0.876,0.643-1.261,1.043c-0.384,0.402-0.731,0.844-1.044,1.324
		c-0.312,0.48-0.575,0.965-0.792,1.457c-0.216,0.492-0.387,0.977-0.513,1.449c-0.126,0.475-0.195,0.904-0.207,1.287
		c0,0.037,0.006,0.061,0.019,0.072c0.023,0.432,0.161,0.822,0.413,1.17s0.618,0.6,1.099,0.756c0.216,0.107,0.432,0.201,0.647,0.279
		c0.217,0.078,0.391,0.117,0.522,0.117c0.947-0.037,1.772-0.275,2.475-0.721c0.702-0.443,1.278-0.992,1.729-1.646
		s0.785-1.359,1.008-2.115c0.222-0.756,0.333-1.463,0.333-2.123c0-0.096-0.003-0.195-0.009-0.297
		c-0.007-0.104-0.016-0.201-0.027-0.297c-0.061-0.408-0.168-0.82-0.324-1.234s-0.384-0.729-0.684-0.945
		c-0.349-0.215-0.696-0.324-1.044-0.324C180.283,585.955,180.118,585.969,179.969,585.992z"/>
	<path fill="#FFFFFF" d="M197.348,584.318c0.156,0.156,0.234,0.391,0.234,0.701c0,0.24-0.036,0.49-0.108,0.748
		s-0.156,0.494-0.252,0.711c-0.036,0.313-0.09,0.627-0.162,0.945c-0.072,0.316-0.144,0.617-0.216,0.898
		c-0.072,0.283-0.142,0.523-0.207,0.721c-0.066,0.197-0.117,0.334-0.153,0.404c-0.036,0.121-0.084,0.283-0.144,0.486
		c-0.061,0.205-0.12,0.418-0.18,0.639c-0.061,0.223-0.117,0.439-0.172,0.648c-0.054,0.211-0.093,0.381-0.116,0.514
		c-0.049,0.203-0.091,0.365-0.126,0.486c-0.036,0.119-0.091,0.293-0.162,0.521c-0.072,0.229-0.175,0.553-0.307,0.973
		s-0.323,1.031-0.575,1.836c-0.108,0.311-0.265,0.557-0.469,0.736c-0.204,0.182-0.443,0.271-0.72,0.271
		c-0.24,0-0.492-0.082-0.756-0.244c-0.265-0.162-0.534-0.422-0.811-0.783c-0.132-0.119-0.3-0.354-0.504-0.701
		s-0.426-0.785-0.666-1.314c-0.24-0.527-0.482-1.137-0.729-1.826s-0.483-1.443-0.711-2.26l-0.072-0.053l-0.234,0.018l-0.09,0.072
		c-0.06,0.359-0.138,0.762-0.233,1.205c-0.097,0.443-0.201,0.9-0.315,1.367c-0.114,0.469-0.233,0.932-0.359,1.387
		c-0.127,0.457-0.243,0.879-0.352,1.27c-0.107,0.391-0.207,0.732-0.297,1.025c-0.09,0.295-0.159,0.508-0.207,0.639v0.09
		c-0.036,0.313-0.147,0.535-0.333,0.666c-0.187,0.133-0.399,0.199-0.639,0.199c-0.145,0-0.295-0.027-0.45-0.082
		c-0.156-0.053-0.294-0.131-0.414-0.234c-0.12-0.102-0.219-0.221-0.297-0.359s-0.117-0.291-0.117-0.459v-0.145
		c0-0.047,0.006-0.107,0.018-0.18c0.013-0.072,0.036-0.191,0.072-0.359s0.093-0.404,0.171-0.711s0.183-0.723,0.315-1.252
		c0.132-0.527,0.3-1.184,0.504-1.971c0.204-0.785,0.45-1.742,0.738-2.871c0.071-0.275,0.146-0.563,0.225-0.863
		s0.159-0.605,0.243-0.918c0.072-0.348,0.149-0.656,0.233-0.928c0.084-0.27,0.229-0.498,0.433-0.684s0.492-0.336,0.864-0.449
		c0.371-0.115,0.875-0.189,1.512-0.227c0.204,0.014,0.366,0.08,0.486,0.199c0.119,0.119,0.209,0.27,0.27,0.449
		c0.06,0.18,0.096,0.379,0.108,0.594c0.012,0.217,0.018,0.428,0.018,0.631v0.287c0,0.17,0.003,0.316,0.009,0.441
		c0.006,0.127,0.027,0.225,0.063,0.297c0.071,0.445,0.152,0.871,0.243,1.279c0.09,0.408,0.197,0.818,0.323,1.232
		s0.271,0.836,0.433,1.27c0.162,0.432,0.345,0.881,0.549,1.35l0.234-0.018l0.054-0.037c0.132-0.383,0.264-0.816,0.396-1.295
		c0.132-0.48,0.258-0.967,0.378-1.459s0.237-0.975,0.352-1.449c0.113-0.473,0.213-0.893,0.297-1.26
		c0.084-0.365,0.174-0.777,0.27-1.232c0.036-0.191,0.084-0.387,0.145-0.586c0.06-0.197,0.141-0.377,0.243-0.539
		c0.102-0.162,0.225-0.303,0.369-0.424c0.144-0.119,0.317-0.197,0.521-0.234L197.348,584.318z"/>
	<path fill="#FFFFFF" d="M202.946,585.199c0.275-0.107,0.561-0.193,0.854-0.26s0.585-0.1,0.873-0.1
		c0.012-0.012,0.061-0.018,0.145-0.018c0.563,0.061,1.059,0.184,1.484,0.369s0.867,0.398,1.323,0.639
		c0.384,0.205,0.669,0.371,0.855,0.504c0.186,0.133,0.314,0.301,0.387,0.504c0.023,0.061,0.042,0.135,0.054,0.225
		s0.019,0.178,0.019,0.262c0,0.24-0.061,0.441-0.181,0.604s-0.336,0.242-0.647,0.242h-0.09c-0.12-0.023-0.271-0.096-0.45-0.217
		c-0.18-0.119-0.408-0.287-0.685-0.504c-0.168-0.154-0.359-0.283-0.575-0.387c-0.217-0.102-0.436-0.18-0.657-0.234
		c-0.223-0.053-0.444-0.09-0.666-0.107c-0.223-0.018-0.423-0.027-0.604-0.027h-0.071c-0.553,0.168-1.051,0.439-1.494,0.811
		c-0.444,0.373-0.805,0.768-1.08,1.188c-0.156,0.24-0.234,0.518-0.234,0.828c0,0.35,0.097,0.658,0.288,0.928
		c0.192,0.27,0.456,0.416,0.792,0.441c0.048,0,0.078,0.006,0.09,0.018c0.433,0.18,0.858,0.332,1.278,0.459
		c0.42,0.125,0.834,0.268,1.242,0.422c0.684,0.133,1.229,0.361,1.638,0.686s0.696,0.672,0.864,1.043
		c0.023,0.096,0.045,0.205,0.063,0.324c0.019,0.121,0.033,0.205,0.045,0.252c0,0.023-0.048,0.162-0.144,0.414
		s-0.258,0.504-0.486,0.756c-0.264,0.289-0.566,0.549-0.908,0.783c-0.343,0.234-0.741,0.436-1.197,0.604
		c-0.24,0.059-0.489,0.131-0.747,0.215s-0.573,0.127-0.945,0.127c-0.096,0.012-0.195,0.021-0.297,0.027s-0.201,0.008-0.297,0.008
		c-0.396,0-0.819-0.041-1.269-0.125c-0.45-0.084-0.897-0.201-1.342-0.352c-0.443-0.15-0.87-0.324-1.277-0.521
		c-0.408-0.199-0.769-0.414-1.08-0.648c-0.313-0.234-0.562-0.48-0.747-0.738c-0.187-0.258-0.279-0.518-0.279-0.783
		c0-0.264,0.097-0.51,0.288-0.738l0.018-0.018c0.133-0.131,0.304-0.207,0.514-0.225s0.398-0.039,0.566-0.063v0.018
		c0.181,0.096,0.321,0.207,0.424,0.332c0.102,0.127,0.194,0.256,0.278,0.389c0.204,0.311,0.456,0.584,0.756,0.818
		s0.612,0.436,0.937,0.604c0.239,0.061,0.45,0.111,0.63,0.152c0.18,0.043,0.345,0.074,0.495,0.1
		c0.149,0.023,0.291,0.041,0.423,0.053c0.132,0.014,0.276,0.02,0.432,0.02c0.072,0,0.195-0.004,0.369-0.01s0.352-0.016,0.531-0.027
		s0.348-0.027,0.504-0.045s0.252-0.039,0.288-0.063c0.072-0.012,0.162-0.043,0.27-0.09c0.108-0.049,0.213-0.111,0.315-0.189
		c0.102-0.078,0.189-0.168,0.261-0.27c0.072-0.102,0.108-0.213,0.108-0.334v-0.072c-0.013-0.096-0.052-0.186-0.117-0.27
		c-0.066-0.084-0.201-0.174-0.405-0.27c-0.084-0.119-0.3-0.229-0.647-0.324c-0.349-0.096-0.708-0.186-1.08-0.27
		c-0.204-0.049-0.402-0.096-0.594-0.145c-0.192-0.047-0.372-0.113-0.54-0.197c-0.061-0.049-0.13-0.09-0.207-0.127
		c-0.078-0.035-0.171-0.078-0.279-0.125c-0.276-0.133-0.549-0.297-0.819-0.496c-0.27-0.197-0.513-0.42-0.729-0.666
		s-0.396-0.51-0.54-0.791c-0.145-0.283-0.223-0.568-0.234-0.855c0-0.275,0.063-0.564,0.189-0.863
		c0.126-0.301,0.285-0.631,0.477-0.99c0.229-0.42,0.606-0.852,1.134-1.297c0.528-0.443,1.135-0.828,1.818-1.152L202.946,585.199z"/>
	<path fill="#FFFFFF" d="M214.916,586.334c-0.12,0.191-0.216,0.352-0.288,0.477c-0.072,0.127-0.139,0.295-0.198,0.504
		c-0.061,0.211-0.132,0.498-0.216,0.865c-0.084,0.365-0.195,0.875-0.333,1.529s-0.318,1.494-0.54,2.52
		c-0.223,1.027-0.507,2.307-0.855,3.844v0.125c0,0.277-0.113,0.471-0.342,0.586c-0.228,0.113-0.468,0.17-0.72,0.17
		c-0.18,0-0.345-0.023-0.495-0.07c-0.15-0.049-0.243-0.109-0.279-0.182v0.02c-0.168-0.205-0.272-0.35-0.314-0.434
		c-0.042-0.082-0.063-0.186-0.063-0.305c0.012-0.023,0.027-0.063,0.045-0.117c0.019-0.055,0.048-0.178,0.091-0.369
		c0.041-0.191,0.102-0.477,0.18-0.855c0.078-0.377,0.186-0.906,0.324-1.584c0.138-0.678,0.312-1.535,0.521-2.574
		c0.21-1.037,0.465-2.307,0.766-3.807l-0.019-0.09l0.019,0.018l-0.162-0.197h-2.017c-0.264,0-0.495-0.012-0.692-0.037
		c-0.198-0.023-0.424-0.064-0.676-0.125c-0.083-0.145-0.155-0.314-0.216-0.514c-0.06-0.197-0.09-0.387-0.09-0.566
		s0.036-0.34,0.108-0.477c0.071-0.139,0.197-0.219,0.378-0.244c0.468-0.023,0.815-0.045,1.044-0.063
		c0.228-0.018,0.42-0.027,0.576-0.027h0.306c0.12,0,0.282,0.004,0.486,0.01c0.203,0.006,0.479,0.008,0.828,0.008h1.422
		c0.132-0.012,0.345-0.025,0.639-0.045c0.294-0.018,0.597-0.031,0.909-0.045c0.312-0.012,0.594-0.02,0.846-0.025
		s0.402-0.01,0.45-0.01c0.048-0.012,0.096-0.018,0.144-0.018s0.097,0,0.145,0h0.288c0.312,0,0.608,0.006,0.891,0.018
		s0.513,0.018,0.693,0.018c0.155-0.035,0.3-0.053,0.432-0.053c0.396,0,0.705,0.113,0.927,0.342c0.223,0.227,0.333,0.473,0.333,0.736
		c0,0.17-0.045,0.324-0.135,0.469s-0.237,0.252-0.44,0.324L214.916,586.334z"/>
	<path fill="#FFFFFF" d="M230.485,587.936c-0.097,0.42-0.324,0.82-0.685,1.197c-0.359,0.379-0.798,0.727-1.313,1.045
		c-0.517,0.316-1.077,0.6-1.684,0.846c-0.605,0.246-1.203,0.447-1.791,0.604l-0.107,0.107l-0.055,0.162l0.019,0.072
		c0.348,0.432,0.783,0.852,1.305,1.26c0.522,0.408,1.026,0.789,1.512,1.143c0.486,0.354,0.903,0.67,1.251,0.945
		c0.349,0.275,0.522,0.498,0.522,0.666c0,0.145-0.12,0.24-0.36,0.287c0,0.24-0.075,0.402-0.225,0.486
		c-0.15,0.084-0.333,0.162-0.549,0.234c-0.732-0.313-1.374-0.678-1.926-1.098c-0.553-0.42-1.123-0.912-1.711-1.477
		c-0.096-0.072-0.161-0.127-0.197-0.162s-0.066-0.066-0.09-0.09h0.018c-0.276-0.229-0.558-0.469-0.846-0.721s-0.589-0.51-0.9-0.773
		h-0.054c-0.12,0.264-0.252,0.588-0.396,0.973c-0.144,0.383-0.285,0.764-0.423,1.143c-0.138,0.377-0.264,0.717-0.378,1.018
		c-0.114,0.299-0.195,0.498-0.243,0.594l-0.036,0.072v0.035c0,0.229-0.06,0.416-0.18,0.566s-0.276,0.227-0.468,0.227h-0.036
		c-0.097,0-0.231-0.049-0.405-0.145s-0.291-0.168-0.351-0.217c-0.36-0.24-0.553-0.498-0.576-0.773v-0.145
		c0-0.047,0.006-0.111,0.018-0.189c0.013-0.076,0.039-0.225,0.081-0.439c0.042-0.217,0.105-0.525,0.189-0.928
		s0.204-0.953,0.36-1.656c0.155-0.701,0.351-1.58,0.585-2.637c0.233-1.057,0.519-2.346,0.854-3.869
		c0.012-0.037,0.036-0.105,0.072-0.207c0.036-0.104,0.078-0.213,0.126-0.334c0.048-0.119,0.102-0.236,0.162-0.352
		c0.06-0.113,0.119-0.207,0.18-0.277v0.018c0.132-0.18,0.291-0.316,0.478-0.406c0.186-0.09,0.38-0.152,0.585-0.188
		c0.203-0.037,0.413-0.057,0.63-0.064c0.216-0.006,0.426-0.014,0.63-0.025c0.756,0,1.542,0.064,2.357,0.197
		c0.816,0.133,1.692,0.414,2.628,0.846c0.42,0.301,0.735,0.559,0.945,0.773c0.21,0.217,0.339,0.492,0.387,0.828L230.485,587.936z
		 M228.019,588.135c0.061-0.145,0.114-0.273,0.162-0.389c0.048-0.113,0.072-0.193,0.072-0.242c-0.012-0.084-0.048-0.168-0.108-0.252
		c-0.06-0.084-0.129-0.168-0.207-0.252s-0.159-0.158-0.242-0.225c-0.084-0.066-0.15-0.129-0.198-0.189l-0.036-0.035h0.018
		c-0.216-0.156-0.474-0.277-0.773-0.361s-0.615-0.148-0.945-0.197s-0.657-0.078-0.98-0.09c-0.324-0.012-0.612-0.018-0.864-0.018
		c-0.012,0.059-0.069,0.242-0.171,0.549c-0.103,0.305-0.213,0.656-0.333,1.053s-0.229,0.799-0.324,1.205
		c-0.096,0.408-0.144,0.744-0.144,1.008c0,0.324,0.083,0.486,0.252,0.486c0.119,0,0.275-0.078,0.468-0.234
		c0.36-0.023,0.692-0.053,0.999-0.09c0.306-0.035,0.6-0.09,0.882-0.162c0.282-0.07,0.561-0.168,0.837-0.287s0.57-0.27,0.882-0.449
		l0.036-0.02L228.019,588.135z"/>
	<path fill="#FFFFFF" d="M239.773,583.994c0.036-0.035,0.126-0.113,0.27-0.234c0.145-0.119,0.276-0.18,0.396-0.18
		c0.096,0,0.21,0.012,0.342,0.035c0.132,0.025,0.261,0.061,0.387,0.109c0.126,0.047,0.243,0.105,0.352,0.17
		c0.107,0.066,0.186,0.143,0.233,0.225c0.061,0.24,0.097,0.439,0.108,0.596c0.012,0.154,0.018,0.342,0.018,0.557
		c-0.084,0.744-0.213,1.512-0.387,2.305c-0.174,0.791-0.357,1.541-0.549,2.25c-0.204,0.816-0.432,1.645-0.684,2.484
		s-0.57,1.605-0.954,2.295c-0.385,0.689-0.855,1.254-1.413,1.691c-0.559,0.438-1.239,0.656-2.043,0.656h-0.072
		c-0.036,0-0.061,0.006-0.072,0.02h-0.144c-0.133,0-0.261-0.004-0.387-0.01s-0.243-0.01-0.352-0.01c-0.12,0-0.21,0.006-0.27,0.02
		c-0.457,0-0.897-0.088-1.323-0.262s-0.915-0.482-1.467-0.928l-0.126-0.053c-0.396-0.336-0.666-0.721-0.811-1.152
		c-0.144-0.432-0.216-0.875-0.216-1.332c0-0.229,0.012-0.453,0.036-0.676c0.023-0.221,0.054-0.439,0.09-0.656
		c0.048-0.324,0.093-0.6,0.135-0.828s0.084-0.443,0.126-0.648c0.042-0.203,0.093-0.41,0.153-0.621
		c0.06-0.209,0.129-0.459,0.207-0.746c0.078-0.289,0.177-0.627,0.297-1.018c0.12-0.389,0.264-0.867,0.432-1.432
		c0.084-0.322,0.153-0.584,0.207-0.781c0.055-0.199,0.093-0.322,0.117-0.369v0.018l0.019-0.107c0.275-0.434,0.507-0.717,0.692-0.855
		c0.187-0.139,0.388-0.207,0.604-0.207c0.144,0.035,0.303,0.092,0.477,0.17s0.336,0.168,0.486,0.271
		c0.149,0.102,0.279,0.215,0.387,0.342c0.108,0.125,0.162,0.254,0.162,0.387v0.035c-0.036,0.361-0.057,0.609-0.063,0.748
		c-0.007,0.137-0.021,0.254-0.046,0.35c-0.023,0.098-0.057,0.211-0.099,0.344c-0.042,0.131-0.123,0.371-0.243,0.719
		s-0.278,0.844-0.477,1.486c-0.198,0.641-0.459,1.514-0.783,2.617c-0.132,0.457-0.237,0.871-0.315,1.242
		c-0.078,0.373-0.116,0.697-0.116,0.973c-0.013,0.049-0.019,0.107-0.019,0.18c0,0.217,0.061,0.406,0.181,0.566
		c0.119,0.162,0.261,0.299,0.423,0.406s0.323,0.186,0.485,0.234c0.162,0.047,0.291,0.072,0.388,0.072h0.09
		c0.072,0,0.177-0.004,0.314-0.01s0.294-0.023,0.469-0.055c0.174-0.029,0.351-0.074,0.53-0.135c0.181-0.061,0.343-0.145,0.486-0.252
		l0.054-0.072l0.666-0.881c0.12-0.168,0.243-0.408,0.369-0.721s0.252-0.66,0.378-1.043c0.126-0.385,0.246-0.787,0.36-1.207
		c0.113-0.42,0.219-0.828,0.314-1.225c0.168-0.684,0.291-1.244,0.369-1.682c0.078-0.439,0.147-0.85,0.207-1.234L239.773,583.994z"/>
	<path fill="#FFFFFF" d="M249.745,586.117h-0.054c-0.42,0-0.828,0.123-1.224,0.369c-0.396,0.246-0.763,0.549-1.099,0.91
		c-0.468,0.432-0.899,0.957-1.296,1.574c-0.396,0.619-0.762,1.252-1.098,1.898c-0.313,0.648-0.504,1.309-0.576,1.98
		c-0.012,0.037-0.018,0.127-0.018,0.27v0.217c0.06,0.336,0.188,0.637,0.387,0.9s0.411,0.504,0.639,0.719
		c0.54,0.217,0.954,0.355,1.242,0.414c0.288,0.061,0.528,0.092,0.72,0.092c0.336,0,0.559-0.02,0.666-0.055
		c0.612-0.168,1.11-0.34,1.494-0.514s0.732-0.344,1.044-0.512h-0.036c0.12-0.098,0.262-0.182,0.424-0.252
		c0.161-0.072,0.314-0.133,0.459-0.182c0.144-0.047,0.267-0.084,0.368-0.107c0.103-0.023,0.159-0.035,0.171-0.035h0.072
		c0.504,0,0.756,0.293,0.756,0.881v-0.035c-0.06,0.119-0.135,0.234-0.225,0.342s-0.237,0.246-0.441,0.414
		c-0.744,0.564-1.467,0.998-2.169,1.305s-1.503,0.459-2.402,0.459c-0.217,0-0.424-0.012-0.621-0.035
		c-0.198-0.025-0.394-0.049-0.585-0.072c-0.673-0.096-1.332-0.268-1.98-0.514c-0.647-0.246-1.188-0.656-1.62-1.232l-0.396-0.469
		c-0.108-0.203-0.189-0.416-0.243-0.639s-0.093-0.494-0.117-0.818c-0.012-0.037-0.018-0.102-0.018-0.199v-0.232
		c0.096-0.889,0.3-1.746,0.611-2.574c0.313-0.828,0.711-1.609,1.197-2.34c0.486-0.732,1.047-1.402,1.684-2.008
		c0.636-0.605,1.325-1.137,2.069-1.594c0.313-0.096,0.601-0.164,0.864-0.207c0.264-0.041,0.492-0.063,0.684-0.063
		c0.181,0,0.352,0.016,0.514,0.045c0.162,0.031,0.336,0.078,0.521,0.145c0.187,0.066,0.399,0.152,0.64,0.26
		c0.239,0.109,0.521,0.246,0.846,0.414c0.407,0.205,0.747,0.424,1.017,0.658c0.271,0.234,0.441,0.506,0.514,0.818v0.145
		c0.012,0.023,0.018,0.061,0.018,0.107c0,0.145-0.084,0.309-0.252,0.496c-0.168,0.186-0.391,0.344-0.666,0.477
		c-0.012,0-0.093-0.039-0.243-0.117s-0.285-0.15-0.405-0.217c-0.12-0.064-0.191-0.104-0.216-0.117L249.745,586.117z"/>
	<path fill="#FFFFFF" d="M259.159,586.334c-0.12,0.191-0.216,0.352-0.288,0.477c-0.072,0.127-0.139,0.295-0.198,0.504
		c-0.061,0.211-0.132,0.498-0.216,0.865c-0.084,0.365-0.195,0.875-0.333,1.529s-0.318,1.494-0.54,2.52
		c-0.223,1.027-0.507,2.307-0.855,3.844v0.125c0,0.277-0.113,0.471-0.342,0.586c-0.228,0.113-0.468,0.17-0.72,0.17
		c-0.18,0-0.345-0.023-0.495-0.07c-0.15-0.049-0.243-0.109-0.279-0.182v0.02c-0.168-0.205-0.272-0.35-0.314-0.434
		c-0.042-0.082-0.063-0.186-0.063-0.305c0.012-0.023,0.027-0.063,0.045-0.117c0.019-0.055,0.048-0.178,0.091-0.369
		c0.041-0.191,0.102-0.477,0.18-0.855c0.078-0.377,0.186-0.906,0.324-1.584c0.138-0.678,0.312-1.535,0.521-2.574
		c0.21-1.037,0.465-2.307,0.766-3.807l-0.019-0.09l0.019,0.018l-0.162-0.197h-2.017c-0.264,0-0.495-0.012-0.692-0.037
		c-0.198-0.023-0.424-0.064-0.676-0.125c-0.083-0.145-0.155-0.314-0.216-0.514c-0.06-0.197-0.09-0.387-0.09-0.566
		s0.036-0.34,0.108-0.477c0.071-0.139,0.197-0.219,0.378-0.244c0.468-0.023,0.815-0.045,1.044-0.063
		c0.228-0.018,0.42-0.027,0.576-0.027h0.306c0.12,0,0.282,0.004,0.486,0.01c0.203,0.006,0.479,0.008,0.828,0.008h1.422
		c0.132-0.012,0.345-0.025,0.639-0.045c0.294-0.018,0.597-0.031,0.909-0.045c0.312-0.012,0.594-0.02,0.846-0.025
		s0.402-0.01,0.45-0.01c0.048-0.012,0.096-0.018,0.144-0.018s0.097,0,0.145,0h0.288c0.312,0,0.608,0.006,0.891,0.018
		s0.513,0.018,0.693,0.018c0.155-0.035,0.3-0.053,0.432-0.053c0.396,0,0.705,0.113,0.927,0.342c0.223,0.227,0.333,0.473,0.333,0.736
		c0,0.17-0.045,0.324-0.135,0.469s-0.237,0.252-0.44,0.324L259.159,586.334z"/>
	<path fill="#FFFFFF" d="M274.729,587.936c-0.097,0.42-0.324,0.82-0.685,1.197c-0.359,0.379-0.798,0.727-1.313,1.045
		c-0.517,0.316-1.077,0.6-1.684,0.846c-0.605,0.246-1.203,0.447-1.791,0.604l-0.107,0.107l-0.055,0.162l0.019,0.072
		c0.348,0.432,0.783,0.852,1.305,1.26c0.522,0.408,1.026,0.789,1.512,1.143c0.486,0.354,0.903,0.67,1.251,0.945
		c0.349,0.275,0.522,0.498,0.522,0.666c0,0.145-0.12,0.24-0.36,0.287c0,0.24-0.075,0.402-0.225,0.486
		c-0.15,0.084-0.333,0.162-0.549,0.234c-0.732-0.313-1.374-0.678-1.926-1.098c-0.553-0.42-1.123-0.912-1.711-1.477
		c-0.096-0.072-0.161-0.127-0.197-0.162s-0.066-0.066-0.09-0.09h0.018c-0.276-0.229-0.558-0.469-0.846-0.721s-0.589-0.51-0.9-0.773
		h-0.054c-0.12,0.264-0.252,0.588-0.396,0.973c-0.144,0.383-0.285,0.764-0.423,1.143c-0.138,0.377-0.264,0.717-0.378,1.018
		c-0.114,0.299-0.195,0.498-0.243,0.594l-0.036,0.072v0.035c0,0.229-0.06,0.416-0.18,0.566s-0.276,0.227-0.468,0.227h-0.036
		c-0.097,0-0.231-0.049-0.405-0.145s-0.291-0.168-0.351-0.217c-0.36-0.24-0.553-0.498-0.576-0.773v-0.145
		c0-0.047,0.006-0.111,0.018-0.189c0.013-0.076,0.039-0.225,0.081-0.439c0.042-0.217,0.105-0.525,0.189-0.928
		s0.204-0.953,0.36-1.656c0.155-0.701,0.351-1.58,0.585-2.637c0.233-1.057,0.519-2.346,0.854-3.869
		c0.012-0.037,0.036-0.105,0.072-0.207c0.036-0.104,0.078-0.213,0.126-0.334c0.048-0.119,0.102-0.236,0.162-0.352
		c0.06-0.113,0.119-0.207,0.18-0.277v0.018c0.132-0.18,0.291-0.316,0.478-0.406c0.186-0.09,0.38-0.152,0.585-0.188
		c0.203-0.037,0.413-0.057,0.63-0.064c0.216-0.006,0.426-0.014,0.63-0.025c0.756,0,1.542,0.064,2.357,0.197
		c0.816,0.133,1.692,0.414,2.628,0.846c0.42,0.301,0.735,0.559,0.945,0.773c0.21,0.217,0.339,0.492,0.387,0.828L274.729,587.936z
		 M272.263,588.135c0.061-0.145,0.114-0.273,0.162-0.389c0.048-0.113,0.072-0.193,0.072-0.242c-0.012-0.084-0.048-0.168-0.108-0.252
		c-0.06-0.084-0.129-0.168-0.207-0.252s-0.159-0.158-0.242-0.225c-0.084-0.066-0.15-0.129-0.198-0.189l-0.036-0.035h0.018
		c-0.216-0.156-0.474-0.277-0.773-0.361s-0.615-0.148-0.945-0.197s-0.657-0.078-0.98-0.09c-0.324-0.012-0.612-0.018-0.864-0.018
		c-0.012,0.059-0.069,0.242-0.171,0.549c-0.103,0.305-0.213,0.656-0.333,1.053s-0.229,0.799-0.324,1.205
		c-0.096,0.408-0.144,0.744-0.144,1.008c0,0.324,0.083,0.486,0.252,0.486c0.119,0,0.275-0.078,0.468-0.234
		c0.36-0.023,0.692-0.053,0.999-0.09c0.306-0.035,0.6-0.09,0.882-0.162c0.282-0.07,0.561-0.168,0.837-0.287s0.57-0.27,0.882-0.449
		l0.036-0.02L272.263,588.135z"/>
	<path fill="#FFFFFF" d="M274.684,591.932c-0.042-0.156-0.075-0.281-0.099-0.377v-0.127c-0.013-0.023-0.019-0.061-0.019-0.107
		v-0.072c0-0.18,0.065-0.297,0.198-0.352c0.132-0.053,0.317-0.104,0.558-0.152h-0.018c0.06-0.012,0.207-0.023,0.44-0.035
		c0.234-0.014,0.507-0.025,0.819-0.037c0.312-0.012,0.642-0.021,0.99-0.027c0.348-0.006,0.672-0.008,0.972-0.008
		c0.12,0,0.243-0.006,0.369-0.02c0.126-0.012,0.249-0.018,0.369-0.018h0.773c0.552,0,1.068,0.039,1.549,0.117
		c0.479,0.078,0.875,0.262,1.188,0.549c0.06,0.049,0.12,0.133,0.18,0.252c0.061,0.121,0.12,0.246,0.181,0.379
		c0,0.096-0.016,0.17-0.045,0.225c-0.03,0.055-0.1,0.105-0.207,0.152c-0.12,0.084-0.252,0.135-0.396,0.154
		c-0.144,0.018-0.372,0.025-0.684,0.025h-0.36c-0.096,0.025-0.306,0.045-0.63,0.064c-0.324,0.018-0.666,0.033-1.026,0.045
		c-0.359,0.012-0.695,0.021-1.008,0.027c-0.312,0.006-0.504,0.008-0.576,0.008h-0.036c-0.168,0-0.33,0.006-0.485,0.018
		c-0.156,0.014-0.313,0.025-0.468,0.037c-0.181,0-0.349,0.002-0.504,0.008c-0.156,0.008-0.307,0.01-0.45,0.01
		c-0.349,0-0.643-0.023-0.882-0.072c-0.24-0.047-0.408-0.145-0.505-0.287C274.788,592.215,274.726,592.088,274.684,591.932z"/>
	<path fill="#FFFFFF" d="M290.082,591.852c-0.275,0.102-0.569,0.195-0.882,0.279c-0.312,0.084-0.65,0.158-1.017,0.225
		s-0.777,0.129-1.233,0.189l-0.162,0.143l-0.018,0.037l0.018-0.02l-0.468,2.395c-0.084,0.301-0.126,0.607-0.126,0.918
		c-0.024,0.168-0.048,0.309-0.072,0.424c-0.023,0.113-0.065,0.207-0.126,0.279c-0.06,0.072-0.141,0.131-0.242,0.18
		c-0.103,0.047-0.237,0.09-0.405,0.125c-0.048,0.025-0.126,0.037-0.234,0.037c-0.144,0-0.303-0.033-0.477-0.1
		s-0.34-0.146-0.495-0.242c-0.156-0.098-0.285-0.199-0.387-0.307c-0.103-0.107-0.153-0.209-0.153-0.307V596
		c0.024-0.313,0.066-0.648,0.126-1.008s0.126-0.695,0.198-1.008c0.191-0.936,0.371-1.834,0.54-2.691
		c0.168-0.857,0.348-1.756,0.54-2.691c0.06-0.299,0.119-0.605,0.18-0.918c0.06-0.311,0.114-0.605,0.162-0.881
		c0.096-0.434,0.198-0.822,0.306-1.17c0.108-0.35,0.318-0.686,0.63-1.01c0.156-0.143,0.333-0.258,0.531-0.342
		s0.435-0.125,0.711-0.125h0.054c0.408,0.012,0.847,0.045,1.314,0.1c0.468,0.053,0.927,0.125,1.377,0.215s0.873,0.189,1.269,0.297
		c0.396,0.109,0.727,0.223,0.99,0.342c0.685,0.313,1.186,0.68,1.503,1.1c0.318,0.42,0.507,0.936,0.567,1.547
		c0,0.816-0.33,1.518-0.99,2.105s-1.565,1.141-2.718,1.656C290.629,591.639,290.358,591.75,290.082,591.852z M288.03,590.689
		c0.601-0.227,1.173-0.459,1.72-0.693c0.546-0.232,1.025-0.473,1.439-0.719s0.744-0.498,0.99-0.756s0.369-0.531,0.369-0.82
		c0-0.311-0.187-0.646-0.559-1.008c-0.036,0-0.06-0.006-0.071-0.018c-0.036,0-0.055-0.018-0.055-0.055
		c-0.216-0.131-0.471-0.242-0.765-0.332s-0.594-0.162-0.9-0.217c-0.306-0.053-0.609-0.092-0.909-0.117
		c-0.3-0.023-0.563-0.035-0.792-0.035c-0.132,0-0.246,0.084-0.342,0.252s-0.186,0.398-0.27,0.693s-0.165,0.648-0.243,1.063
		s-0.159,0.873-0.243,1.377c-0.036,0.203-0.072,0.408-0.107,0.611c-0.036,0.205-0.072,0.414-0.108,0.631l0.018,0.053l0.198,0.199
		l0.054,0.018L288.03,590.689z"/>
	<path fill="#FFFFFF" d="M306.031,587.936c-0.097,0.42-0.324,0.82-0.685,1.197c-0.359,0.379-0.798,0.727-1.313,1.045
		c-0.517,0.316-1.077,0.6-1.684,0.846c-0.605,0.246-1.203,0.447-1.791,0.604l-0.107,0.107l-0.055,0.162l0.019,0.072
		c0.348,0.432,0.783,0.852,1.305,1.26c0.522,0.408,1.026,0.789,1.512,1.143c0.486,0.354,0.903,0.67,1.251,0.945
		c0.349,0.275,0.522,0.498,0.522,0.666c0,0.145-0.12,0.24-0.36,0.287c0,0.24-0.075,0.402-0.225,0.486
		c-0.15,0.084-0.333,0.162-0.549,0.234c-0.732-0.313-1.374-0.678-1.926-1.098c-0.553-0.42-1.123-0.912-1.711-1.477
		c-0.096-0.072-0.161-0.127-0.197-0.162s-0.066-0.066-0.09-0.09h0.018c-0.276-0.229-0.558-0.469-0.846-0.721s-0.589-0.51-0.9-0.773
		h-0.054c-0.12,0.264-0.252,0.588-0.396,0.973c-0.144,0.383-0.285,0.764-0.423,1.143c-0.138,0.377-0.264,0.717-0.378,1.018
		c-0.114,0.299-0.195,0.498-0.243,0.594l-0.036,0.072v0.035c0,0.229-0.06,0.416-0.18,0.566s-0.276,0.227-0.468,0.227h-0.036
		c-0.097,0-0.231-0.049-0.405-0.145s-0.291-0.168-0.351-0.217c-0.36-0.24-0.553-0.498-0.576-0.773v-0.145
		c0-0.047,0.006-0.111,0.018-0.189c0.013-0.076,0.039-0.225,0.081-0.439c0.042-0.217,0.105-0.525,0.189-0.928
		s0.204-0.953,0.36-1.656c0.155-0.701,0.351-1.58,0.585-2.637c0.233-1.057,0.519-2.346,0.854-3.869
		c0.012-0.037,0.036-0.105,0.072-0.207c0.036-0.104,0.078-0.213,0.126-0.334c0.048-0.119,0.102-0.236,0.162-0.352
		c0.06-0.113,0.119-0.207,0.18-0.277v0.018c0.132-0.18,0.291-0.316,0.478-0.406c0.186-0.09,0.38-0.152,0.585-0.188
		c0.203-0.037,0.413-0.057,0.63-0.064c0.216-0.006,0.426-0.014,0.63-0.025c0.756,0,1.542,0.064,2.357,0.197
		c0.816,0.133,1.692,0.414,2.628,0.846c0.42,0.301,0.735,0.559,0.945,0.773c0.21,0.217,0.339,0.492,0.387,0.828L306.031,587.936z
		 M303.564,588.135c0.061-0.145,0.114-0.273,0.162-0.389c0.048-0.113,0.072-0.193,0.072-0.242c-0.012-0.084-0.048-0.168-0.108-0.252
		c-0.06-0.084-0.129-0.168-0.207-0.252s-0.159-0.158-0.242-0.225c-0.084-0.066-0.15-0.129-0.198-0.189l-0.036-0.035h0.018
		c-0.216-0.156-0.474-0.277-0.773-0.361s-0.615-0.148-0.945-0.197s-0.657-0.078-0.98-0.09c-0.324-0.012-0.612-0.018-0.864-0.018
		c-0.012,0.059-0.069,0.242-0.171,0.549c-0.103,0.305-0.213,0.656-0.333,1.053s-0.229,0.799-0.324,1.205
		c-0.096,0.408-0.144,0.744-0.144,1.008c0,0.324,0.083,0.486,0.252,0.486c0.119,0,0.275-0.078,0.468-0.234
		c0.36-0.023,0.692-0.053,0.999-0.09c0.306-0.035,0.6-0.09,0.882-0.162c0.282-0.07,0.561-0.168,0.837-0.287s0.57-0.27,0.882-0.449
		l0.036-0.02L303.564,588.135z"/>
	<path fill="#FFFFFF" d="M315.427,584.443c0.252,0.037,0.521,0.105,0.81,0.207c0.288,0.104,0.582,0.256,0.882,0.459
		c0.3,0.205,0.591,0.463,0.873,0.775c0.282,0.311,0.549,0.701,0.801,1.17c0.108,0.215,0.189,0.439,0.243,0.674
		s0.093,0.465,0.117,0.693c0.012,0.061,0.021,0.127,0.027,0.197c0.006,0.072,0.009,0.139,0.009,0.199v0.396
		c0,0.563-0.063,1.148-0.189,1.754s-0.317,1.203-0.576,1.791c-0.258,0.588-0.588,1.162-0.989,1.719
		c-0.402,0.559-0.873,1.072-1.413,1.539c-0.48,0.373-1.044,0.639-1.692,0.801c-0.647,0.162-1.368,0.244-2.16,0.244
		c-0.276,0-0.534-0.01-0.773-0.027c-0.24-0.018-0.492-0.057-0.756-0.117c-0.961-0.156-1.746-0.402-2.358-0.738
		s-1.122-0.84-1.53-1.512v0.018c-0.24-0.348-0.404-0.668-0.495-0.963c-0.09-0.293-0.152-0.578-0.188-0.855
		c-0.013-0.035-0.019-0.113-0.019-0.232v-0.271c0-0.539,0.081-1.104,0.243-1.691s0.394-1.16,0.693-1.719s0.663-1.09,1.089-1.594
		s0.903-0.947,1.431-1.332c0.097-0.059,0.24-0.148,0.433-0.27c0.191-0.119,0.443-0.27,0.756-0.449
		c0.36-0.205,0.837-0.375,1.431-0.514s1.306-0.254,2.133-0.352H315.427z M314.319,585.992c-0.15,0.023-0.285,0.055-0.405,0.09
		c-0.504,0.119-0.983,0.326-1.439,0.621s-0.876,0.643-1.261,1.043c-0.384,0.402-0.731,0.844-1.044,1.324
		c-0.312,0.48-0.575,0.965-0.792,1.457c-0.216,0.492-0.387,0.977-0.513,1.449c-0.126,0.475-0.195,0.904-0.207,1.287
		c0,0.037,0.006,0.061,0.019,0.072c0.023,0.432,0.161,0.822,0.413,1.17s0.618,0.6,1.099,0.756c0.216,0.107,0.432,0.201,0.647,0.279
		c0.217,0.078,0.391,0.117,0.522,0.117c0.947-0.037,1.772-0.275,2.475-0.721c0.702-0.443,1.278-0.992,1.729-1.646
		s0.785-1.359,1.008-2.115c0.222-0.756,0.333-1.463,0.333-2.123c0-0.096-0.003-0.195-0.009-0.297
		c-0.007-0.104-0.016-0.201-0.027-0.297c-0.061-0.408-0.168-0.82-0.324-1.234s-0.384-0.729-0.684-0.945
		c-0.349-0.215-0.696-0.324-1.044-0.324C314.634,585.955,314.469,585.969,314.319,585.992z"/>
	<path fill="#FFFFFF" d="M327.595,584.029c0.06-0.012,0.119-0.02,0.18-0.025c0.06-0.006,0.138-0.01,0.234-0.01
		c0.18,0,0.371,0.033,0.575,0.1c0.204,0.064,0.408,0.158,0.612,0.277c0.096,0.061,0.144,0.252,0.144,0.576
		c-0.096,0.518-0.191,0.977-0.287,1.377c-0.097,0.402-0.189,0.795-0.279,1.18s-0.178,0.777-0.261,1.18
		c-0.084,0.402-0.162,0.854-0.234,1.359c-0.072,0.359-0.15,0.768-0.234,1.223c-0.084,0.457-0.186,0.979-0.306,1.566
		c-0.132,1.404-0.549,2.445-1.251,3.123s-1.575,1.018-2.619,1.018c-0.54,0-1.113-0.09-1.719-0.271
		c-0.606-0.18-1.233-0.443-1.881-0.791c-0.349-0.072-0.627-0.242-0.837-0.514c-0.21-0.27-0.315-0.549-0.315-0.836v-0.037
		c0.097-0.395,0.228-0.674,0.396-0.836c0.168-0.162,0.359-0.244,0.575-0.244c0.204,0,0.414,0.059,0.631,0.172
		c0.216,0.113,0.426,0.246,0.63,0.396c0.203,0.15,0.404,0.309,0.603,0.477s0.381,0.307,0.549,0.414
		c0.252,0.203,0.517,0.307,0.792,0.307c0.252,0,0.486-0.078,0.702-0.234s0.405-0.346,0.567-0.568
		c0.162-0.221,0.288-0.461,0.378-0.719s0.135-0.496,0.135-0.711v-0.109c0.312-1.871,0.564-3.375,0.756-4.508
		c0.192-1.135,0.363-2.01,0.514-2.629c0.149-0.617,0.29-1.035,0.423-1.25c0.132-0.217,0.3-0.342,0.504-0.379L327.595,584.029z"/>
	<path fill="#FFFFFF" d="M330.924,586.047c0.084-0.373,0.158-0.67,0.225-0.893c0.066-0.221,0.156-0.393,0.271-0.512
		c0.113-0.121,0.267-0.199,0.459-0.234c0.191-0.037,0.449-0.055,0.773-0.055c0.132,0.012,0.258,0.018,0.378,0.018
		c0.132,0,0.246,0,0.343,0h1.403c0.264,0,0.591,0.008,0.981,0.02c0.39,0.012,0.795,0.027,1.215,0.045s0.834,0.039,1.242,0.063
		c0.407,0.023,0.768,0.043,1.08,0.055c0.239,0.023,0.443,0.047,0.611,0.07c0.168,0.025,0.307,0.059,0.414,0.1
		c0.108,0.043,0.198,0.1,0.271,0.172c0.071,0.072,0.138,0.168,0.198,0.287v0.145c0,0.107-0.049,0.219-0.145,0.332
		c-0.096,0.115-0.282,0.201-0.558,0.262c-0.013,0-0.036,0.018-0.072,0.055c-0.012,0.012-0.072,0.018-0.18,0.018h-0.685l-3.384,0.145
		h-0.72c-0.12,0-0.216,0.002-0.288,0.008s-0.142,0.012-0.207,0.018c-0.066,0.008-0.135,0.014-0.207,0.02s-0.174,0.014-0.306,0.027
		l-0.091,0.035l-0.054,0.035h0.018c-0.035,0.098-0.09,0.273-0.161,0.531c-0.072,0.258-0.147,0.535-0.226,0.828
		c-0.078,0.295-0.15,0.574-0.216,0.838c-0.066,0.264-0.111,0.449-0.135,0.557l0.018,0.072l0.126,0.18
		c0.276,0.037,0.642,0.059,1.099,0.064c0.455,0.006,0.911,0.008,1.367,0.008h2.017c0.348,0,0.666,0.027,0.954,0.082
		c0.288,0.053,0.462,0.201,0.521,0.441v0.342c0,0.168-0.036,0.33-0.107,0.486c-0.072,0.154-0.271,0.258-0.595,0.305
		c-0.035,0-0.107,0.004-0.216,0.01c-0.107,0.006-0.225,0.016-0.351,0.027s-0.246,0.02-0.36,0.025
		c-0.114,0.008-0.195,0.01-0.243,0.01c-0.504,0.049-0.93,0.088-1.277,0.117c-0.349,0.029-0.651,0.055-0.909,0.072
		c-0.259,0.018-0.486,0.029-0.685,0.035c-0.197,0.006-0.393,0.01-0.585,0.01h-0.378c-0.06,0-0.126,0-0.197,0
		c-0.061,0-0.133-0.006-0.217-0.018h-0.342l-0.107,0.035h-0.019l-0.036,0.018c-0.036,0.098-0.093,0.297-0.171,0.604
		s-0.156,0.637-0.233,0.99c-0.079,0.354-0.15,0.699-0.217,1.035c-0.065,0.336-0.104,0.582-0.116,0.738l0.018,0.072l0.162,0.16
		l0.072,0.02c0.432-0.061,0.873-0.102,1.322-0.127c0.45-0.023,0.897-0.047,1.342-0.072c0.096,0,0.216-0.006,0.359-0.018
		c0.145-0.012,0.288-0.021,0.433-0.027c0.144-0.006,0.27-0.014,0.378-0.027c0.107-0.012,0.174-0.018,0.197-0.018
		c0.048,0,0.091,0.004,0.126,0.01c0.036,0.006,0.078,0.008,0.126,0.008c0.276,0,0.559-0.023,0.847-0.07
		c0.288-0.049,0.563-0.072,0.828-0.072c0.203,0.023,0.438,0.053,0.701,0.09c0.265,0.035,0.456,0.119,0.576,0.252h0.09
		c0.012,0.072,0.019,0.139,0.019,0.197c0,0.049,0,0.096,0,0.145c0,0.133-0.016,0.23-0.045,0.297
		c-0.03,0.066-0.081,0.135-0.153,0.207c-0.024,0.023-0.09,0.055-0.198,0.09c-0.107,0.035-0.288,0.066-0.54,0.09l-5.562,0.793h-0.036
		c-0.384,0.059-0.711,0.113-0.981,0.162c-0.27,0.047-0.572,0.07-0.908,0.07c-0.108,0-0.231-0.039-0.369-0.115
		c-0.139-0.078-0.285-0.176-0.441-0.289s-0.314-0.234-0.477-0.359c-0.162-0.127-0.315-0.236-0.459-0.334L330.924,586.047z"/>
	<path fill="#FFFFFF" d="M348.672,586.117h-0.054c-0.42,0-0.828,0.123-1.224,0.369c-0.396,0.246-0.763,0.549-1.099,0.91
		c-0.468,0.432-0.899,0.957-1.296,1.574c-0.396,0.619-0.762,1.252-1.098,1.898c-0.313,0.648-0.504,1.309-0.576,1.98
		c-0.012,0.037-0.018,0.127-0.018,0.27v0.217c0.06,0.336,0.188,0.637,0.387,0.9s0.411,0.504,0.639,0.719
		c0.54,0.217,0.954,0.355,1.242,0.414c0.288,0.061,0.528,0.092,0.72,0.092c0.336,0,0.559-0.02,0.666-0.055
		c0.612-0.168,1.11-0.34,1.494-0.514s0.732-0.344,1.044-0.512h-0.036c0.12-0.098,0.262-0.182,0.424-0.252
		c0.161-0.072,0.314-0.133,0.459-0.182c0.144-0.047,0.267-0.084,0.368-0.107c0.103-0.023,0.159-0.035,0.171-0.035h0.072
		c0.504,0,0.756,0.293,0.756,0.881v-0.035c-0.06,0.119-0.135,0.234-0.225,0.342s-0.237,0.246-0.441,0.414
		c-0.744,0.564-1.467,0.998-2.169,1.305s-1.503,0.459-2.402,0.459c-0.217,0-0.424-0.012-0.621-0.035
		c-0.198-0.025-0.394-0.049-0.585-0.072c-0.673-0.096-1.332-0.268-1.98-0.514c-0.647-0.246-1.188-0.656-1.62-1.232l-0.396-0.469
		c-0.108-0.203-0.189-0.416-0.243-0.639s-0.093-0.494-0.117-0.818c-0.012-0.037-0.018-0.102-0.018-0.199v-0.232
		c0.096-0.889,0.3-1.746,0.611-2.574c0.313-0.828,0.711-1.609,1.197-2.34c0.486-0.732,1.047-1.402,1.684-2.008
		c0.636-0.605,1.325-1.137,2.069-1.594c0.313-0.096,0.601-0.164,0.864-0.207c0.264-0.041,0.492-0.063,0.684-0.063
		c0.181,0,0.352,0.016,0.514,0.045c0.162,0.031,0.336,0.078,0.521,0.145c0.187,0.066,0.399,0.152,0.64,0.26
		c0.239,0.109,0.521,0.246,0.846,0.414c0.407,0.205,0.747,0.424,1.017,0.658c0.271,0.234,0.441,0.506,0.514,0.818v0.145
		c0.012,0.023,0.018,0.061,0.018,0.107c0,0.145-0.084,0.309-0.252,0.496c-0.168,0.186-0.391,0.344-0.666,0.477
		c-0.012,0-0.093-0.039-0.243-0.117s-0.285-0.15-0.405-0.217c-0.12-0.064-0.191-0.104-0.216-0.117L348.672,586.117z"/>
	<path fill="#FFFFFF" d="M358.086,586.334c-0.12,0.191-0.216,0.352-0.288,0.477c-0.072,0.127-0.139,0.295-0.198,0.504
		c-0.061,0.211-0.132,0.498-0.216,0.865c-0.084,0.365-0.195,0.875-0.333,1.529s-0.318,1.494-0.54,2.52
		c-0.223,1.027-0.507,2.307-0.855,3.844v0.125c0,0.277-0.113,0.471-0.342,0.586c-0.228,0.113-0.468,0.17-0.72,0.17
		c-0.18,0-0.345-0.023-0.495-0.07c-0.15-0.049-0.243-0.109-0.279-0.182v0.02c-0.168-0.205-0.272-0.35-0.314-0.434
		c-0.042-0.082-0.063-0.186-0.063-0.305c0.012-0.023,0.027-0.063,0.045-0.117c0.019-0.055,0.048-0.178,0.091-0.369
		c0.041-0.191,0.102-0.477,0.18-0.855c0.078-0.377,0.186-0.906,0.324-1.584c0.138-0.678,0.312-1.535,0.521-2.574
		c0.21-1.037,0.465-2.307,0.766-3.807l-0.019-0.09l0.019,0.018l-0.162-0.197h-2.017c-0.264,0-0.495-0.012-0.692-0.037
		c-0.198-0.023-0.424-0.064-0.676-0.125c-0.083-0.145-0.155-0.314-0.216-0.514c-0.06-0.197-0.09-0.387-0.09-0.566
		s0.036-0.34,0.108-0.477c0.071-0.139,0.197-0.219,0.378-0.244c0.468-0.023,0.815-0.045,1.044-0.063
		c0.228-0.018,0.42-0.027,0.576-0.027h0.306c0.12,0,0.282,0.004,0.486,0.01c0.203,0.006,0.479,0.008,0.828,0.008h1.422
		c0.132-0.012,0.345-0.025,0.639-0.045c0.294-0.018,0.597-0.031,0.909-0.045c0.312-0.012,0.594-0.02,0.846-0.025
		s0.402-0.01,0.45-0.01c0.048-0.012,0.096-0.018,0.144-0.018s0.097,0,0.145,0h0.288c0.312,0,0.608,0.006,0.891,0.018
		s0.513,0.018,0.693,0.018c0.155-0.035,0.3-0.053,0.432-0.053c0.396,0,0.705,0.113,0.927,0.342c0.223,0.227,0.333,0.473,0.333,0.736
		c0,0.17-0.045,0.324-0.135,0.469s-0.237,0.252-0.44,0.324L358.086,586.334z"/>
</g>
<g>
	<path fill="#FFFFFF" d="M497.528,453.609c-0.107-0.275-0.194-0.561-0.261-0.855c-0.065-0.293-0.099-0.584-0.099-0.873
		c-0.012-0.012-0.019-0.059-0.019-0.144c0.061-0.563,0.184-1.059,0.369-1.485c0.187-0.426,0.399-0.866,0.639-1.322
		c0.205-0.385,0.372-0.669,0.505-0.855c0.132-0.186,0.3-0.314,0.504-0.387c0.06-0.023,0.135-0.042,0.225-0.055
		c0.09-0.012,0.177-0.018,0.261-0.018c0.24,0,0.441,0.061,0.604,0.18c0.162,0.121,0.243,0.337,0.243,0.648v0.09
		c-0.024,0.121-0.097,0.271-0.217,0.45c-0.119,0.181-0.287,0.408-0.504,0.685c-0.155,0.168-0.284,0.359-0.387,0.576
		c-0.102,0.215-0.18,0.435-0.234,0.656c-0.054,0.223-0.09,0.444-0.107,0.666c-0.019,0.223-0.027,0.424-0.027,0.604v0.072
		c0.168,0.551,0.438,1.049,0.811,1.493s0.768,0.804,1.188,1.08c0.24,0.156,0.517,0.233,0.828,0.233c0.349,0,0.657-0.096,0.927-0.287
		c0.271-0.191,0.417-0.456,0.441-0.792c0-0.048,0.006-0.078,0.018-0.091c0.181-0.432,0.333-0.857,0.459-1.277
		s0.268-0.834,0.423-1.242c0.133-0.684,0.36-1.23,0.685-1.638c0.324-0.408,0.672-0.696,1.044-0.864
		c0.096-0.023,0.204-0.045,0.324-0.063c0.12-0.019,0.204-0.033,0.252-0.045c0.023,0,0.162,0.048,0.414,0.144
		c0.252,0.097,0.504,0.259,0.756,0.485c0.288,0.265,0.549,0.567,0.783,0.91c0.233,0.342,0.435,0.74,0.603,1.196
		c0.06,0.24,0.132,0.489,0.216,0.747s0.126,0.573,0.126,0.945c0.012,0.096,0.021,0.195,0.027,0.297s0.009,0.201,0.009,0.297
		c0,0.396-0.042,0.818-0.126,1.27c-0.084,0.449-0.201,0.896-0.351,1.34c-0.15,0.445-0.324,0.871-0.522,1.279
		c-0.198,0.407-0.414,0.768-0.647,1.08c-0.234,0.312-0.48,0.561-0.738,0.746s-0.519,0.279-0.783,0.279
		c-0.264,0-0.51-0.096-0.738-0.288l-0.018-0.019c-0.132-0.131-0.207-0.303-0.225-0.513c-0.019-0.21-0.039-0.398-0.063-0.567h0.018
		c0.097-0.18,0.207-0.32,0.333-0.422c0.127-0.103,0.256-0.195,0.388-0.279c0.312-0.204,0.585-0.456,0.818-0.756
		c0.234-0.301,0.436-0.612,0.604-0.937c0.061-0.239,0.111-0.45,0.153-0.63s0.074-0.345,0.099-0.495
		c0.024-0.149,0.042-0.29,0.054-0.423c0.013-0.132,0.019-0.275,0.019-0.432c0-0.072-0.003-0.195-0.01-0.369
		c-0.006-0.174-0.015-0.352-0.026-0.531s-0.027-0.348-0.045-0.504c-0.019-0.156-0.039-0.252-0.063-0.288
		c-0.012-0.071-0.042-0.162-0.09-0.271c-0.048-0.107-0.11-0.213-0.188-0.314s-0.168-0.189-0.271-0.262
		c-0.102-0.071-0.213-0.107-0.333-0.107h-0.072c-0.096,0.012-0.186,0.051-0.27,0.117s-0.174,0.201-0.271,0.404
		c-0.119,0.085-0.228,0.301-0.323,0.648c-0.097,0.349-0.187,0.709-0.271,1.08c-0.048,0.204-0.096,0.402-0.144,0.594
		c-0.048,0.192-0.114,0.373-0.198,0.541c-0.048,0.06-0.09,0.129-0.126,0.207s-0.078,0.17-0.126,0.278
		c-0.132,0.276-0.297,0.549-0.495,0.819c-0.198,0.27-0.42,0.513-0.666,0.729c-0.246,0.217-0.51,0.396-0.792,0.54
		s-0.567,0.222-0.855,0.234c-0.275,0-0.563-0.063-0.863-0.189s-0.63-0.284-0.99-0.477c-0.42-0.228-0.852-0.606-1.296-1.134
		c-0.444-0.528-0.828-1.135-1.152-1.818L497.528,453.609z"/>
	<path fill="#FFFFFF" d="M498.663,441.64c0.191,0.12,0.351,0.216,0.477,0.288s0.294,0.139,0.504,0.198s0.498,0.132,0.864,0.216
		s0.876,0.195,1.53,0.333c0.653,0.138,1.493,0.318,2.52,0.54c1.026,0.223,2.307,0.508,3.843,0.855h0.126
		c0.276,0,0.471,0.113,0.585,0.342s0.171,0.468,0.171,0.72c0,0.181-0.023,0.345-0.071,0.495c-0.049,0.15-0.108,0.243-0.181,0.279
		h0.019c-0.204,0.168-0.349,0.273-0.433,0.314c-0.083,0.043-0.186,0.063-0.306,0.063c-0.023-0.012-0.063-0.026-0.117-0.045
		c-0.054-0.018-0.177-0.047-0.369-0.09c-0.191-0.041-0.477-0.102-0.854-0.18s-0.906-0.186-1.584-0.324
		c-0.678-0.138-1.536-0.312-2.574-0.521s-2.307-0.465-3.807-0.766l-0.09,0.019l0.018-0.019l-0.198,0.162v2.016
		c0,0.265-0.012,0.496-0.036,0.693c-0.023,0.198-0.065,0.424-0.126,0.676c-0.144,0.084-0.314,0.155-0.513,0.216
		c-0.198,0.06-0.387,0.09-0.567,0.09c-0.18,0-0.339-0.036-0.477-0.108s-0.219-0.197-0.243-0.378
		c-0.023-0.468-0.045-0.815-0.063-1.044c-0.019-0.228-0.027-0.42-0.027-0.576v-0.306c0-0.12,0.003-0.282,0.009-0.485
		c0.007-0.205,0.009-0.48,0.009-0.828v-1.422c-0.012-0.133-0.026-0.346-0.045-0.64c-0.018-0.294-0.032-0.597-0.045-0.909
		c-0.012-0.312-0.021-0.594-0.026-0.846s-0.01-0.402-0.01-0.45c-0.012-0.048-0.018-0.096-0.018-0.144c0-0.049,0-0.096,0-0.145
		v-0.287c0-0.313,0.006-0.609,0.018-0.892c0.013-0.282,0.019-0.513,0.019-0.692c-0.036-0.156-0.054-0.301-0.054-0.433
		c0-0.396,0.113-0.705,0.342-0.927c0.228-0.223,0.474-0.334,0.737-0.334c0.169,0,0.324,0.045,0.469,0.136
		c0.144,0.09,0.252,0.237,0.323,0.44L498.663,441.64z"/>
	<path fill="#FFFFFF" d="M500.265,426.07c0.42,0.096,0.819,0.323,1.197,0.684c0.378,0.359,0.726,0.798,1.044,1.314
		c0.317,0.516,0.6,1.076,0.846,1.683s0.447,1.203,0.604,1.79l0.107,0.109l0.162,0.053l0.072-0.018
		c0.432-0.348,0.852-0.783,1.26-1.305s0.789-1.026,1.143-1.512c0.354-0.486,0.67-0.903,0.945-1.252
		c0.276-0.348,0.498-0.521,0.666-0.521c0.145,0,0.24,0.12,0.288,0.359c0.24,0,0.402,0.076,0.486,0.226
		c0.083,0.15,0.162,0.333,0.233,0.549c-0.312,0.732-0.678,1.374-1.098,1.927c-0.42,0.552-0.912,1.121-1.476,1.709
		c-0.072,0.097-0.127,0.162-0.162,0.199c-0.036,0.035-0.066,0.065-0.091,0.09v-0.019c-0.228,0.276-0.468,0.558-0.72,0.847
		c-0.252,0.287-0.51,0.588-0.773,0.899v0.054c0.264,0.12,0.588,0.252,0.972,0.396c0.384,0.144,0.765,0.285,1.143,0.423
		s0.718,0.265,1.018,0.378c0.3,0.114,0.498,0.195,0.594,0.243l0.072,0.036h0.036c0.228,0,0.416,0.06,0.566,0.18
		s0.226,0.276,0.226,0.468v0.036c0,0.096-0.049,0.231-0.145,0.405s-0.168,0.291-0.216,0.351c-0.24,0.36-0.498,0.553-0.774,0.576
		h-0.144c-0.048,0-0.111-0.006-0.189-0.018c-0.077-0.012-0.225-0.039-0.44-0.082c-0.216-0.041-0.525-0.104-0.927-0.188
		c-0.402-0.083-0.954-0.204-1.656-0.36c-0.702-0.155-1.581-0.351-2.637-0.584c-1.057-0.234-2.347-0.52-3.87-0.855
		c-0.036-0.012-0.105-0.036-0.207-0.072c-0.103-0.035-0.213-0.078-0.333-0.126s-0.237-0.102-0.352-0.162
		c-0.113-0.06-0.207-0.12-0.278-0.18h0.018c-0.18-0.132-0.315-0.291-0.405-0.478c-0.09-0.186-0.152-0.381-0.188-0.584
		c-0.036-0.205-0.057-0.414-0.063-0.631c-0.006-0.216-0.015-0.426-0.026-0.63c0-0.756,0.065-1.542,0.197-2.358
		c0.133-0.815,0.414-1.691,0.847-2.627c0.3-0.42,0.558-0.735,0.773-0.945s0.492-0.339,0.828-0.387L500.265,426.07z M500.463,428.535
		c-0.145-0.06-0.273-0.113-0.388-0.162c-0.113-0.047-0.194-0.071-0.242-0.071c-0.084,0.013-0.168,0.048-0.252,0.108
		c-0.084,0.06-0.168,0.129-0.252,0.207s-0.159,0.158-0.226,0.242c-0.065,0.084-0.129,0.15-0.188,0.198l-0.036,0.036v-0.018
		c-0.156,0.215-0.276,0.474-0.36,0.773c-0.084,0.301-0.149,0.615-0.198,0.945c-0.048,0.33-0.077,0.656-0.09,0.98
		c-0.012,0.324-0.018,0.612-0.018,0.864c0.06,0.013,0.243,0.069,0.549,0.171s0.657,0.213,1.053,0.333
		c0.396,0.12,0.799,0.229,1.206,0.324c0.408,0.097,0.744,0.144,1.008,0.144c0.324,0,0.486-0.084,0.486-0.252
		c0-0.119-0.078-0.275-0.234-0.468c-0.023-0.36-0.054-0.692-0.09-0.999c-0.036-0.306-0.09-0.6-0.162-0.882
		c-0.071-0.282-0.168-0.562-0.288-0.837c-0.119-0.275-0.27-0.57-0.449-0.883l-0.019-0.035L500.463,428.535z"/>
	<path fill="#FFFFFF" d="M496.322,416.781c-0.035-0.035-0.113-0.125-0.233-0.27s-0.181-0.275-0.181-0.396
		c0-0.096,0.013-0.209,0.036-0.342c0.024-0.131,0.061-0.261,0.108-0.387s0.105-0.242,0.171-0.352
		c0.066-0.107,0.142-0.186,0.225-0.233c0.24-0.06,0.438-0.096,0.595-0.108c0.155-0.012,0.342-0.018,0.558-0.018
		c0.744,0.084,1.512,0.213,2.304,0.387s1.542,0.357,2.25,0.549c0.816,0.205,1.645,0.433,2.484,0.685s1.605,0.569,2.295,0.954
		c0.69,0.384,1.254,0.855,1.692,1.412c0.438,0.559,0.656,1.24,0.656,2.044v0.071c0,0.037,0.006,0.061,0.019,0.072v0.145
		c0,0.132-0.003,0.261-0.009,0.387c-0.007,0.126-0.01,0.243-0.01,0.352c0,0.119,0.006,0.209,0.019,0.27
		c0,0.456-0.087,0.896-0.261,1.322c-0.175,0.427-0.483,0.916-0.928,1.468l-0.054,0.126c-0.336,0.396-0.72,0.666-1.152,0.811
		c-0.432,0.143-0.875,0.215-1.332,0.215c-0.228,0-0.452-0.012-0.675-0.035c-0.222-0.024-0.44-0.055-0.657-0.09
		c-0.323-0.049-0.6-0.094-0.827-0.136c-0.229-0.042-0.444-0.083-0.648-0.126c-0.204-0.041-0.411-0.093-0.621-0.152
		c-0.21-0.061-0.459-0.129-0.747-0.207s-0.627-0.178-1.017-0.297c-0.39-0.121-0.867-0.264-1.432-0.433
		c-0.323-0.084-0.585-0.153-0.782-0.207c-0.198-0.054-0.321-0.093-0.369-0.116h0.018l-0.107-0.019
		c-0.433-0.276-0.717-0.507-0.855-0.693c-0.138-0.186-0.207-0.387-0.207-0.603c0.036-0.145,0.093-0.303,0.171-0.477
		s0.168-0.336,0.271-0.486c0.102-0.15,0.216-0.279,0.342-0.387c0.126-0.109,0.255-0.162,0.387-0.162h0.036
		c0.36,0.035,0.609,0.057,0.747,0.063s0.255,0.021,0.351,0.045c0.097,0.024,0.211,0.057,0.343,0.1
		c0.132,0.041,0.372,0.123,0.72,0.242c0.348,0.12,0.843,0.279,1.485,0.477c0.642,0.199,1.515,0.459,2.618,0.783
		c0.457,0.133,0.871,0.238,1.242,0.315c0.372,0.078,0.696,0.117,0.973,0.117c0.048,0.012,0.107,0.019,0.18,0.019
		c0.216,0,0.405-0.061,0.566-0.181c0.162-0.12,0.298-0.261,0.405-0.423c0.108-0.162,0.187-0.324,0.234-0.486
		s0.072-0.291,0.072-0.387v-0.09c0-0.072-0.003-0.178-0.01-0.315c-0.006-0.138-0.023-0.294-0.054-0.468
		c-0.029-0.174-0.075-0.352-0.135-0.531c-0.061-0.18-0.145-0.342-0.252-0.486l-0.072-0.054l-0.882-0.666
		c-0.168-0.12-0.408-0.243-0.72-0.368c-0.313-0.127-0.66-0.252-1.044-0.379c-0.385-0.125-0.786-0.246-1.206-0.359
		c-0.42-0.114-0.828-0.219-1.225-0.315c-0.684-0.168-1.244-0.29-1.683-0.369c-0.438-0.077-0.849-0.146-1.233-0.206L496.322,416.781z
		"/>
	<path fill="#FFFFFF" d="M498.446,406.811v0.054c0,0.42,0.123,0.828,0.369,1.224c0.246,0.396,0.549,0.763,0.909,1.098
		c0.432,0.469,0.957,0.9,1.575,1.297s1.251,0.762,1.898,1.098c0.648,0.313,1.309,0.504,1.98,0.576
		c0.036,0.012,0.126,0.018,0.27,0.018h0.217c0.336-0.06,0.636-0.188,0.899-0.387c0.265-0.197,0.504-0.41,0.72-0.639
		c0.217-0.54,0.354-0.954,0.414-1.242c0.061-0.288,0.091-0.527,0.091-0.721c0-0.335-0.019-0.557-0.055-0.666
		c-0.168-0.611-0.339-1.109-0.513-1.493s-0.345-0.731-0.513-1.044v0.035c-0.097-0.119-0.181-0.26-0.252-0.422
		c-0.072-0.162-0.132-0.315-0.181-0.459c-0.048-0.145-0.084-0.268-0.107-0.369c-0.024-0.102-0.036-0.159-0.036-0.172v-0.071
		c0-0.505,0.294-0.757,0.882-0.757h-0.036c0.12,0.061,0.234,0.136,0.342,0.226c0.108,0.09,0.246,0.237,0.414,0.44
		c0.564,0.744,0.999,1.468,1.306,2.17c0.306,0.701,0.459,1.503,0.459,2.402c0,0.217-0.013,0.424-0.036,0.621
		c-0.024,0.198-0.049,0.394-0.072,0.586c-0.096,0.672-0.268,1.332-0.513,1.979c-0.246,0.647-0.657,1.188-1.233,1.62l-0.468,0.396
		c-0.204,0.108-0.417,0.188-0.639,0.243c-0.223,0.055-0.495,0.094-0.819,0.117c-0.036,0.012-0.102,0.018-0.198,0.018h-0.233
		c-0.889-0.096-1.746-0.299-2.574-0.611s-1.608-0.711-2.34-1.197c-0.732-0.486-1.401-1.047-2.008-1.684
		c-0.605-0.635-1.137-1.325-1.593-2.069c-0.096-0.312-0.165-0.601-0.207-0.864s-0.063-0.492-0.063-0.684
		c0-0.18,0.015-0.352,0.045-0.514s0.078-0.336,0.144-0.521c0.066-0.186,0.153-0.398,0.261-0.639c0.108-0.24,0.246-0.522,0.414-0.847
		c0.205-0.407,0.424-0.747,0.657-1.017c0.234-0.27,0.507-0.441,0.819-0.514h0.144c0.024-0.012,0.061-0.018,0.108-0.018
		c0.144,0,0.309,0.084,0.495,0.252c0.186,0.168,0.345,0.391,0.477,0.666c0,0.012-0.039,0.094-0.117,0.243
		c-0.077,0.149-0.149,0.285-0.216,0.405c-0.065,0.119-0.104,0.191-0.117,0.216L498.446,406.811z"/>
	<path fill="#FFFFFF" d="M498.663,397.396c0.191,0.119,0.351,0.216,0.477,0.287c0.126,0.072,0.294,0.139,0.504,0.199
		c0.21,0.06,0.498,0.132,0.864,0.215c0.366,0.084,0.876,0.195,1.53,0.334c0.653,0.138,1.493,0.318,2.52,0.539
		c1.026,0.223,2.307,0.508,3.843,0.855h0.126c0.276,0,0.471,0.114,0.585,0.342c0.114,0.229,0.171,0.469,0.171,0.721
		c0,0.18-0.023,0.345-0.071,0.494c-0.049,0.15-0.108,0.244-0.181,0.279h0.019c-0.204,0.168-0.349,0.273-0.433,0.314
		c-0.083,0.043-0.186,0.063-0.306,0.063c-0.023-0.012-0.063-0.026-0.117-0.045c-0.054-0.019-0.177-0.048-0.369-0.09
		c-0.191-0.042-0.477-0.103-0.854-0.181c-0.378-0.077-0.906-0.186-1.584-0.323s-1.536-0.312-2.574-0.522
		c-1.038-0.209-2.307-0.465-3.807-0.765l-0.09,0.019l0.018-0.019l-0.198,0.162v2.016c0,0.265-0.012,0.495-0.036,0.693
		c-0.023,0.198-0.065,0.423-0.126,0.675c-0.144,0.084-0.314,0.156-0.513,0.217c-0.198,0.059-0.387,0.09-0.567,0.09
		c-0.18,0-0.339-0.037-0.477-0.108c-0.138-0.072-0.219-0.198-0.243-0.378c-0.023-0.469-0.045-0.816-0.063-1.045
		c-0.019-0.227-0.027-0.42-0.027-0.575v-0.306c0-0.12,0.003-0.282,0.009-0.486c0.007-0.204,0.009-0.48,0.009-0.828v-1.422
		c-0.012-0.132-0.026-0.345-0.045-0.639c-0.018-0.295-0.032-0.598-0.045-0.91c-0.012-0.311-0.021-0.593-0.026-0.845
		s-0.01-0.402-0.01-0.45c-0.012-0.048-0.018-0.096-0.018-0.144c0-0.048,0-0.096,0-0.144v-0.288c0-0.312,0.006-0.609,0.018-0.891
		c0.013-0.282,0.019-0.513,0.019-0.693c-0.036-0.156-0.054-0.3-0.054-0.432c0-0.396,0.113-0.705,0.342-0.927
		c0.228-0.222,0.474-0.333,0.737-0.333c0.169,0,0.324,0.045,0.469,0.135c0.144,0.09,0.252,0.237,0.323,0.441L498.663,397.396z"/>
	<path fill="#FFFFFF" d="M496.322,383.896c-0.035-0.036-0.113-0.126-0.233-0.27s-0.181-0.276-0.181-0.396
		c0-0.096,0.013-0.209,0.036-0.342c0.024-0.132,0.061-0.261,0.108-0.387s0.105-0.243,0.171-0.351
		c0.066-0.108,0.142-0.186,0.225-0.234c0.24-0.06,0.438-0.096,0.595-0.108c0.155-0.012,0.342-0.018,0.558-0.018
		c0.744,0.084,1.512,0.213,2.304,0.387s1.542,0.357,2.25,0.549c0.816,0.204,1.645,0.432,2.484,0.684s1.605,0.57,2.295,0.954
		c0.69,0.384,1.254,0.855,1.692,1.413c0.438,0.558,0.656,1.239,0.656,2.043v0.072c0,0.036,0.006,0.06,0.019,0.072v0.144
		c0,0.132-0.003,0.261-0.009,0.387c-0.007,0.126-0.01,0.243-0.01,0.351c0,0.12,0.006,0.21,0.019,0.27
		c0,0.456-0.087,0.897-0.261,1.323c-0.175,0.426-0.483,0.916-0.928,1.467l-0.054,0.126c-0.336,0.396-0.72,0.666-1.152,0.81
		c-0.432,0.144-0.875,0.216-1.332,0.216c-0.228,0-0.452-0.012-0.675-0.036c-0.222-0.024-0.44-0.054-0.657-0.09
		c-0.323-0.048-0.6-0.093-0.827-0.135c-0.229-0.042-0.444-0.083-0.648-0.126c-0.204-0.042-0.411-0.093-0.621-0.153
		s-0.459-0.129-0.747-0.207c-0.288-0.078-0.627-0.177-1.017-0.297s-0.867-0.264-1.432-0.432c-0.323-0.084-0.585-0.153-0.782-0.207
		c-0.198-0.054-0.321-0.093-0.369-0.117h0.018l-0.107-0.018c-0.433-0.276-0.717-0.507-0.855-0.693
		c-0.138-0.186-0.207-0.387-0.207-0.603c0.036-0.144,0.093-0.303,0.171-0.477s0.168-0.336,0.271-0.486
		c0.102-0.15,0.216-0.279,0.342-0.387c0.126-0.108,0.255-0.162,0.387-0.162h0.036c0.36,0.036,0.609,0.057,0.747,0.063
		c0.138,0.006,0.255,0.021,0.351,0.045c0.097,0.024,0.211,0.057,0.343,0.099s0.372,0.123,0.72,0.243
		c0.348,0.12,0.843,0.279,1.485,0.477c0.642,0.198,1.515,0.459,2.618,0.783c0.457,0.132,0.871,0.237,1.242,0.315
		c0.372,0.078,0.696,0.117,0.973,0.117c0.048,0.012,0.107,0.018,0.18,0.018c0.216,0,0.405-0.06,0.566-0.18
		c0.162-0.12,0.298-0.261,0.405-0.423c0.108-0.162,0.187-0.324,0.234-0.486c0.048-0.162,0.072-0.291,0.072-0.387v-0.09
		c0-0.072-0.003-0.177-0.01-0.315c-0.006-0.138-0.023-0.294-0.054-0.468c-0.029-0.174-0.075-0.351-0.135-0.531
		c-0.061-0.18-0.145-0.342-0.252-0.486l-0.072-0.054l-0.882-0.666c-0.168-0.12-0.408-0.243-0.72-0.369
		c-0.313-0.126-0.66-0.252-1.044-0.378c-0.385-0.126-0.786-0.246-1.206-0.36c-0.42-0.114-0.828-0.219-1.225-0.315
		c-0.684-0.168-1.244-0.291-1.683-0.369c-0.438-0.078-0.849-0.146-1.233-0.207L496.322,383.896z"/>
	<path fill="#FFFFFF" d="M500.265,370.415c0.42,0.096,0.819,0.324,1.197,0.684c0.378,0.36,0.726,0.798,1.044,1.314
		c0.317,0.516,0.6,1.077,0.846,1.683s0.447,1.203,0.604,1.791l0.107,0.108l0.162,0.054l0.072-0.018
		c0.432-0.348,0.852-0.783,1.26-1.305s0.789-1.026,1.143-1.512c0.354-0.486,0.67-0.903,0.945-1.251
		c0.276-0.348,0.498-0.522,0.666-0.522c0.145,0,0.24,0.12,0.288,0.36c0.24,0,0.402,0.075,0.486,0.225
		c0.083,0.15,0.162,0.333,0.233,0.549c-0.312,0.732-0.678,1.375-1.098,1.926c-0.42,0.552-0.912,1.122-1.476,1.71
		c-0.072,0.096-0.127,0.162-0.162,0.198c-0.036,0.036-0.066,0.066-0.091,0.09v-0.018c-0.228,0.276-0.468,0.558-0.72,0.846
		c-0.252,0.288-0.51,0.588-0.773,0.9v0.054c0.264,0.12,0.588,0.252,0.972,0.396s0.765,0.285,1.143,0.423s0.718,0.264,1.018,0.378
		c0.3,0.114,0.498,0.195,0.594,0.243l0.072,0.036h0.036c0.228,0,0.416,0.06,0.566,0.18s0.226,0.276,0.226,0.468v0.036
		c0,0.096-0.049,0.231-0.145,0.405s-0.168,0.291-0.216,0.351c-0.24,0.36-0.498,0.552-0.774,0.576h-0.144
		c-0.048,0-0.111-0.006-0.189-0.018c-0.077-0.012-0.225-0.039-0.44-0.081c-0.216-0.042-0.525-0.105-0.927-0.189
		c-0.402-0.083-0.954-0.204-1.656-0.36c-0.702-0.156-1.581-0.351-2.637-0.585c-1.057-0.234-2.347-0.519-3.87-0.855
		c-0.036-0.012-0.105-0.036-0.207-0.072c-0.103-0.036-0.213-0.078-0.333-0.126c-0.12-0.048-0.237-0.102-0.352-0.162
		c-0.113-0.06-0.207-0.12-0.278-0.18h0.018c-0.18-0.132-0.315-0.291-0.405-0.477s-0.152-0.381-0.188-0.585s-0.057-0.414-0.063-0.63
		c-0.006-0.216-0.015-0.426-0.026-0.63c0-0.756,0.065-1.542,0.197-2.358c0.133-0.816,0.414-1.692,0.847-2.628
		c0.3-0.42,0.558-0.735,0.773-0.945s0.492-0.339,0.828-0.387L500.265,370.415z M500.463,372.881
		c-0.145-0.06-0.273-0.114-0.388-0.162c-0.113-0.048-0.194-0.072-0.242-0.072c-0.084,0.012-0.168,0.048-0.252,0.108
		s-0.168,0.129-0.252,0.207c-0.084,0.078-0.159,0.159-0.226,0.243c-0.065,0.084-0.129,0.15-0.188,0.198l-0.036,0.036v-0.018
		c-0.156,0.216-0.276,0.474-0.36,0.774c-0.084,0.3-0.149,0.615-0.198,0.945c-0.048,0.33-0.077,0.657-0.09,0.981
		c-0.012,0.324-0.018,0.612-0.018,0.864c0.06,0.012,0.243,0.069,0.549,0.171c0.306,0.102,0.657,0.213,1.053,0.333
		c0.396,0.12,0.799,0.229,1.206,0.324c0.408,0.096,0.744,0.144,1.008,0.144c0.324,0,0.486-0.084,0.486-0.252
		c0-0.12-0.078-0.276-0.234-0.468c-0.023-0.36-0.054-0.693-0.09-0.999c-0.036-0.306-0.09-0.6-0.162-0.882
		c-0.071-0.282-0.168-0.561-0.288-0.837c-0.119-0.276-0.27-0.57-0.449-0.882l-0.019-0.036L500.463,372.881z"/>
	<path fill="#FFFFFF" d="M498.375,368.633c-0.372-0.083-0.669-0.159-0.892-0.225c-0.222-0.066-0.393-0.156-0.513-0.27
		s-0.198-0.267-0.234-0.459s-0.054-0.45-0.054-0.774c0.012-0.132,0.018-0.258,0.018-0.378c0-0.132,0-0.246,0-0.342v-1.404
		c0-0.264,0.007-0.591,0.019-0.981c0.012-0.39,0.027-0.794,0.045-1.215c0.018-0.42,0.039-0.834,0.063-1.242
		c0.024-0.408,0.043-0.768,0.055-1.08c0.024-0.24,0.048-0.444,0.071-0.612c0.024-0.168,0.058-0.306,0.1-0.414
		c0.042-0.108,0.099-0.198,0.171-0.27c0.072-0.072,0.168-0.138,0.288-0.198h0.144c0.108,0,0.22,0.048,0.333,0.144
		c0.114,0.096,0.201,0.282,0.262,0.558c0,0.012,0.018,0.036,0.054,0.072c0.012,0.012,0.018,0.072,0.018,0.18v0.684l0.145,3.384v0.72
		c0,0.12,0.003,0.216,0.009,0.288c0.006,0.072,0.012,0.142,0.018,0.207c0.007,0.066,0.013,0.135,0.019,0.207
		c0.006,0.072,0.015,0.174,0.027,0.306l0.035,0.09l0.036,0.054v-0.018c0.097,0.036,0.273,0.09,0.531,0.162
		c0.258,0.072,0.534,0.147,0.828,0.225s0.573,0.15,0.837,0.216s0.45,0.111,0.558,0.135l0.072-0.018l0.18-0.126
		c0.036-0.276,0.058-0.642,0.063-1.098s0.009-0.912,0.009-1.368v-2.016c0-0.348,0.027-0.666,0.081-0.954
		c0.054-0.288,0.201-0.462,0.441-0.522h0.342c0.168,0,0.33,0.036,0.486,0.108c0.155,0.072,0.258,0.27,0.306,0.594
		c0,0.036,0.003,0.108,0.009,0.216c0.006,0.108,0.016,0.225,0.027,0.351c0.012,0.126,0.021,0.246,0.026,0.36
		c0.007,0.114,0.01,0.195,0.01,0.243c0.048,0.504,0.087,0.93,0.116,1.278c0.03,0.348,0.055,0.651,0.072,0.909
		c0.019,0.258,0.03,0.486,0.036,0.684c0.006,0.198,0.009,0.393,0.009,0.585v0.378c0,0.061,0,0.126,0,0.198
		c0,0.06-0.006,0.132-0.018,0.216v0.342l0.036,0.108v0.018l0.018,0.036c0.097,0.036,0.297,0.093,0.604,0.171
		c0.306,0.078,0.636,0.156,0.989,0.234c0.354,0.078,0.699,0.15,1.035,0.216c0.336,0.066,0.582,0.105,0.738,0.117l0.072-0.018
		l0.161-0.162l0.019-0.072c-0.06-0.432-0.102-0.873-0.126-1.323c-0.024-0.45-0.048-0.897-0.072-1.341
		c0-0.096-0.006-0.216-0.018-0.36s-0.021-0.288-0.027-0.432s-0.015-0.27-0.027-0.378c-0.012-0.108-0.018-0.174-0.018-0.198
		c0-0.048,0.003-0.09,0.009-0.126c0.007-0.036,0.009-0.078,0.009-0.126c0-0.276-0.023-0.558-0.071-0.846
		c-0.048-0.288-0.072-0.564-0.072-0.828c0.024-0.204,0.054-0.438,0.09-0.702c0.036-0.264,0.12-0.456,0.252-0.576v-0.09
		c0.072-0.012,0.139-0.018,0.198-0.018c0.048,0,0.096,0,0.144,0c0.133,0,0.231,0.015,0.298,0.045
		c0.065,0.03,0.135,0.081,0.206,0.153c0.024,0.024,0.055,0.09,0.091,0.198c0.035,0.108,0.065,0.288,0.09,0.54l0.792,5.562v0.036
		c0.06,0.384,0.113,0.711,0.162,0.981c0.048,0.27,0.071,0.573,0.071,0.909c0,0.108-0.039,0.231-0.116,0.369
		c-0.078,0.138-0.175,0.285-0.288,0.441c-0.114,0.156-0.234,0.315-0.36,0.477c-0.126,0.162-0.236,0.315-0.333,0.459L498.375,368.633
		z"/>
	<path fill="#FFFFFF" d="M508.725,358.103c-0.18,0.228-0.432,0.36-0.756,0.396l-0.019,0.018h-0.252
		c-0.779-0.096-1.515-0.201-2.205-0.315c-0.689-0.114-1.37-0.243-2.043-0.387c-0.672-0.144-1.35-0.303-2.033-0.477
		c-0.685-0.174-1.416-0.369-2.196-0.585c-0.06-0.024-0.102-0.039-0.126-0.045s-0.065-0.009-0.126-0.009
		c-0.3-0.06-1.032-0.312-2.196-0.756l-0.198-1.17c0-0.504,0.01-0.96,0.027-1.368c0.019-0.408,0.069-0.768,0.153-1.08v-0.036
		c0.132-1.032,0.345-1.911,0.639-2.637s0.648-1.32,1.063-1.782s0.876-0.801,1.386-1.017c0.51-0.216,1.041-0.324,1.593-0.324
		c0.84,0,1.695,0.219,2.565,0.657s1.671,1.032,2.402,1.782c0.732,0.75,1.345,1.626,1.836,2.628c0.492,1.002,0.78,2.067,0.864,3.195
		l0.09,0.126l-0.036,0.036c0.036,0.168,0.069,0.378,0.1,0.63c0.029,0.252,0.045,0.516,0.045,0.792L508.725,358.103z
		 M498.627,353.783l0.054,0.072v-0.018c0.18,0.06,0.465,0.15,0.854,0.27c0.391,0.12,0.841,0.252,1.351,0.396
		s1.062,0.297,1.656,0.459c0.594,0.162,1.182,0.312,1.764,0.45c0.582,0.138,1.143,0.258,1.683,0.36s1.009,0.171,1.404,0.207
		l0.108-0.054l0.09-0.108l0.054-0.108c-0.096-0.348-0.198-0.675-0.306-0.981c-0.108-0.306-0.187-0.495-0.234-0.567
		c-0.359-0.768-0.786-1.5-1.278-2.196c-0.491-0.696-1.005-1.305-1.538-1.827c-0.534-0.522-1.074-0.938-1.62-1.251
		c-0.546-0.312-1.065-0.474-1.558-0.486l-0.126,0.018c-0.239,0.024-0.513,0.123-0.818,0.297c-0.307,0.174-0.633,0.495-0.981,0.963
		c-0.216,0.313-0.372,0.786-0.468,1.422s-0.145,1.482-0.145,2.538L498.627,353.783z"/>
	<path fill="#FFFFFF" d="M508.725,339.833c-0.18,0.228-0.432,0.36-0.756,0.396l-0.019,0.018h-0.252
		c-0.779-0.096-1.515-0.201-2.205-0.315c-0.689-0.114-1.37-0.243-2.043-0.387c-0.672-0.144-1.35-0.303-2.033-0.477
		c-0.685-0.174-1.416-0.369-2.196-0.585c-0.06-0.024-0.102-0.039-0.126-0.045s-0.065-0.009-0.126-0.009
		c-0.3-0.06-1.032-0.312-2.196-0.756l-0.198-1.17c0-0.504,0.01-0.96,0.027-1.368c0.019-0.408,0.069-0.768,0.153-1.08v-0.036
		c0.132-1.032,0.345-1.911,0.639-2.637s0.648-1.32,1.063-1.782s0.876-0.801,1.386-1.017c0.51-0.216,1.041-0.324,1.593-0.324
		c0.84,0,1.695,0.219,2.565,0.657s1.671,1.032,2.402,1.782c0.732,0.75,1.345,1.626,1.836,2.628c0.492,1.002,0.78,2.067,0.864,3.195
		l0.09,0.126l-0.036,0.036c0.036,0.168,0.069,0.378,0.1,0.63c0.029,0.252,0.045,0.516,0.045,0.792L508.725,339.833z
		 M498.627,335.513l0.054,0.072v-0.018c0.18,0.06,0.465,0.15,0.854,0.27c0.391,0.12,0.841,0.252,1.351,0.396
		s1.062,0.297,1.656,0.459c0.594,0.162,1.182,0.312,1.764,0.45c0.582,0.138,1.143,0.258,1.683,0.36s1.009,0.171,1.404,0.207
		l0.108-0.054l0.09-0.108l0.054-0.108c-0.096-0.348-0.198-0.675-0.306-0.981c-0.108-0.306-0.187-0.495-0.234-0.567
		c-0.359-0.768-0.786-1.5-1.278-2.196c-0.491-0.696-1.005-1.305-1.538-1.827c-0.534-0.522-1.074-0.938-1.62-1.251
		c-0.546-0.312-1.065-0.474-1.558-0.486l-0.126,0.018c-0.239,0.024-0.513,0.123-0.818,0.297c-0.307,0.174-0.633,0.495-0.981,0.963
		c-0.216,0.313-0.372,0.786-0.468,1.422s-0.145,1.482-0.145,2.538L498.627,335.513z"/>
	<path fill="#FFFFFF" d="M506.331,320.142l-0.055,0.036l-0.071,0.072v0.018l-0.055,0.126v0.198c0,0.3,0.013,0.708,0.036,1.224
		c0.024,0.516,0.048,1.026,0.072,1.53c0.024,0.36,0.042,0.684,0.054,0.972c0,0.024,0.003,0.042,0.009,0.054
		c0.007,0.012,0.01,0.03,0.01,0.054v0.198l0.018,0.072c0.12,0.12,0.246,0.222,0.378,0.306c0.132,0.084,0.279,0.165,0.441,0.243
		s0.348,0.162,0.558,0.252s0.453,0.201,0.729,0.333c0.371,0.168,0.62,0.378,0.746,0.63s0.189,0.534,0.189,0.846
		c0,0.12-0.021,0.243-0.063,0.369s-0.102,0.243-0.18,0.351c-0.078,0.108-0.174,0.195-0.288,0.261s-0.237,0.099-0.369,0.099h-0.233
		c-0.204,0-0.39-0.021-0.559-0.063c-0.168-0.042-0.354-0.105-0.558-0.189c-0.492-0.228-1.038-0.504-1.638-0.828
		c-0.601-0.324-1.212-0.666-1.836-1.026c-0.624-0.36-1.233-0.723-1.827-1.089c-0.594-0.366-1.137-0.699-1.629-0.999
		c-0.288-0.191-0.576-0.363-0.864-0.513s-0.558-0.285-0.81-0.405c-0.288-0.144-0.553-0.279-0.792-0.405
		c-0.24-0.126-0.45-0.291-0.631-0.495c-0.18-0.204-0.335-0.474-0.468-0.81c-0.132-0.336-0.24-0.786-0.324-1.35h0.019v-0.054
		c0-0.132,0.009-0.237,0.026-0.315c0.019-0.078,0.039-0.165,0.063-0.261c0.156-0.408,3.804-1.11,10.944-2.106l0.035-0.018
		c0.145-0.06,0.301-0.09,0.469-0.09c0.204,0,0.398,0.045,0.585,0.135c0.186,0.09,0.32,0.237,0.404,0.441
		c0.061,0.132,0.103,0.243,0.127,0.333c0.023,0.09,0.035,0.171,0.035,0.243c-0.035,0.204-0.071,0.378-0.107,0.522
		s-0.097,0.27-0.181,0.378c-0.084,0.108-0.2,0.198-0.351,0.27c-0.149,0.072-0.351,0.132-0.603,0.18l-0.918,0.18L506.331,320.142z
		 M504.404,320.753l-0.126-0.126l-0.071-0.036l-3.853,0.468l-0.09,0.09l-0.036,0.18l0.054,0.126l3.87,2.322h0.072l0.198-0.108
		l0.018-0.054v-2.826l-0.036-0.072V320.753z"/>
	<path fill="#FFFFFF" d="M498.663,310.89c0.191,0.12,0.351,0.216,0.477,0.288c0.126,0.072,0.294,0.138,0.504,0.198
		s0.498,0.132,0.864,0.216c0.366,0.084,0.876,0.195,1.53,0.333c0.653,0.138,1.493,0.318,2.52,0.54
		c1.026,0.222,2.307,0.507,3.843,0.855h0.126c0.276,0,0.471,0.114,0.585,0.342s0.171,0.468,0.171,0.72
		c0,0.18-0.023,0.345-0.071,0.495c-0.049,0.15-0.108,0.243-0.181,0.279h0.019c-0.204,0.168-0.349,0.273-0.433,0.315
		c-0.083,0.042-0.186,0.063-0.306,0.063c-0.023-0.012-0.063-0.027-0.117-0.045c-0.054-0.018-0.177-0.048-0.369-0.09
		c-0.191-0.042-0.477-0.102-0.854-0.18c-0.378-0.078-0.906-0.186-1.584-0.324s-1.536-0.312-2.574-0.522s-2.307-0.465-3.807-0.765
		l-0.09,0.018l0.018-0.018l-0.198,0.162v2.016c0,0.264-0.012,0.495-0.036,0.693c-0.023,0.198-0.065,0.423-0.126,0.675
		c-0.144,0.084-0.314,0.156-0.513,0.216c-0.198,0.06-0.387,0.09-0.567,0.09c-0.18,0-0.339-0.036-0.477-0.108
		c-0.138-0.072-0.219-0.198-0.243-0.378c-0.023-0.468-0.045-0.815-0.063-1.044c-0.019-0.228-0.027-0.42-0.027-0.576v-0.306
		c0-0.12,0.003-0.282,0.009-0.486c0.007-0.204,0.009-0.48,0.009-0.828v-1.422c-0.012-0.132-0.026-0.345-0.045-0.639
		c-0.018-0.294-0.032-0.597-0.045-0.909c-0.012-0.312-0.021-0.594-0.026-0.846s-0.01-0.402-0.01-0.45
		c-0.012-0.048-0.018-0.096-0.018-0.144c0-0.048,0-0.096,0-0.144v-0.288c0-0.312,0.006-0.609,0.018-0.891
		c0.013-0.282,0.019-0.513,0.019-0.693c-0.036-0.156-0.054-0.3-0.054-0.432c0-0.396,0.113-0.705,0.342-0.927
		c0.228-0.222,0.474-0.333,0.737-0.333c0.169,0,0.324,0.045,0.469,0.135c0.144,0.09,0.252,0.237,0.323,0.441L498.663,310.89z"/>
	<path fill="#FFFFFF" d="M506.331,300.684l-0.055,0.036l-0.071,0.072v0.018l-0.055,0.126v0.198c0,0.3,0.013,0.708,0.036,1.224
		c0.024,0.516,0.048,1.026,0.072,1.53c0.024,0.36,0.042,0.684,0.054,0.972c0,0.024,0.003,0.042,0.009,0.054
		c0.007,0.012,0.01,0.03,0.01,0.054v0.198l0.018,0.072c0.12,0.12,0.246,0.222,0.378,0.306c0.132,0.084,0.279,0.165,0.441,0.243
		s0.348,0.162,0.558,0.252s0.453,0.201,0.729,0.333c0.371,0.168,0.62,0.378,0.746,0.63s0.189,0.534,0.189,0.846
		c0,0.12-0.021,0.243-0.063,0.369s-0.102,0.243-0.18,0.351c-0.078,0.108-0.174,0.195-0.288,0.261s-0.237,0.099-0.369,0.099h-0.233
		c-0.204,0-0.39-0.021-0.559-0.063c-0.168-0.042-0.354-0.105-0.558-0.189c-0.492-0.228-1.038-0.504-1.638-0.828
		c-0.601-0.324-1.212-0.666-1.836-1.026c-0.624-0.36-1.233-0.723-1.827-1.089c-0.594-0.366-1.137-0.699-1.629-0.999
		c-0.288-0.191-0.576-0.363-0.864-0.513s-0.558-0.285-0.81-0.405c-0.288-0.144-0.553-0.279-0.792-0.405
		c-0.24-0.126-0.45-0.291-0.631-0.495c-0.18-0.204-0.335-0.474-0.468-0.81c-0.132-0.336-0.24-0.786-0.324-1.35h0.019v-0.054
		c0-0.132,0.009-0.237,0.026-0.315c0.019-0.078,0.039-0.165,0.063-0.261c0.156-0.408,3.804-1.11,10.944-2.106l0.035-0.018
		c0.145-0.06,0.301-0.09,0.469-0.09c0.204,0,0.398,0.045,0.585,0.135c0.186,0.09,0.32,0.237,0.404,0.441
		c0.061,0.132,0.103,0.243,0.127,0.333c0.023,0.09,0.035,0.171,0.035,0.243c-0.035,0.204-0.071,0.378-0.107,0.522
		s-0.097,0.27-0.181,0.378c-0.084,0.108-0.2,0.198-0.351,0.27c-0.149,0.072-0.351,0.132-0.603,0.18l-0.918,0.18L506.331,300.684z
		 M504.404,301.295l-0.126-0.126l-0.071-0.036l-3.853,0.468l-0.09,0.09l-0.036,0.18l0.054,0.126l3.87,2.322h0.072l0.198-0.108
		l0.018-0.054v-2.826l-0.036-0.072V301.295z"/>
	<path fill="#FFFFFF" d="M507.23,288.876h0.036l0.126-0.054l0.072-0.072l0.054-0.162v0.036c-0.023-0.456-0.042-0.816-0.054-1.08
		c-0.012-0.264-0.027-0.498-0.045-0.702c-0.019-0.204-0.039-0.408-0.063-0.612c-0.023-0.204-0.054-0.468-0.09-0.792
		c0-0.036-0.006-0.06-0.018-0.072c-0.024-0.144-0.042-0.276-0.055-0.396c-0.012-0.12-0.023-0.255-0.036-0.405
		c-0.012-0.15-0.023-0.327-0.035-0.531c-0.013-0.204-0.03-0.468-0.055-0.792c-0.012-0.024-0.018-0.066-0.018-0.126
		c0-0.168,0.072-0.327,0.216-0.477c0.144-0.15,0.336-0.225,0.576-0.225c0.096,0,0.18,0.012,0.252,0.036s0.162,0.066,0.27,0.126
		c0.156,0.576,0.276,1.149,0.36,1.719c0.084,0.57,0.156,1.149,0.216,1.737c0.061,0.54,0.123,1.116,0.189,1.728
		c0.065,0.612,0.158,1.32,0.278,2.124c0,0.18-0.018,0.354-0.054,0.522s-0.12,0.372-0.252,0.612h-0.054
		c-0.097,0.12-0.216,0.201-0.36,0.243c-0.144,0.042-0.336,0.075-0.576,0.099c-0.107,0-0.242-0.012-0.404-0.036
		s-0.327-0.051-0.495-0.081c-0.168-0.03-0.336-0.063-0.504-0.099s-0.313-0.066-0.433-0.09c-0.731-0.156-1.361-0.288-1.89-0.396
		s-0.99-0.204-1.386-0.288c-0.396-0.084-0.747-0.156-1.054-0.216c-0.306-0.06-0.611-0.126-0.918-0.198
		c-0.306-0.072-0.633-0.15-0.98-0.234s-0.756-0.186-1.225-0.306h0.019c-0.192,0-0.372-0.012-0.54-0.036s-0.318-0.084-0.45-0.18
		h-0.036c-0.324-0.06-0.549-0.198-0.675-0.414s-0.201-0.54-0.225-0.972c-0.036-0.228-0.055-0.438-0.055-0.63
		c0-0.432,0.088-0.729,0.262-0.891c0.174-0.162,0.398-0.243,0.675-0.243c0.18,0,0.378,0.027,0.594,0.081
		c0.216,0.054,0.436,0.12,0.657,0.198c0.222,0.078,0.444,0.159,0.666,0.243s0.435,0.162,0.639,0.234l0.09,0.09l6.301,1.89h0.035
		l0.324,0.072h0.036C507.188,288.858,507.219,288.864,507.23,288.876z"/>
	<path fill="#FFFFFF" d="M507.23,279.894h0.036l0.126-0.054l0.072-0.072l0.054-0.162v0.036c-0.023-0.456-0.042-0.816-0.054-1.08
		c-0.012-0.264-0.027-0.498-0.045-0.702c-0.019-0.204-0.039-0.408-0.063-0.612c-0.023-0.204-0.054-0.468-0.09-0.792
		c0-0.036-0.006-0.06-0.018-0.072c-0.024-0.144-0.042-0.276-0.055-0.396c-0.012-0.12-0.023-0.255-0.036-0.405
		c-0.012-0.15-0.023-0.327-0.035-0.531c-0.013-0.204-0.03-0.468-0.055-0.792c-0.012-0.024-0.018-0.066-0.018-0.126
		c0-0.168,0.072-0.327,0.216-0.477c0.144-0.15,0.336-0.225,0.576-0.225c0.096,0,0.18,0.012,0.252,0.036s0.162,0.066,0.27,0.126
		c0.156,0.576,0.276,1.149,0.36,1.719c0.084,0.57,0.156,1.149,0.216,1.737c0.061,0.54,0.123,1.116,0.189,1.728
		c0.065,0.612,0.158,1.32,0.278,2.124c0,0.18-0.018,0.354-0.054,0.522s-0.12,0.372-0.252,0.612h-0.054
		c-0.097,0.12-0.216,0.201-0.36,0.243c-0.144,0.042-0.336,0.075-0.576,0.099c-0.107,0-0.242-0.012-0.404-0.036
		s-0.327-0.051-0.495-0.081c-0.168-0.03-0.336-0.063-0.504-0.099s-0.313-0.066-0.433-0.09c-0.731-0.156-1.361-0.288-1.89-0.396
		s-0.99-0.204-1.386-0.288c-0.396-0.084-0.747-0.156-1.054-0.216c-0.306-0.06-0.611-0.126-0.918-0.198
		c-0.306-0.072-0.633-0.15-0.98-0.234s-0.756-0.186-1.225-0.306h0.019c-0.192,0-0.372-0.012-0.54-0.036s-0.318-0.084-0.45-0.18
		h-0.036c-0.324-0.06-0.549-0.198-0.675-0.414s-0.201-0.54-0.225-0.972c-0.036-0.228-0.055-0.438-0.055-0.63
		c0-0.432,0.088-0.729,0.262-0.891c0.174-0.162,0.398-0.243,0.675-0.243c0.18,0,0.378,0.027,0.594,0.081
		c0.216,0.054,0.436,0.12,0.657,0.198c0.222,0.078,0.444,0.159,0.666,0.243s0.435,0.162,0.639,0.234l0.09,0.09l6.301,1.89h0.035
		l0.324,0.072h0.036C507.188,279.876,507.219,279.882,507.23,279.894z"/>
	<path fill="#FFFFFF" d="M498.446,265.62v0.054c0,0.42,0.123,0.828,0.369,1.224s0.549,0.762,0.909,1.098
		c0.432,0.468,0.957,0.9,1.575,1.296s1.251,0.762,1.898,1.098c0.648,0.313,1.309,0.504,1.98,0.576
		c0.036,0.012,0.126,0.018,0.27,0.018h0.217c0.336-0.06,0.636-0.189,0.899-0.387c0.265-0.198,0.504-0.411,0.72-0.639
		c0.217-0.54,0.354-0.954,0.414-1.242c0.061-0.288,0.091-0.528,0.091-0.72c0-0.335-0.019-0.558-0.055-0.666
		c-0.168-0.612-0.339-1.11-0.513-1.494c-0.174-0.384-0.345-0.732-0.513-1.044v0.036c-0.097-0.12-0.181-0.261-0.252-0.423
		c-0.072-0.162-0.132-0.315-0.181-0.459c-0.048-0.144-0.084-0.267-0.107-0.369c-0.024-0.102-0.036-0.159-0.036-0.171v-0.072
		c0-0.504,0.294-0.756,0.882-0.756h-0.036c0.12,0.061,0.234,0.135,0.342,0.225c0.108,0.09,0.246,0.237,0.414,0.441
		c0.564,0.744,0.999,1.467,1.306,2.169c0.306,0.702,0.459,1.503,0.459,2.403c0,0.216-0.013,0.423-0.036,0.621
		c-0.024,0.198-0.049,0.393-0.072,0.585c-0.096,0.672-0.268,1.332-0.513,1.98c-0.246,0.648-0.657,1.188-1.233,1.62l-0.468,0.396
		c-0.204,0.108-0.417,0.189-0.639,0.243c-0.223,0.054-0.495,0.093-0.819,0.117c-0.036,0.012-0.102,0.018-0.198,0.018h-0.233
		c-0.889-0.096-1.746-0.3-2.574-0.612c-0.828-0.312-1.608-0.711-2.34-1.197c-0.732-0.486-1.401-1.047-2.008-1.683
		c-0.605-0.636-1.137-1.326-1.593-2.07c-0.096-0.312-0.165-0.6-0.207-0.864c-0.042-0.264-0.063-0.492-0.063-0.684
		c0-0.18,0.015-0.351,0.045-0.513c0.03-0.162,0.078-0.336,0.144-0.522c0.066-0.186,0.153-0.399,0.261-0.639
		c0.108-0.24,0.246-0.522,0.414-0.846c0.205-0.408,0.424-0.747,0.657-1.017c0.234-0.27,0.507-0.441,0.819-0.513h0.144
		c0.024-0.012,0.061-0.018,0.108-0.018c0.144,0,0.309,0.084,0.495,0.252c0.186,0.168,0.345,0.39,0.477,0.666
		c0,0.012-0.039,0.093-0.117,0.243c-0.077,0.15-0.149,0.285-0.216,0.405c-0.065,0.12-0.104,0.192-0.117,0.216L498.446,265.62z"/>
</g>
<line fill="none" stroke="#FFFFFF" stroke-width="1.5" stroke-linecap="round" stroke-miterlimit="10" x1="97.399" y1="542.271" x2="97.399" y2="578.271"/>
<line fill="none" stroke="#FFFFFF" stroke-width="1.5" stroke-linecap="round" stroke-miterlimit="10" x1="420.159" y1="542.271" x2="420.159" y2="578.271"/>
<line fill="none" stroke="#FFFFFF" stroke-width="0.5" stroke-linecap="round" stroke-linejoin="round" stroke-miterlimit="10" x1="53.366" y1="331.604" x2="565.366" y2="331.604"/>
<line fill="none" stroke="#FFFFFF" stroke-width="0.5" stroke-linecap="round" stroke-linejoin="round" stroke-miterlimit="10" x1="53.366" y1="459.604" x2="565.366" y2="459.604"/>
<line fill="none" stroke="#FFFFFF" stroke-width="0.5" stroke-linecap="round" stroke-linejoin="round" stroke-miterlimit="10" x1="53.366" y1="587.604" x2="565.366" y2="587.604"/>
<line fill="none" stroke="#FFFFFF" stroke-width="0.5" stroke-linecap="round" stroke-linejoin="round" stroke-miterlimit="10" x1="53.366" y1="203.604" x2="565.366" y2="203.604"/>
<line fill="none" stroke="#FFFFFF" stroke-width="0.5" stroke-linecap="round" stroke-linejoin="round" stroke-miterlimit="10" x1="245.366" y1="651.604" x2="245.366" y2="139.604"/>
<line fill="none" stroke="#FFFFFF" stroke-width="0.5" stroke-linecap="round" stroke-linejoin="round" stroke-miterlimit="10" x1="373.366" y1="651.604" x2="373.366" y2="139.604"/>
<line fill="none" stroke="#FFFFFF" stroke-width="0.5" stroke-linecap="round" stroke-linejoin="round" stroke-miterlimit="10" x1="501.366" y1="651.604" x2="501.366" y2="139.604"/>
<line fill="none" stroke="#FFFFFF" stroke-width="0.5" stroke-linecap="round" stroke-linejoin="round" stroke-miterlimit="10" x1="117.366" y1="651.604" x2="117.366" y2="139.604"/>
<g>
	
		<line fill="none" stroke="#FFFFFF" stroke-width="0.75" stroke-linecap="round" stroke-linejoin="round" stroke-miterlimit="10" x1="53.366" y1="395.604" x2="565.366" y2="395.604"/>
	
		<line fill="none" stroke="#FFFFFF" stroke-width="0.75" stroke-linecap="round" stroke-linejoin="round" stroke-miterlimit="10" x1="53.366" y1="523.604" x2="565.366" y2="523.604"/>
	
		<line fill="none" stroke="#FFFFFF" stroke-width="0.75" stroke-linecap="round" stroke-linejoin="round" stroke-miterlimit="10" x1="53.366" y1="267.604" x2="565.366" y2="267.604"/>
	
		<line fill="none" stroke="#FFFFFF" stroke-width="0.75" stroke-linecap="round" stroke-linejoin="round" stroke-miterlimit="10" x1="309.366" y1="651.604" x2="309.366" y2="139.604"/>
	
		<line fill="none" stroke="#FFFFFF" stroke-width="0.75" stroke-linecap="round" stroke-linejoin="round" stroke-miterlimit="10" x1="437.366" y1="651.604" x2="437.366" y2="139.604"/>
	
		<line fill="none" stroke="#FFFFFF" stroke-width="0.75" stroke-linecap="round" stroke-linejoin="round" stroke-miterlimit="10" x1="181.366" y1="651.604" x2="181.366" y2="139.604"/>
</g>
<g>
	<path fill="none" stroke="#FFFFFF" stroke-width="2" stroke-linecap="round" stroke-linejoin="round" stroke-miterlimit="10" d="
		M189.616,339.85c-15.422,23.745-30.84,47.49-46.262,71.236"/>
	<path fill="none" stroke="#FFFFFF" stroke-width="2" stroke-linecap="round" stroke-linejoin="round" stroke-miterlimit="10" d="
		M277.587,204.386c-4.551,7.007-9.1,14.014-13.65,21.021"/>
	<path fill="none" stroke="#FFFFFF" stroke-width="2" stroke-linecap="round" stroke-linejoin="round" stroke-miterlimit="10" d="
		M183.718,384.783c-13.256,20.434-26.443,40.913-39.482,61.487"/>
	<path fill="none" stroke="#FFFFFF" stroke-width="2" stroke-linecap="round" stroke-linejoin="round" stroke-miterlimit="10" d="
		M199.503,360.511c-1.504,2.311-3.01,4.62-4.514,6.932"/>
	<path fill="none" stroke="#FFFFFF" stroke-width="2" stroke-linecap="round" stroke-linejoin="round" stroke-miterlimit="10" d="
		M295.067,212.87c-5.186,8.206-10.396,16.396-15.631,24.573"/>
	<path fill="none" stroke="#FFFFFF" stroke-width="2" stroke-linecap="round" stroke-linejoin="round" stroke-miterlimit="10" d="
		M125.565,512.248c-2.43,3.762-4.895,7.504-7.398,11.217"/>
	<path fill="none" stroke="#FFFFFF" stroke-width="2" stroke-linecap="round" stroke-linejoin="round" stroke-miterlimit="10" d="
		M186.077,416.77c-15.584,22.113-29.473,45.348-43.586,68.408"/>
	<path fill="none" stroke="#FFFFFF" stroke-width="2" stroke-linecap="round" stroke-linejoin="round" stroke-miterlimit="10" d="
		M225.292,359.276c-1.932,3.092-3.855,6.188-5.771,9.289"/>
	<path fill="none" stroke="#FFFFFF" stroke-width="2" stroke-linecap="round" stroke-linejoin="round" stroke-miterlimit="10" d="
		M313.216,224.11c-6.332,9.604-12.678,19.201-19.02,28.8"/>
	<path fill="none" stroke="#FFFFFF" stroke-width="2" stroke-linecap="round" stroke-linejoin="round" stroke-miterlimit="10" d="
		M186.581,454.57c-13.988,21.279-27.566,42.822-41.135,64.371"/>
	<path fill="none" stroke="#FFFFFF" stroke-width="2" stroke-linecap="round" stroke-linejoin="round" stroke-miterlimit="10" d="
		M255.083,350.948c-6.693,9.912-13.404,19.813-20.129,29.704"/>
	<path fill="none" stroke="#FFFFFF" stroke-width="2" stroke-linecap="round" stroke-linejoin="round" stroke-miterlimit="10" d="
		M330.499,237.024c-9.977,15.461-20.043,30.864-30.178,46.223"/>
	<path fill="none" stroke="#FFFFFF" stroke-width="2" stroke-linecap="round" stroke-linejoin="round" stroke-miterlimit="10" d="
		M190.94,484.33c-8.645,13.047-17.207,26.146-25.723,39.275"/>
	<path fill="none" stroke="#FFFFFF" stroke-width="2" stroke-linecap="round" stroke-linejoin="round" stroke-miterlimit="10" d="
		M265.228,371.763c-5.838,8.607-11.736,17.173-17.705,25.688"/>
	<path fill="none" stroke="#FFFFFF" stroke-width="2" stroke-linecap="round" stroke-linejoin="round" stroke-miterlimit="10" d="
		M343.003,250.845c-22.672,36.481-45.57,72.832-69.443,108.542"/>
	<path fill="none" stroke="#FFFFFF" stroke-width="2" stroke-linecap="round" stroke-linejoin="round" stroke-miterlimit="10" d="
		M200.622,508.053c-2.518,3.871-5.037,7.742-7.557,11.613"/>
	<path fill="none" stroke="#FFFFFF" stroke-width="2" stroke-linecap="round" stroke-linejoin="round" stroke-miterlimit="10" d="
		M281.212,383.446c-7.01,10.881-14.025,21.761-21.041,32.636"/>
	<path fill="none" stroke="#FFFFFF" stroke-width="2" stroke-linecap="round" stroke-linejoin="round" stroke-miterlimit="10" d="
		M346.714,281.673c-15.563,24.182-31.119,48.368-46.684,72.548"/>
	<path fill="none" stroke="#FFFFFF" stroke-width="2" stroke-linecap="round" stroke-linejoin="round" stroke-miterlimit="10" d="
		M219.253,514.543c-1.768,2.719-3.533,5.439-5.301,8.158"/>
	<path fill="none" stroke="#FFFFFF" stroke-width="2" stroke-linecap="round" stroke-linejoin="round" stroke-miterlimit="10" d="
		M294.608,398.506c-7.359,11.332-14.719,22.662-22.078,33.994"/>
	<path fill="none" stroke="#FFFFFF" stroke-width="2" stroke-linecap="round" stroke-linejoin="round" stroke-miterlimit="10" d="
		M306.624,416.725c-7.617,11.727-15.234,23.455-22.85,35.184"/>
	<path fill="none" stroke="#FFFFFF" stroke-width="2" stroke-linecap="round" stroke-linejoin="round" stroke-miterlimit="10" d="
		M114.222,198.062c-1.879,3.004-3.746,6.016-5.598,9.034"/>
	<path fill="none" stroke="#FFFFFF" stroke-width="2" stroke-linecap="round" stroke-linejoin="round" stroke-miterlimit="10" d="
		M138.253,198.613c-3.289,5.066-6.58,10.132-9.871,15.197"/>
	<path fill="none" stroke="#FFFFFF" stroke-width="2" stroke-linecap="round" stroke-linejoin="round" stroke-miterlimit="10" d="
		M162.886,197.163c-6.434,9.966-12.867,19.935-19.297,29.902"/>
	<path fill="none" stroke="#FFFFFF" stroke-width="2" stroke-linecap="round" stroke-linejoin="round" stroke-miterlimit="10" d="
		M185.218,199.325c-14.047,21.435-28.012,42.924-41.75,64.558"/>
	<path fill="none" stroke="#FFFFFF" stroke-width="2" stroke-linecap="round" stroke-linejoin="round" stroke-miterlimit="10" d="
		M185.405,233.451c-14.072,21.742-27.898,43.646-41.27,65.827"/>
	<path fill="none" stroke="#FFFFFF" stroke-width="2" stroke-linecap="round" stroke-linejoin="round" stroke-miterlimit="10" d="
		M208.558,198.099c-4.012,6.064-8.01,12.136-11.992,18.217"/>
	<path fill="none" stroke="#FFFFFF" stroke-width="2" stroke-linecap="round" stroke-linejoin="round" stroke-miterlimit="10" d="
		M190.864,265.439c-15.705,23.939-31.439,47.857-47.174,71.777"/>
	<path fill="none" stroke="#FFFFFF" stroke-width="2" stroke-linecap="round" stroke-linejoin="round" stroke-miterlimit="10" d="
		M234.819,198.177c-3.777,5.807-7.559,11.61-11.342,17.412"/>
	<path fill="none" stroke="#FFFFFF" stroke-width="2" stroke-linecap="round" stroke-linejoin="round" stroke-miterlimit="10" d="
		M190.151,302.305c-15.963,24.578-31.924,49.157-47.887,73.735"/>
	<path fill="none" stroke="#FFFFFF" stroke-width="2" stroke-linecap="round" stroke-linejoin="round" stroke-miterlimit="10" d="
		M255.515,201.651c-3.293,5.071-6.586,10.144-9.879,15.215"/>
	<path fill="none" stroke="#FFFFFF" stroke-width="2" stroke-linecap="round" stroke-linejoin="round" stroke-miterlimit="10" d="
		M318.28,435.498c-7.359,11.33-14.719,22.66-22.074,33.99"/>
	<path fill="none" stroke="#FFFFFF" stroke-width="2" stroke-linecap="round" stroke-linejoin="round" stroke-miterlimit="10" d="
		M328.983,455.738c-7.313,11.26-14.625,22.52-21.938,33.777"/>
	<path fill="none" stroke="#FFFFFF" stroke-width="2" stroke-linecap="round" stroke-linejoin="round" stroke-miterlimit="10" d="
		M343.14,470.734c-7.18,11.234-14.391,22.449-21.625,33.65"/>
	<path fill="none" stroke="#FFFFFF" stroke-width="2" stroke-linecap="round" stroke-linejoin="round" stroke-miterlimit="10" d="
		M354.241,490.314c-6.156,9.531-12.313,19.063-18.477,28.59"/>
	<path fill="none" stroke="#FFFFFF" stroke-width="2" stroke-linecap="round" stroke-linejoin="round" stroke-miterlimit="10" d="
		M372.429,499c-5.059,7.787-10.113,15.576-15.172,23.365"/>
	<path fill="none" stroke="#FFFFFF" stroke-width="2" stroke-linecap="round" stroke-linejoin="round" stroke-miterlimit="10" d="
		M389.202,509.893c-2.453,3.887-4.914,7.77-7.375,11.65"/>
	<path fill="none" stroke="#FFFFFF" stroke-width="2" stroke-linecap="round" stroke-linejoin="round" stroke-miterlimit="10" d="
		M409.776,514.934c-0.941,1.861-1.918,3.707-2.926,5.533"/>
</g>
<path fill="none" stroke="#FFFFFF" stroke-width="2" stroke-linecap="round" stroke-linejoin="round" stroke-miterlimit="10" d="
	M377.093,501.975c-11.008-7.016-24.164-21.211-39.477-42.588l-66.992-93.071c27.273-6.06,47.41-16.427,60.41-31.104
	c13-14.673,19.5-31.979,19.5-51.919c0-18.662-5.703-34.729-17.105-48.21c-11.406-13.478-25.285-22.73-41.633-27.754
	c-16.352-5.025-41.75-7.537-76.203-7.537H97.399v8.853h12.201c12.281,0,21.535,3.511,27.754,10.527
	c4.465,4.946,6.699,17.627,6.699,38.042v209.59c0,18.504-1.674,30.229-5.023,35.17c-5.902,8.936-15.713,13.398-29.43,13.398H97.399
	v8.854h139.01v-8.854h-12.68c-12.125,0-21.219-3.506-27.277-10.527c-4.469-4.941-6.699-17.623-6.699-38.041v-94.268
	c2.551,0.161,5.023,0.28,7.418,0.359c2.391,0.082,4.623,0.119,6.699,0.119c5.102,0,11.723-0.157,19.859-0.479l109.816,151.69h86.613
	v-8.854C402.452,513.459,388.097,508.996,377.093,501.975z M203.151,357.703c-1.436,0-3.271-0.037-5.504-0.119
	c-2.234-0.079-4.867-0.12-7.895-0.12V222.522c15.791-3.028,28.313-4.546,37.563-4.546c20.895,0,37.684,6.34,50.363,19.021
	c12.684,12.68,19.023,29.151,19.023,49.406c0,20.737-7.859,37.803-23.566,51.201C257.421,351.003,234.093,357.703,203.151,357.703z"
	/>
<g>
	<g>
		
			<line fill="none" stroke="#FFFFFF" stroke-width="1.5" stroke-miterlimit="10" x1="103.319" y1="569.604" x2="414.239" y2="569.604"/>
		<g>
			<polygon fill="#FFFFFF" points="104.523,573.695 97.399,569.582 104.523,565.467 			"/>
		</g>
		<g>
			<polygon fill="#FFFFFF" points="413.035,573.695 420.159,569.582 413.035,565.467 			"/>
		</g>
	</g>
</g>
<g>
	<g>
		
			<line fill="none" stroke="#FFFFFF" stroke-width="1.5" stroke-miterlimit="10" x1="480.702" y1="205.713" x2="480.702" y2="518.306"/>
		<g>
			<polygon fill="#FFFFFF" points="476.612,206.917 480.725,199.792 484.839,206.917 			"/>
		</g>
		<g>
			<polygon fill="#FFFFFF" points="476.612,517.102 480.725,524.227 484.839,517.102 			"/>
		</g>
	</g>
</g>
<line fill="none" stroke="#FFFFFF" stroke-width="1.5" stroke-linecap="round" stroke-miterlimit="10" x1="318.015" y1="199.792" x2="490.702" y2="199.792"/>
<line fill="none" stroke="#FFFFFF" stroke-width="1.5" stroke-linecap="round" stroke-miterlimit="10" x1="437.366" y1="524.227" x2="490.702" y2="524.227"/>
</svg>
