<?xml version="1.0" encoding="utf-8"?>
<!-- Generator: Adobe Illustrator 15.1.0, SVG Export Plug-In . SVG Version: 6.00 Build 0)  -->
<!DOCTYPE svg PUBLIC "-//W3C//DTD SVG 1.1//EN" "http://www.w3.org/Graphics/SVG/1.1/DTD/svg11.dtd">
<svg version="1.1" id="Layer_1" xmlns="http://www.w3.org/2000/svg" xmlns:xlink="http://www.w3.org/1999/xlink" x="0px" y="0px"
	 width="259px" height="257.375px" viewBox="0 0 259 257.375" enable-background="new 0 0 259 257.375" xml:space="preserve">
<linearGradient id="SVGID_1_" gradientUnits="userSpaceOnUse" x1="9.765625e-004" y1="257.376" x2="256.001" y2="1.376">
	<stop  offset="0" style="stop-color:#00AEEF"/>
	<stop  offset="1" style="stop-color:#2B2E7D"/>
</linearGradient>
<rect y="1.375" fill="url(#SVGID_1_)" width="256" height="256"/>
<g>
	<path fill="#FFFFFF" d="M60.215,223.632h-0.027c-0.21,0-0.414,0.062-0.612,0.185c-0.198,0.123-0.381,0.274-0.549,0.455
		c-0.234,0.216-0.45,0.479-0.648,0.787c-0.198,0.309-0.381,0.625-0.549,0.949c-0.156,0.324-0.252,0.654-0.288,0.99
		c-0.006,0.018-0.009,0.063-0.009,0.135v0.108c0.03,0.168,0.094,0.318,0.193,0.45s0.206,0.252,0.319,0.359
		c0.27,0.108,0.477,0.178,0.621,0.207c0.144,0.03,0.264,0.045,0.36,0.045c0.168,0,0.279-0.009,0.333-0.026
		c0.306-0.084,0.555-0.17,0.747-0.257s0.366-0.173,0.522-0.257h-0.018c0.06-0.048,0.131-0.09,0.212-0.126
		c0.081-0.036,0.157-0.065,0.229-0.09c0.072-0.023,0.133-0.042,0.184-0.054c0.051-0.012,0.08-0.019,0.085-0.019h0.036
		c0.252,0,0.378,0.147,0.378,0.441v-0.018c-0.03,0.06-0.067,0.116-0.112,0.171c-0.045,0.054-0.119,0.123-0.221,0.207
		c-0.372,0.281-0.733,0.499-1.084,0.652c-0.351,0.152-0.751,0.229-1.201,0.229c-0.108,0-0.212-0.006-0.311-0.019
		c-0.099-0.012-0.197-0.023-0.292-0.035c-0.336-0.049-0.666-0.134-0.99-0.257c-0.324-0.123-0.594-0.329-0.81-0.616l-0.198-0.234
		c-0.054-0.102-0.095-0.208-0.122-0.319s-0.046-0.248-0.059-0.41c-0.006-0.018-0.009-0.051-0.009-0.099v-0.117
		c0.048-0.443,0.15-0.873,0.306-1.287c0.156-0.414,0.355-0.804,0.599-1.17c0.243-0.365,0.523-0.7,0.842-1.003
		c0.318-0.303,0.663-0.568,1.035-0.797c0.156-0.048,0.3-0.082,0.432-0.104c0.132-0.021,0.246-0.031,0.342-0.031
		c0.09,0,0.176,0.008,0.257,0.022s0.168,0.039,0.261,0.072c0.093,0.032,0.2,0.076,0.32,0.13c0.12,0.055,0.261,0.123,0.423,0.207
		c0.204,0.103,0.374,0.212,0.508,0.329c0.135,0.116,0.221,0.253,0.257,0.409v0.072c0.006,0.012,0.009,0.029,0.009,0.054
		c0,0.072-0.042,0.154-0.126,0.247c-0.084,0.094-0.195,0.173-0.333,0.239c-0.006,0-0.046-0.02-0.122-0.059s-0.143-0.075-0.203-0.108
		s-0.096-0.053-0.108-0.059L60.215,223.632z"/>
	<path fill="#FFFFFF" d="M66.479,222.795c0.126,0.019,0.261,0.053,0.405,0.104s0.291,0.128,0.441,0.229
		c0.15,0.103,0.295,0.231,0.437,0.387c0.141,0.156,0.274,0.352,0.4,0.585c0.054,0.108,0.095,0.221,0.122,0.338
		s0.046,0.232,0.059,0.347c0.006,0.03,0.01,0.063,0.014,0.099c0.003,0.036,0.004,0.069,0.004,0.1v0.197
		c0,0.282-0.032,0.575-0.095,0.878s-0.159,0.602-0.288,0.896c-0.129,0.294-0.294,0.58-0.495,0.859
		c-0.201,0.279-0.437,0.535-0.707,0.77c-0.24,0.186-0.522,0.319-0.846,0.4c-0.324,0.081-0.684,0.122-1.08,0.122
		c-0.138,0-0.267-0.005-0.387-0.014c-0.12-0.01-0.246-0.029-0.378-0.059c-0.48-0.078-0.873-0.201-1.179-0.369
		s-0.561-0.42-0.765-0.756v0.009c-0.12-0.174-0.202-0.334-0.248-0.481c-0.045-0.147-0.076-0.289-0.094-0.428
		c-0.006-0.018-0.009-0.057-0.009-0.117v-0.135c0-0.27,0.041-0.552,0.122-0.846s0.197-0.581,0.347-0.859
		c0.15-0.279,0.332-0.545,0.544-0.797s0.452-0.474,0.715-0.666c0.048-0.03,0.12-0.075,0.216-0.135
		c0.096-0.06,0.222-0.135,0.378-0.226c0.18-0.102,0.418-0.187,0.715-0.256s0.653-0.128,1.066-0.176H66.479z M65.926,223.569
		c-0.075,0.012-0.143,0.026-0.203,0.045c-0.252,0.06-0.492,0.163-0.72,0.311c-0.228,0.146-0.438,0.32-0.63,0.521
		c-0.192,0.201-0.366,0.422-0.522,0.662c-0.156,0.239-0.288,0.482-0.396,0.729c-0.108,0.246-0.193,0.487-0.256,0.725
		s-0.098,0.451-0.104,0.644c0,0.018,0.003,0.03,0.009,0.036c0.012,0.216,0.081,0.411,0.207,0.585s0.309,0.3,0.549,0.378
		c0.108,0.054,0.216,0.101,0.324,0.14c0.108,0.039,0.195,0.059,0.261,0.059c0.474-0.019,0.886-0.139,1.237-0.36
		s0.639-0.496,0.864-0.823s0.393-0.68,0.504-1.058c0.111-0.378,0.167-0.732,0.167-1.063c0-0.048-0.001-0.097-0.004-0.148
		c-0.003-0.051-0.008-0.1-0.014-0.148c-0.03-0.204-0.084-0.409-0.162-0.616s-0.192-0.364-0.342-0.473
		c-0.174-0.107-0.348-0.162-0.522-0.162C66.083,223.551,66,223.557,65.926,223.569z"/>
	<path fill="#FFFFFF" d="M74.615,222.732c0.078,0.077,0.117,0.194,0.117,0.351c0,0.12-0.018,0.244-0.054,0.373
		c-0.036,0.13-0.078,0.248-0.126,0.355c-0.018,0.156-0.045,0.314-0.081,0.473c-0.036,0.159-0.072,0.31-0.108,0.45
		c-0.036,0.142-0.071,0.261-0.104,0.36c-0.033,0.099-0.059,0.166-0.077,0.202c-0.018,0.061-0.042,0.142-0.072,0.243
		c-0.03,0.103-0.06,0.209-0.09,0.319c-0.03,0.111-0.059,0.219-0.086,0.324c-0.027,0.104-0.046,0.19-0.058,0.257
		c-0.024,0.102-0.045,0.183-0.063,0.242c-0.018,0.061-0.045,0.147-0.081,0.262c-0.036,0.113-0.087,0.275-0.153,0.485
		s-0.162,0.517-0.288,0.918c-0.054,0.156-0.132,0.279-0.234,0.369s-0.222,0.135-0.36,0.135c-0.12,0-0.246-0.04-0.378-0.121
		c-0.132-0.081-0.267-0.212-0.405-0.392c-0.066-0.06-0.15-0.177-0.252-0.351s-0.213-0.394-0.333-0.657s-0.241-0.568-0.364-0.913
		c-0.123-0.346-0.242-0.722-0.355-1.13l-0.036-0.027l-0.117,0.009l-0.045,0.036c-0.03,0.181-0.069,0.382-0.117,0.604
		c-0.048,0.222-0.101,0.45-0.158,0.684c-0.057,0.234-0.117,0.465-0.18,0.693c-0.063,0.228-0.122,0.439-0.176,0.635
		c-0.054,0.194-0.104,0.365-0.148,0.513s-0.08,0.254-0.104,0.319v0.045c-0.018,0.156-0.074,0.267-0.167,0.333
		c-0.093,0.066-0.2,0.1-0.319,0.1c-0.072,0-0.147-0.014-0.225-0.041c-0.078-0.027-0.147-0.066-0.207-0.117s-0.109-0.111-0.148-0.18
		c-0.039-0.069-0.059-0.146-0.059-0.229v-0.072c0-0.023,0.003-0.054,0.009-0.09c0.006-0.036,0.018-0.096,0.036-0.18
		s0.046-0.203,0.085-0.355c0.039-0.153,0.091-0.361,0.158-0.626c0.066-0.264,0.15-0.593,0.252-0.985s0.225-0.871,0.369-1.436
		c0.036-0.138,0.073-0.282,0.112-0.432c0.039-0.15,0.08-0.303,0.122-0.459c0.036-0.174,0.075-0.329,0.117-0.464
		s0.114-0.249,0.216-0.342s0.246-0.168,0.432-0.226c0.186-0.057,0.438-0.094,0.756-0.112c0.102,0.006,0.183,0.039,0.243,0.1
		c0.06,0.06,0.104,0.135,0.135,0.225c0.03,0.09,0.048,0.189,0.054,0.297c0.006,0.108,0.009,0.213,0.009,0.315v0.144
		c0,0.084,0.001,0.157,0.004,0.221c0.003,0.063,0.014,0.112,0.032,0.148c0.036,0.222,0.076,0.436,0.122,0.639
		c0.045,0.204,0.099,0.41,0.162,0.617s0.135,0.418,0.216,0.634c0.081,0.217,0.172,0.441,0.274,0.676l0.117-0.01l0.027-0.018
		c0.066-0.192,0.132-0.408,0.198-0.648c0.066-0.239,0.129-0.482,0.189-0.729s0.119-0.487,0.176-0.725
		c0.057-0.237,0.106-0.447,0.148-0.63s0.087-0.389,0.135-0.616c0.018-0.097,0.042-0.194,0.072-0.293
		c0.03-0.099,0.07-0.188,0.122-0.27c0.051-0.081,0.112-0.152,0.185-0.212c0.072-0.06,0.159-0.099,0.261-0.117L74.615,222.732z"/>
	<path fill="#FFFFFF" d="M77.415,223.173c0.138-0.054,0.28-0.098,0.427-0.13c0.147-0.033,0.292-0.05,0.437-0.05
		c0.006-0.006,0.03-0.009,0.072-0.009c0.282,0.029,0.529,0.091,0.742,0.185c0.213,0.093,0.434,0.199,0.662,0.319
		c0.192,0.102,0.334,0.186,0.428,0.252c0.093,0.065,0.157,0.149,0.193,0.252c0.012,0.03,0.021,0.067,0.027,0.112
		s0.009,0.089,0.009,0.131c0,0.12-0.03,0.22-0.09,0.301s-0.168,0.122-0.324,0.122h-0.045c-0.06-0.012-0.135-0.048-0.225-0.108
		c-0.09-0.06-0.204-0.144-0.342-0.252c-0.084-0.078-0.18-0.143-0.288-0.193c-0.108-0.051-0.218-0.09-0.329-0.117
		c-0.111-0.026-0.222-0.045-0.333-0.054c-0.111-0.009-0.211-0.014-0.302-0.014h-0.036c-0.276,0.084-0.525,0.219-0.747,0.405
		c-0.222,0.186-0.402,0.384-0.54,0.594c-0.078,0.12-0.117,0.258-0.117,0.414c0,0.174,0.048,0.328,0.144,0.464
		c0.096,0.135,0.228,0.208,0.396,0.22c0.024,0,0.039,0.004,0.045,0.01c0.216,0.09,0.429,0.166,0.639,0.229
		c0.21,0.063,0.417,0.133,0.621,0.211c0.342,0.066,0.615,0.181,0.819,0.342c0.204,0.162,0.348,0.337,0.432,0.522
		c0.012,0.048,0.022,0.102,0.031,0.162c0.009,0.06,0.017,0.102,0.022,0.126c0,0.012-0.024,0.081-0.072,0.207
		s-0.129,0.252-0.243,0.378c-0.132,0.144-0.283,0.274-0.454,0.392c-0.171,0.117-0.371,0.217-0.599,0.302
		c-0.12,0.029-0.245,0.065-0.374,0.107s-0.287,0.063-0.473,0.063c-0.048,0.006-0.098,0.01-0.148,0.013s-0.101,0.005-0.148,0.005
		c-0.198,0-0.41-0.021-0.634-0.063c-0.225-0.042-0.449-0.101-0.671-0.176c-0.222-0.075-0.435-0.162-0.639-0.261
		c-0.204-0.1-0.384-0.207-0.54-0.324c-0.156-0.117-0.281-0.24-0.374-0.369c-0.093-0.129-0.14-0.26-0.14-0.392
		s0.048-0.255,0.144-0.369l0.009-0.009c0.066-0.066,0.152-0.104,0.257-0.112s0.199-0.02,0.283-0.031v0.009
		c0.09,0.048,0.161,0.104,0.212,0.166c0.051,0.063,0.097,0.128,0.139,0.193c0.102,0.156,0.228,0.293,0.378,0.41
		s0.306,0.217,0.468,0.301c0.12,0.03,0.225,0.056,0.315,0.077c0.09,0.021,0.172,0.037,0.248,0.049
		c0.075,0.013,0.146,0.021,0.211,0.027s0.138,0.009,0.216,0.009c0.036,0,0.098-0.001,0.185-0.004s0.176-0.008,0.266-0.014
		s0.174-0.014,0.252-0.022s0.126-0.02,0.144-0.031c0.036-0.006,0.081-0.021,0.135-0.045c0.054-0.024,0.106-0.056,0.158-0.095
		c0.051-0.039,0.095-0.084,0.13-0.135c0.036-0.052,0.054-0.106,0.054-0.167v-0.036c-0.006-0.048-0.026-0.093-0.059-0.135
		c-0.033-0.042-0.101-0.087-0.203-0.135c-0.042-0.061-0.15-0.114-0.324-0.162c-0.174-0.048-0.354-0.093-0.54-0.135
		c-0.102-0.024-0.201-0.049-0.297-0.072c-0.096-0.024-0.186-0.057-0.27-0.1c-0.03-0.023-0.065-0.045-0.104-0.063
		c-0.039-0.018-0.085-0.039-0.14-0.063c-0.138-0.065-0.274-0.148-0.41-0.247c-0.135-0.099-0.256-0.21-0.364-0.333
		s-0.198-0.255-0.27-0.396c-0.072-0.141-0.111-0.283-0.117-0.427c0-0.139,0.032-0.282,0.095-0.433
		c0.063-0.149,0.143-0.314,0.238-0.495c0.114-0.21,0.303-0.426,0.567-0.647c0.264-0.222,0.567-0.414,0.909-0.576L77.415,223.173z"/>
	<path fill="#FFFFFF" d="M83.399,223.74c-0.06,0.096-0.108,0.175-0.144,0.238s-0.069,0.147-0.099,0.252
		c-0.03,0.105-0.066,0.249-0.108,0.432c-0.042,0.184-0.098,0.438-0.167,0.766s-0.159,0.747-0.27,1.26
		c-0.111,0.513-0.253,1.153-0.428,1.922v0.063c0,0.138-0.057,0.235-0.171,0.293c-0.114,0.057-0.234,0.085-0.36,0.085
		c-0.09,0-0.172-0.012-0.248-0.036c-0.075-0.023-0.122-0.054-0.14-0.09v0.009c-0.084-0.102-0.136-0.174-0.157-0.216
		s-0.032-0.093-0.032-0.152c0.006-0.013,0.014-0.032,0.022-0.059c0.009-0.027,0.024-0.089,0.045-0.185
		c0.021-0.096,0.051-0.239,0.09-0.428c0.039-0.189,0.093-0.453,0.162-0.792c0.069-0.339,0.156-0.768,0.261-1.287
		c0.105-0.519,0.232-1.153,0.383-1.903l-0.009-0.045l0.009,0.009l-0.081-0.099h-1.008c-0.132,0-0.248-0.006-0.346-0.019
		c-0.099-0.012-0.212-0.032-0.338-0.063c-0.042-0.072-0.078-0.158-0.108-0.257c-0.03-0.099-0.045-0.193-0.045-0.283
		s0.018-0.17,0.054-0.238c0.036-0.069,0.099-0.11,0.189-0.122c0.234-0.012,0.408-0.022,0.522-0.031
		c0.114-0.009,0.21-0.014,0.288-0.014h0.153c0.06,0,0.141,0.002,0.243,0.005c0.102,0.003,0.24,0.004,0.414,0.004h0.711
		c0.066-0.006,0.172-0.014,0.319-0.022s0.298-0.017,0.455-0.022c0.156-0.006,0.297-0.011,0.423-0.014s0.201-0.004,0.225-0.004
		c0.024-0.006,0.048-0.01,0.072-0.01s0.048,0,0.072,0h0.144c0.156,0,0.304,0.004,0.445,0.01s0.256,0.009,0.347,0.009
		c0.078-0.019,0.15-0.027,0.216-0.027c0.198,0,0.353,0.058,0.463,0.171c0.111,0.114,0.167,0.237,0.167,0.369
		c0,0.084-0.022,0.162-0.067,0.234s-0.119,0.126-0.22,0.162L83.399,223.74z"/>
	<path fill="#FFFFFF" d="M91.184,224.541c-0.048,0.21-0.162,0.409-0.342,0.599c-0.18,0.188-0.399,0.363-0.657,0.521
		c-0.258,0.159-0.539,0.301-0.842,0.424c-0.303,0.123-0.602,0.223-0.896,0.301l-0.054,0.055l-0.027,0.081l0.009,0.035
		c0.174,0.217,0.392,0.427,0.652,0.63c0.261,0.204,0.513,0.396,0.756,0.572c0.243,0.177,0.452,0.334,0.625,0.473
		c0.174,0.138,0.261,0.249,0.261,0.333c0,0.071-0.06,0.12-0.18,0.144c0,0.12-0.038,0.201-0.112,0.243
		c-0.075,0.042-0.167,0.081-0.274,0.117c-0.366-0.156-0.687-0.34-0.963-0.55c-0.276-0.21-0.562-0.455-0.855-0.737
		c-0.048-0.036-0.081-0.063-0.099-0.081c-0.018-0.019-0.033-0.033-0.045-0.045h0.009c-0.138-0.114-0.279-0.234-0.423-0.36
		s-0.294-0.255-0.45-0.387h-0.027c-0.06,0.132-0.126,0.294-0.198,0.485c-0.072,0.192-0.143,0.383-0.211,0.572
		c-0.069,0.188-0.132,0.358-0.189,0.508c-0.057,0.15-0.098,0.249-0.122,0.298l-0.018,0.035v0.019c0,0.113-0.03,0.208-0.09,0.283
		s-0.138,0.112-0.234,0.112h-0.018c-0.048,0-0.116-0.023-0.203-0.071c-0.087-0.049-0.146-0.085-0.175-0.108
		c-0.18-0.12-0.276-0.249-0.288-0.387v-0.072c0-0.024,0.003-0.056,0.009-0.095c0.006-0.039,0.02-0.112,0.041-0.221
		c0.021-0.107,0.053-0.262,0.095-0.463s0.102-0.478,0.18-0.828c0.078-0.352,0.175-0.791,0.292-1.318
		c0.117-0.528,0.259-1.173,0.427-1.936c0.006-0.018,0.018-0.052,0.036-0.104c0.018-0.051,0.039-0.106,0.063-0.166
		s0.051-0.118,0.081-0.176c0.03-0.057,0.06-0.104,0.09-0.14v0.01c0.066-0.091,0.146-0.158,0.239-0.203
		c0.093-0.045,0.19-0.076,0.292-0.095c0.102-0.018,0.207-0.028,0.315-0.031c0.108-0.003,0.213-0.008,0.315-0.014
		c0.378,0,0.771,0.033,1.179,0.1c0.408,0.065,0.846,0.207,1.314,0.423c0.21,0.149,0.368,0.279,0.473,0.387
		c0.105,0.108,0.169,0.246,0.193,0.414L91.184,224.541z M89.951,224.64c0.03-0.071,0.057-0.136,0.081-0.193
		c0.024-0.057,0.036-0.098,0.036-0.121c-0.006-0.042-0.024-0.084-0.054-0.126c-0.03-0.042-0.064-0.084-0.104-0.126
		s-0.08-0.08-0.121-0.112c-0.042-0.033-0.075-0.064-0.099-0.095l-0.018-0.019h0.009c-0.108-0.077-0.237-0.138-0.387-0.18
		s-0.308-0.075-0.473-0.099c-0.165-0.024-0.329-0.039-0.49-0.045c-0.162-0.006-0.306-0.01-0.432-0.01
		c-0.006,0.03-0.035,0.122-0.085,0.274c-0.051,0.153-0.106,0.329-0.167,0.527c-0.06,0.197-0.114,0.398-0.162,0.603
		s-0.072,0.372-0.072,0.504c0,0.162,0.042,0.243,0.126,0.243c0.06,0,0.138-0.039,0.234-0.117c0.18-0.012,0.346-0.026,0.5-0.045
		c0.153-0.018,0.3-0.045,0.441-0.081s0.28-0.084,0.418-0.144c0.138-0.061,0.285-0.136,0.441-0.226l0.018-0.009L89.951,224.64z"/>
	<path fill="#FFFFFF" d="M95.828,222.57c0.018-0.019,0.063-0.058,0.135-0.117c0.072-0.06,0.138-0.09,0.198-0.09
		c0.048,0,0.105,0.006,0.171,0.018c0.066,0.013,0.13,0.03,0.193,0.054c0.063,0.024,0.122,0.053,0.176,0.086
		c0.054,0.033,0.093,0.07,0.117,0.112c0.03,0.12,0.048,0.22,0.054,0.297c0.006,0.078,0.009,0.171,0.009,0.279
		c-0.042,0.372-0.106,0.756-0.193,1.152c-0.087,0.396-0.179,0.771-0.274,1.125c-0.102,0.408-0.216,0.821-0.342,1.241
		c-0.126,0.421-0.285,0.803-0.477,1.148c-0.192,0.345-0.428,0.627-0.707,0.846c-0.279,0.219-0.62,0.328-1.021,0.328H93.83
		c-0.018,0-0.03,0.003-0.036,0.009h-0.072c-0.066,0-0.13-0.001-0.193-0.004s-0.122-0.005-0.176-0.005
		c-0.06,0-0.105,0.003-0.135,0.009c-0.229,0-0.449-0.043-0.662-0.13s-0.458-0.241-0.733-0.464l-0.063-0.026
		c-0.198-0.168-0.333-0.36-0.405-0.576c-0.072-0.216-0.108-0.438-0.108-0.666c0-0.114,0.006-0.227,0.018-0.338
		c0.012-0.111,0.027-0.221,0.045-0.328c0.024-0.162,0.046-0.3,0.067-0.414s0.042-0.222,0.063-0.324
		c0.021-0.102,0.046-0.205,0.077-0.311c0.03-0.104,0.064-0.229,0.104-0.373c0.039-0.145,0.088-0.313,0.148-0.509
		s0.132-0.434,0.216-0.716c0.042-0.162,0.077-0.292,0.104-0.392c0.027-0.099,0.046-0.16,0.059-0.185v0.01l0.009-0.055
		c0.138-0.216,0.253-0.358,0.346-0.427c0.093-0.069,0.194-0.104,0.302-0.104c0.072,0.018,0.151,0.046,0.238,0.085
		s0.168,0.084,0.243,0.135c0.075,0.052,0.14,0.108,0.193,0.171c0.054,0.063,0.081,0.128,0.081,0.194v0.018
		c-0.018,0.18-0.028,0.305-0.031,0.374c-0.003,0.068-0.011,0.127-0.023,0.175c-0.012,0.048-0.028,0.105-0.049,0.171
		c-0.021,0.066-0.062,0.187-0.122,0.36s-0.139,0.422-0.238,0.742c-0.099,0.321-0.229,0.758-0.392,1.31
		c-0.066,0.229-0.119,0.436-0.158,0.621c-0.039,0.187-0.058,0.349-0.058,0.486c-0.006,0.023-0.009,0.054-0.009,0.09
		c0,0.108,0.03,0.202,0.09,0.283c0.06,0.081,0.13,0.148,0.211,0.203c0.081,0.054,0.162,0.093,0.243,0.116
		c0.081,0.024,0.146,0.036,0.194,0.036h0.045c0.036,0,0.088-0.001,0.157-0.004s0.147-0.013,0.234-0.027
		c0.087-0.015,0.175-0.037,0.265-0.067c0.09-0.03,0.171-0.072,0.243-0.126l0.027-0.036l0.333-0.441
		c0.06-0.084,0.122-0.203,0.185-0.359s0.126-0.33,0.189-0.522c0.063-0.191,0.123-0.393,0.18-0.603
		c0.057-0.21,0.109-0.414,0.157-0.612c0.084-0.342,0.146-0.622,0.185-0.842c0.039-0.219,0.074-0.424,0.104-0.616L95.828,222.57z"/>
	<path fill="#FFFFFF" d="M100.814,223.632h-0.027c-0.21,0-0.414,0.062-0.612,0.185c-0.198,0.123-0.381,0.274-0.549,0.455
		c-0.234,0.216-0.45,0.479-0.648,0.787c-0.198,0.309-0.381,0.625-0.549,0.949c-0.156,0.324-0.252,0.654-0.288,0.99
		c-0.006,0.018-0.009,0.063-0.009,0.135v0.108c0.03,0.168,0.094,0.318,0.193,0.45s0.206,0.252,0.319,0.359
		c0.27,0.108,0.477,0.178,0.621,0.207c0.144,0.03,0.264,0.045,0.36,0.045c0.168,0,0.279-0.009,0.333-0.026
		c0.306-0.084,0.555-0.17,0.747-0.257s0.366-0.173,0.522-0.257h-0.018c0.06-0.048,0.131-0.09,0.212-0.126
		c0.081-0.036,0.157-0.065,0.229-0.09c0.072-0.023,0.133-0.042,0.184-0.054c0.051-0.012,0.08-0.019,0.085-0.019h0.036
		c0.252,0,0.378,0.147,0.378,0.441v-0.018c-0.03,0.06-0.067,0.116-0.112,0.171c-0.045,0.054-0.119,0.123-0.221,0.207
		c-0.372,0.281-0.733,0.499-1.084,0.652c-0.351,0.152-0.751,0.229-1.201,0.229c-0.108,0-0.212-0.006-0.311-0.019
		c-0.099-0.012-0.197-0.023-0.292-0.035c-0.336-0.049-0.666-0.134-0.99-0.257c-0.324-0.123-0.594-0.329-0.81-0.616l-0.198-0.234
		c-0.054-0.102-0.095-0.208-0.122-0.319s-0.046-0.248-0.059-0.41c-0.006-0.018-0.009-0.051-0.009-0.099v-0.117
		c0.048-0.443,0.15-0.873,0.306-1.287c0.156-0.414,0.355-0.804,0.599-1.17c0.243-0.365,0.523-0.7,0.842-1.003
		c0.318-0.303,0.663-0.568,1.035-0.797c0.156-0.048,0.3-0.082,0.432-0.104c0.132-0.021,0.246-0.031,0.342-0.031
		c0.09,0,0.176,0.008,0.257,0.022s0.168,0.039,0.261,0.072c0.093,0.032,0.2,0.076,0.32,0.13c0.12,0.055,0.261,0.123,0.423,0.207
		c0.204,0.103,0.374,0.212,0.508,0.329c0.135,0.116,0.221,0.253,0.257,0.409v0.072c0.006,0.012,0.009,0.029,0.009,0.054
		c0,0.072-0.042,0.154-0.126,0.247c-0.084,0.094-0.195,0.173-0.333,0.239c-0.006,0-0.046-0.02-0.122-0.059s-0.143-0.075-0.203-0.108
		s-0.096-0.053-0.108-0.059L100.814,223.632z"/>
	<path fill="#FFFFFF" d="M105.521,223.74c-0.06,0.096-0.108,0.175-0.144,0.238s-0.069,0.147-0.099,0.252
		c-0.03,0.105-0.066,0.249-0.108,0.432c-0.042,0.184-0.098,0.438-0.167,0.766s-0.159,0.747-0.27,1.26
		c-0.111,0.513-0.253,1.153-0.428,1.922v0.063c0,0.138-0.057,0.235-0.171,0.293c-0.114,0.057-0.234,0.085-0.36,0.085
		c-0.09,0-0.172-0.012-0.248-0.036c-0.075-0.023-0.122-0.054-0.14-0.09v0.009c-0.084-0.102-0.136-0.174-0.157-0.216
		s-0.032-0.093-0.032-0.152c0.006-0.013,0.014-0.032,0.022-0.059c0.009-0.027,0.024-0.089,0.045-0.185
		c0.021-0.096,0.051-0.239,0.09-0.428c0.039-0.189,0.093-0.453,0.162-0.792c0.069-0.339,0.156-0.768,0.261-1.287
		c0.105-0.519,0.232-1.153,0.383-1.903l-0.009-0.045l0.009,0.009l-0.081-0.099h-1.008c-0.132,0-0.248-0.006-0.346-0.019
		c-0.099-0.012-0.212-0.032-0.338-0.063c-0.042-0.072-0.078-0.158-0.108-0.257c-0.03-0.099-0.045-0.193-0.045-0.283
		s0.018-0.17,0.054-0.238c0.036-0.069,0.099-0.11,0.189-0.122c0.234-0.012,0.408-0.022,0.522-0.031
		c0.114-0.009,0.21-0.014,0.288-0.014h0.153c0.06,0,0.141,0.002,0.243,0.005c0.102,0.003,0.24,0.004,0.414,0.004h0.711
		c0.066-0.006,0.172-0.014,0.319-0.022s0.298-0.017,0.455-0.022c0.156-0.006,0.297-0.011,0.423-0.014s0.201-0.004,0.225-0.004
		c0.024-0.006,0.048-0.01,0.072-0.01s0.048,0,0.072,0h0.144c0.156,0,0.304,0.004,0.445,0.01s0.256,0.009,0.347,0.009
		c0.078-0.019,0.15-0.027,0.216-0.027c0.198,0,0.353,0.058,0.463,0.171c0.111,0.114,0.167,0.237,0.167,0.369
		c0,0.084-0.022,0.162-0.067,0.234s-0.119,0.126-0.22,0.162L105.521,223.74z"/>
	<path fill="#FFFFFF" d="M113.306,224.541c-0.048,0.21-0.162,0.409-0.342,0.599c-0.18,0.188-0.399,0.363-0.657,0.521
		c-0.258,0.159-0.539,0.301-0.842,0.424c-0.303,0.123-0.602,0.223-0.896,0.301l-0.054,0.055l-0.027,0.081l0.009,0.035
		c0.174,0.217,0.392,0.427,0.652,0.63c0.261,0.204,0.513,0.396,0.756,0.572c0.243,0.177,0.452,0.334,0.625,0.473
		c0.174,0.138,0.261,0.249,0.261,0.333c0,0.071-0.06,0.12-0.18,0.144c0,0.12-0.038,0.201-0.112,0.243
		c-0.075,0.042-0.167,0.081-0.274,0.117c-0.366-0.156-0.687-0.34-0.963-0.55c-0.276-0.21-0.562-0.455-0.855-0.737
		c-0.048-0.036-0.081-0.063-0.099-0.081c-0.018-0.019-0.033-0.033-0.045-0.045h0.009c-0.138-0.114-0.279-0.234-0.423-0.36
		s-0.294-0.255-0.45-0.387h-0.027c-0.06,0.132-0.126,0.294-0.198,0.485c-0.072,0.192-0.143,0.383-0.211,0.572
		c-0.069,0.188-0.132,0.358-0.189,0.508c-0.057,0.15-0.098,0.249-0.122,0.298l-0.018,0.035v0.019c0,0.113-0.03,0.208-0.09,0.283
		s-0.138,0.112-0.234,0.112h-0.018c-0.048,0-0.116-0.023-0.203-0.071c-0.087-0.049-0.146-0.085-0.175-0.108
		c-0.18-0.12-0.276-0.249-0.288-0.387v-0.072c0-0.024,0.003-0.056,0.009-0.095c0.006-0.039,0.02-0.112,0.041-0.221
		c0.021-0.107,0.053-0.262,0.095-0.463s0.102-0.478,0.18-0.828c0.078-0.352,0.175-0.791,0.292-1.318
		c0.117-0.528,0.259-1.173,0.427-1.936c0.006-0.018,0.018-0.052,0.036-0.104c0.018-0.051,0.039-0.106,0.063-0.166
		s0.051-0.118,0.081-0.176c0.03-0.057,0.06-0.104,0.09-0.14v0.01c0.066-0.091,0.146-0.158,0.239-0.203
		c0.093-0.045,0.19-0.076,0.292-0.095c0.102-0.018,0.207-0.028,0.315-0.031c0.108-0.003,0.213-0.008,0.315-0.014
		c0.378,0,0.771,0.033,1.179,0.1c0.408,0.065,0.846,0.207,1.314,0.423c0.21,0.149,0.368,0.279,0.473,0.387
		c0.105,0.108,0.169,0.246,0.193,0.414L113.306,224.541z M112.073,224.64c0.03-0.071,0.057-0.136,0.081-0.193
		c0.024-0.057,0.036-0.098,0.036-0.121c-0.006-0.042-0.024-0.084-0.054-0.126c-0.03-0.042-0.064-0.084-0.104-0.126
		s-0.08-0.08-0.121-0.112c-0.042-0.033-0.075-0.064-0.099-0.095l-0.018-0.019h0.009c-0.108-0.077-0.237-0.138-0.387-0.18
		s-0.308-0.075-0.473-0.099c-0.165-0.024-0.329-0.039-0.49-0.045c-0.162-0.006-0.306-0.01-0.432-0.01
		c-0.006,0.03-0.035,0.122-0.085,0.274c-0.051,0.153-0.106,0.329-0.167,0.527c-0.06,0.197-0.114,0.398-0.162,0.603
		s-0.072,0.372-0.072,0.504c0,0.162,0.042,0.243,0.126,0.243c0.06,0,0.138-0.039,0.234-0.117c0.18-0.012,0.346-0.026,0.5-0.045
		c0.153-0.018,0.3-0.045,0.441-0.081s0.28-0.084,0.418-0.144c0.138-0.061,0.285-0.136,0.441-0.226l0.018-0.009L112.073,224.64z"/>
	<path fill="#FFFFFF" d="M113.283,226.539c-0.021-0.078-0.038-0.141-0.049-0.189v-0.063c-0.006-0.012-0.009-0.03-0.009-0.054v-0.036
		c0-0.09,0.033-0.148,0.099-0.176c0.066-0.027,0.159-0.053,0.279-0.076h-0.009c0.03-0.006,0.104-0.013,0.22-0.019
		c0.117-0.006,0.253-0.012,0.41-0.018c0.156-0.006,0.321-0.011,0.495-0.014c0.174-0.003,0.336-0.005,0.486-0.005
		c0.06,0,0.122-0.003,0.185-0.009s0.125-0.009,0.185-0.009h0.387c0.276,0,0.534,0.02,0.774,0.059c0.24,0.039,0.438,0.13,0.594,0.274
		c0.03,0.024,0.06,0.066,0.09,0.126c0.03,0.06,0.06,0.123,0.09,0.189c0,0.048-0.008,0.085-0.022,0.112
		c-0.015,0.026-0.05,0.053-0.104,0.076c-0.06,0.042-0.126,0.067-0.198,0.076c-0.072,0.01-0.186,0.014-0.342,0.014h-0.18
		c-0.048,0.013-0.153,0.022-0.315,0.031c-0.162,0.01-0.333,0.017-0.513,0.023c-0.18,0.006-0.348,0.01-0.504,0.013
		c-0.156,0.003-0.252,0.005-0.288,0.005h-0.018c-0.084,0-0.165,0.003-0.243,0.009c-0.078,0.006-0.156,0.013-0.234,0.019
		c-0.09,0-0.174,0.001-0.252,0.004c-0.078,0.003-0.153,0.005-0.225,0.005c-0.174,0-0.321-0.012-0.441-0.036
		c-0.12-0.024-0.204-0.072-0.252-0.145C113.335,226.68,113.304,226.617,113.283,226.539z"/>
	<path fill="#FFFFFF" d="M120.982,226.498c-0.138,0.052-0.285,0.098-0.441,0.14c-0.156,0.042-0.325,0.08-0.508,0.113
		c-0.183,0.032-0.389,0.064-0.617,0.094l-0.081,0.072l-0.009,0.018l0.009-0.009l-0.234,1.197c-0.042,0.15-0.063,0.303-0.063,0.459
		c-0.012,0.084-0.024,0.154-0.036,0.212c-0.012,0.057-0.033,0.104-0.063,0.139c-0.03,0.036-0.07,0.066-0.121,0.091
		c-0.051,0.023-0.119,0.045-0.203,0.063c-0.024,0.012-0.063,0.019-0.117,0.019c-0.072,0-0.151-0.017-0.238-0.05
		s-0.17-0.073-0.248-0.122c-0.078-0.048-0.143-0.099-0.193-0.152c-0.051-0.055-0.077-0.105-0.077-0.153v-0.054
		c0.012-0.156,0.033-0.324,0.063-0.504c0.03-0.181,0.063-0.349,0.099-0.504c0.096-0.469,0.186-0.917,0.27-1.346
		c0.084-0.429,0.174-0.878,0.27-1.346c0.03-0.15,0.06-0.303,0.09-0.459c0.03-0.156,0.057-0.303,0.081-0.441
		c0.048-0.216,0.099-0.41,0.153-0.585c0.054-0.174,0.159-0.342,0.315-0.504c0.078-0.071,0.167-0.129,0.266-0.171
		s0.217-0.063,0.355-0.063h0.027c0.204,0.006,0.423,0.022,0.657,0.049c0.234,0.027,0.463,0.063,0.688,0.108s0.437,0.095,0.634,0.148
		c0.198,0.054,0.363,0.111,0.495,0.171c0.342,0.156,0.593,0.339,0.751,0.549c0.159,0.21,0.253,0.468,0.284,0.774
		c0,0.408-0.165,0.759-0.495,1.053s-0.783,0.57-1.359,0.828C121.256,226.392,121.121,226.447,120.982,226.498z M119.957,225.918
		c0.3-0.114,0.586-0.229,0.86-0.347c0.273-0.117,0.513-0.236,0.72-0.359s0.372-0.249,0.495-0.378c0.123-0.13,0.185-0.266,0.185-0.41
		c0-0.156-0.093-0.324-0.279-0.504c-0.018,0-0.03-0.003-0.036-0.009c-0.018,0-0.027-0.009-0.027-0.027
		c-0.108-0.065-0.235-0.121-0.382-0.166s-0.297-0.081-0.45-0.108c-0.153-0.027-0.305-0.046-0.455-0.059
		c-0.15-0.012-0.282-0.018-0.396-0.018c-0.066,0-0.123,0.042-0.171,0.126s-0.093,0.199-0.135,0.347
		c-0.042,0.146-0.083,0.323-0.122,0.53s-0.08,0.437-0.122,0.688c-0.018,0.103-0.036,0.204-0.054,0.307
		c-0.018,0.102-0.036,0.207-0.054,0.314l0.009,0.027l0.099,0.099l0.027,0.01L119.957,225.918z"/>
	<path fill="#FFFFFF" d="M128.957,224.541c-0.048,0.21-0.162,0.409-0.342,0.599c-0.18,0.188-0.399,0.363-0.657,0.521
		c-0.258,0.159-0.539,0.301-0.842,0.424c-0.303,0.123-0.602,0.223-0.896,0.301l-0.054,0.055l-0.027,0.081l0.009,0.035
		c0.174,0.217,0.392,0.427,0.652,0.63c0.261,0.204,0.513,0.396,0.756,0.572c0.243,0.177,0.452,0.334,0.625,0.473
		c0.174,0.138,0.261,0.249,0.261,0.333c0,0.071-0.06,0.12-0.18,0.144c0,0.12-0.038,0.201-0.112,0.243
		c-0.075,0.042-0.167,0.081-0.274,0.117c-0.366-0.156-0.687-0.34-0.963-0.55c-0.276-0.21-0.562-0.455-0.855-0.737
		c-0.048-0.036-0.081-0.063-0.099-0.081c-0.018-0.019-0.033-0.033-0.045-0.045h0.009c-0.138-0.114-0.279-0.234-0.423-0.36
		s-0.294-0.255-0.45-0.387h-0.027c-0.06,0.132-0.126,0.294-0.198,0.485c-0.072,0.192-0.143,0.383-0.211,0.572
		c-0.069,0.188-0.132,0.358-0.189,0.508c-0.057,0.15-0.098,0.249-0.122,0.298l-0.018,0.035v0.019c0,0.113-0.03,0.208-0.09,0.283
		s-0.138,0.112-0.234,0.112h-0.018c-0.048,0-0.116-0.023-0.203-0.071c-0.087-0.049-0.146-0.085-0.175-0.108
		c-0.18-0.12-0.276-0.249-0.288-0.387v-0.072c0-0.024,0.003-0.056,0.009-0.095c0.006-0.039,0.02-0.112,0.041-0.221
		c0.021-0.107,0.053-0.262,0.095-0.463s0.102-0.478,0.18-0.828c0.078-0.352,0.175-0.791,0.292-1.318
		c0.117-0.528,0.259-1.173,0.427-1.936c0.006-0.018,0.018-0.052,0.036-0.104c0.018-0.051,0.039-0.106,0.063-0.166
		s0.051-0.118,0.081-0.176c0.03-0.057,0.06-0.104,0.09-0.14v0.01c0.066-0.091,0.146-0.158,0.239-0.203
		c0.093-0.045,0.19-0.076,0.292-0.095c0.102-0.018,0.207-0.028,0.315-0.031c0.108-0.003,0.213-0.008,0.315-0.014
		c0.378,0,0.771,0.033,1.179,0.1c0.408,0.065,0.846,0.207,1.314,0.423c0.21,0.149,0.368,0.279,0.473,0.387
		c0.105,0.108,0.169,0.246,0.193,0.414L128.957,224.541z M127.724,224.64c0.03-0.071,0.057-0.136,0.081-0.193
		c0.024-0.057,0.036-0.098,0.036-0.121c-0.006-0.042-0.024-0.084-0.054-0.126c-0.03-0.042-0.064-0.084-0.104-0.126
		s-0.08-0.08-0.121-0.112c-0.042-0.033-0.075-0.064-0.099-0.095l-0.018-0.019h0.009c-0.108-0.077-0.237-0.138-0.387-0.18
		s-0.308-0.075-0.473-0.099c-0.165-0.024-0.329-0.039-0.49-0.045c-0.162-0.006-0.306-0.01-0.432-0.01
		c-0.006,0.03-0.035,0.122-0.085,0.274c-0.051,0.153-0.106,0.329-0.167,0.527c-0.06,0.197-0.114,0.398-0.162,0.603
		s-0.072,0.372-0.072,0.504c0,0.162,0.042,0.243,0.126,0.243c0.06,0,0.138-0.039,0.234-0.117c0.18-0.012,0.346-0.026,0.5-0.045
		c0.153-0.018,0.3-0.045,0.441-0.081s0.28-0.084,0.418-0.144c0.138-0.061,0.285-0.136,0.441-0.226l0.018-0.009L127.724,224.64z"/>
	<path fill="#FFFFFF" d="M133.654,222.795c0.127,0.019,0.262,0.053,0.405,0.104s0.291,0.128,0.44,0.229
		c0.15,0.103,0.296,0.231,0.438,0.387c0.141,0.156,0.273,0.352,0.4,0.585c0.054,0.108,0.094,0.221,0.121,0.338
		s0.047,0.232,0.059,0.347c0.006,0.03,0.01,0.063,0.014,0.099c0.003,0.036,0.004,0.069,0.004,0.1v0.197
		c0,0.282-0.031,0.575-0.094,0.878c-0.063,0.303-0.159,0.602-0.289,0.896c-0.129,0.294-0.293,0.58-0.494,0.859
		s-0.437,0.535-0.707,0.77c-0.24,0.186-0.521,0.319-0.846,0.4s-0.684,0.122-1.08,0.122c-0.139,0-0.268-0.005-0.387-0.014
		c-0.12-0.01-0.246-0.029-0.378-0.059c-0.48-0.078-0.873-0.201-1.179-0.369c-0.307-0.168-0.562-0.42-0.766-0.756v0.009
		c-0.12-0.174-0.202-0.334-0.248-0.481c-0.045-0.147-0.076-0.289-0.094-0.428c-0.006-0.018-0.009-0.057-0.009-0.117v-0.135
		c0-0.27,0.041-0.552,0.122-0.846s0.197-0.581,0.347-0.859c0.15-0.279,0.332-0.545,0.545-0.797c0.213-0.252,0.451-0.474,0.715-0.666
		c0.049-0.03,0.12-0.075,0.217-0.135c0.096-0.06,0.221-0.135,0.377-0.226c0.181-0.102,0.419-0.187,0.716-0.256
		s0.653-0.128,1.066-0.176H133.654z M133.102,223.569c-0.076,0.012-0.143,0.026-0.203,0.045c-0.252,0.06-0.492,0.163-0.72,0.311
		c-0.228,0.146-0.438,0.32-0.63,0.521c-0.192,0.201-0.366,0.422-0.522,0.662c-0.155,0.239-0.288,0.482-0.396,0.729
		c-0.108,0.246-0.193,0.487-0.257,0.725s-0.098,0.451-0.104,0.644c0,0.018,0.003,0.03,0.009,0.036
		c0.012,0.216,0.081,0.411,0.207,0.585s0.309,0.3,0.549,0.378c0.108,0.054,0.217,0.101,0.324,0.14
		c0.108,0.039,0.195,0.059,0.262,0.059c0.473-0.019,0.886-0.139,1.236-0.36c0.352-0.222,0.64-0.496,0.865-0.823
		c0.225-0.327,0.393-0.68,0.504-1.058c0.11-0.378,0.166-0.732,0.166-1.063c0-0.048-0.002-0.097-0.004-0.148
		c-0.004-0.051-0.008-0.1-0.014-0.148c-0.031-0.204-0.084-0.409-0.162-0.616s-0.192-0.364-0.342-0.473
		c-0.175-0.107-0.349-0.162-0.522-0.162C133.258,223.551,133.176,223.557,133.102,223.569z"/>
	<path fill="#FFFFFF" d="M139.738,222.588c0.03-0.006,0.061-0.011,0.09-0.014c0.03-0.003,0.069-0.004,0.117-0.004
		c0.09,0,0.186,0.017,0.288,0.049c0.103,0.033,0.204,0.08,0.306,0.14c0.049,0.03,0.072,0.126,0.072,0.288
		c-0.048,0.258-0.096,0.487-0.144,0.688s-0.095,0.397-0.14,0.59s-0.089,0.389-0.131,0.589c-0.041,0.201-0.08,0.428-0.117,0.68
		c-0.035,0.181-0.074,0.385-0.117,0.612c-0.041,0.229-0.092,0.489-0.152,0.783c-0.066,0.702-0.274,1.223-0.625,1.562
		c-0.352,0.339-0.788,0.508-1.311,0.508c-0.27,0-0.557-0.045-0.859-0.135s-0.616-0.222-0.939-0.396
		c-0.175-0.036-0.314-0.122-0.419-0.257s-0.157-0.274-0.157-0.419v-0.018c0.048-0.198,0.113-0.338,0.197-0.418
		c0.084-0.081,0.18-0.122,0.288-0.122c0.103,0,0.207,0.028,0.315,0.086c0.107,0.057,0.213,0.123,0.314,0.197
		c0.102,0.075,0.203,0.155,0.302,0.239s0.19,0.152,0.274,0.207c0.126,0.102,0.258,0.152,0.396,0.152
		c0.125,0,0.242-0.039,0.351-0.117c0.108-0.077,0.202-0.172,0.284-0.283c0.08-0.11,0.144-0.23,0.188-0.359
		c0.045-0.13,0.067-0.248,0.067-0.356v-0.054c0.156-0.936,0.282-1.688,0.378-2.254c0.097-0.567,0.182-1.005,0.257-1.314
		c0.074-0.309,0.145-0.518,0.211-0.625c0.066-0.108,0.15-0.172,0.252-0.189L139.738,222.588z"/>
	<path fill="#FFFFFF" d="M141.403,223.596c0.042-0.186,0.079-0.334,0.112-0.445c0.033-0.11,0.078-0.196,0.135-0.257
		c0.057-0.06,0.134-0.099,0.23-0.116c0.096-0.019,0.225-0.027,0.387-0.027c0.065,0.006,0.129,0.009,0.188,0.009
		c0.065,0,0.123,0,0.171,0h0.702c0.132,0,0.296,0.003,0.491,0.009c0.194,0.007,0.396,0.014,0.607,0.022
		c0.209,0.01,0.416,0.02,0.621,0.032c0.203,0.012,0.383,0.021,0.539,0.026c0.12,0.013,0.223,0.024,0.307,0.036
		c0.084,0.013,0.152,0.028,0.207,0.05c0.054,0.021,0.099,0.05,0.135,0.085c0.036,0.036,0.068,0.085,0.099,0.145v0.072
		c0,0.054-0.023,0.109-0.071,0.166c-0.049,0.058-0.142,0.101-0.279,0.131c-0.006,0-0.019,0.009-0.036,0.026
		c-0.006,0.007-0.036,0.01-0.09,0.01h-0.343l-1.691,0.071h-0.359c-0.061,0-0.108,0.002-0.145,0.005s-0.07,0.006-0.104,0.009
		s-0.067,0.006-0.104,0.009c-0.036,0.004-0.087,0.008-0.152,0.014l-0.046,0.019l-0.026,0.018h0.008
		c-0.018,0.048-0.045,0.137-0.08,0.266c-0.036,0.129-0.074,0.267-0.113,0.414s-0.074,0.286-0.107,0.418
		c-0.033,0.133-0.056,0.226-0.067,0.279l0.009,0.036l0.063,0.09c0.139,0.019,0.321,0.028,0.55,0.031
		c0.228,0.004,0.456,0.005,0.684,0.005h1.009c0.174,0,0.332,0.014,0.477,0.041c0.145,0.026,0.23,0.1,0.261,0.22v0.171
		c0,0.085-0.019,0.165-0.054,0.243c-0.036,0.078-0.135,0.129-0.297,0.153c-0.018,0-0.055,0.002-0.108,0.005
		s-0.112,0.007-0.175,0.013c-0.063,0.007-0.123,0.011-0.181,0.014s-0.098,0.005-0.122,0.005c-0.252,0.023-0.465,0.043-0.639,0.059
		c-0.174,0.015-0.325,0.026-0.454,0.036c-0.13,0.009-0.243,0.015-0.343,0.018c-0.098,0.003-0.195,0.005-0.292,0.005h-0.188
		c-0.03,0-0.063,0-0.1,0c-0.029,0-0.066-0.003-0.107-0.01h-0.172l-0.053,0.019h-0.01l-0.018,0.009
		c-0.019,0.048-0.047,0.148-0.086,0.302c-0.039,0.152-0.078,0.317-0.117,0.495c-0.039,0.177-0.074,0.35-0.107,0.518
		s-0.053,0.291-0.059,0.368l0.009,0.036l0.081,0.081l0.036,0.009c0.216-0.029,0.437-0.051,0.661-0.063s0.449-0.024,0.671-0.036
		c0.048,0,0.108-0.003,0.18-0.009c0.072-0.006,0.144-0.011,0.216-0.014s0.135-0.008,0.189-0.014
		c0.054-0.006,0.087-0.009,0.099-0.009c0.024,0,0.046,0.002,0.063,0.005s0.039,0.004,0.063,0.004c0.139,0,0.279-0.012,0.424-0.036
		c0.144-0.023,0.281-0.036,0.414-0.036c0.102,0.013,0.219,0.027,0.35,0.046c0.133,0.018,0.229,0.06,0.289,0.126h0.045
		c0.006,0.035,0.009,0.068,0.009,0.099c0,0.024,0,0.048,0,0.072c0,0.065-0.008,0.115-0.022,0.148
		c-0.016,0.033-0.041,0.067-0.076,0.104c-0.013,0.012-0.045,0.026-0.1,0.045c-0.054,0.018-0.145,0.033-0.27,0.045l-2.781,0.396
		h-0.018c-0.192,0.03-0.355,0.058-0.491,0.081c-0.135,0.024-0.286,0.036-0.454,0.036c-0.055,0-0.115-0.02-0.185-0.059
		s-0.143-0.087-0.221-0.144c-0.078-0.058-0.157-0.117-0.238-0.18c-0.081-0.063-0.157-0.119-0.229-0.167L141.403,223.596z"/>
	<path fill="#FFFFFF" d="M150.277,223.632h-0.026c-0.211,0-0.414,0.062-0.612,0.185s-0.381,0.274-0.549,0.455
		c-0.234,0.216-0.45,0.479-0.648,0.787s-0.381,0.625-0.549,0.949c-0.156,0.324-0.252,0.654-0.288,0.99
		c-0.006,0.018-0.009,0.063-0.009,0.135v0.108c0.029,0.168,0.095,0.318,0.193,0.45s0.205,0.252,0.319,0.359
		c0.271,0.108,0.478,0.178,0.621,0.207c0.144,0.03,0.264,0.045,0.36,0.045c0.168,0,0.278-0.009,0.333-0.026
		c0.306-0.084,0.555-0.17,0.747-0.257c0.191-0.087,0.365-0.173,0.521-0.257h-0.018c0.06-0.048,0.13-0.09,0.211-0.126
		s0.158-0.065,0.229-0.09c0.072-0.023,0.134-0.042,0.185-0.054s0.08-0.019,0.086-0.019h0.036c0.252,0,0.378,0.147,0.378,0.441
		v-0.018c-0.03,0.06-0.067,0.116-0.113,0.171c-0.045,0.054-0.118,0.123-0.22,0.207c-0.372,0.281-0.733,0.499-1.085,0.652
		c-0.351,0.152-0.751,0.229-1.201,0.229c-0.108,0-0.212-0.006-0.311-0.019c-0.1-0.012-0.196-0.023-0.293-0.035
		c-0.336-0.049-0.666-0.134-0.989-0.257c-0.324-0.123-0.595-0.329-0.811-0.616l-0.198-0.234c-0.054-0.102-0.094-0.208-0.121-0.319
		s-0.047-0.248-0.059-0.41c-0.006-0.018-0.009-0.051-0.009-0.099v-0.117c0.048-0.443,0.149-0.873,0.306-1.287
		s0.355-0.804,0.599-1.17c0.243-0.365,0.523-0.7,0.842-1.003c0.317-0.303,0.663-0.568,1.035-0.797
		c0.155-0.048,0.3-0.082,0.432-0.104c0.132-0.021,0.246-0.031,0.342-0.031c0.09,0,0.176,0.008,0.257,0.022s0.168,0.039,0.261,0.072
		c0.093,0.032,0.199,0.076,0.319,0.13c0.12,0.055,0.262,0.123,0.423,0.207c0.204,0.103,0.374,0.212,0.509,0.329
		c0.135,0.116,0.221,0.253,0.257,0.409v0.072c0.006,0.012,0.009,0.029,0.009,0.054c0,0.072-0.042,0.154-0.126,0.247
		c-0.084,0.094-0.195,0.173-0.333,0.239c-0.006,0-0.047-0.02-0.121-0.059c-0.075-0.039-0.143-0.075-0.203-0.108
		c-0.06-0.033-0.096-0.053-0.107-0.059L150.277,223.632z"/>
	<path fill="#FFFFFF" d="M154.983,223.74c-0.06,0.096-0.107,0.175-0.144,0.238s-0.069,0.147-0.099,0.252
		c-0.03,0.105-0.066,0.249-0.108,0.432c-0.042,0.184-0.098,0.438-0.167,0.766c-0.068,0.327-0.158,0.747-0.27,1.26
		s-0.254,1.153-0.428,1.922v0.063c0,0.138-0.057,0.235-0.171,0.293c-0.114,0.057-0.233,0.085-0.36,0.085
		c-0.09,0-0.172-0.012-0.247-0.036c-0.075-0.023-0.121-0.054-0.14-0.09v0.009c-0.084-0.102-0.137-0.174-0.157-0.216
		c-0.021-0.042-0.031-0.093-0.031-0.152c0.006-0.013,0.013-0.032,0.022-0.059c0.009-0.027,0.023-0.089,0.045-0.185
		c0.021-0.096,0.051-0.239,0.09-0.428c0.039-0.189,0.093-0.453,0.162-0.792c0.068-0.339,0.156-0.768,0.261-1.287
		c0.105-0.519,0.232-1.153,0.383-1.903l-0.009-0.045l0.009,0.009l-0.081-0.099h-1.008c-0.133,0-0.248-0.006-0.347-0.019
		c-0.1-0.012-0.212-0.032-0.338-0.063c-0.042-0.072-0.078-0.158-0.107-0.257c-0.03-0.099-0.045-0.193-0.045-0.283
		s0.018-0.17,0.054-0.238c0.036-0.069,0.099-0.11,0.188-0.122c0.234-0.012,0.408-0.022,0.522-0.031s0.21-0.014,0.288-0.014h0.152
		c0.061,0,0.142,0.002,0.243,0.005c0.103,0.003,0.24,0.004,0.414,0.004h0.711c0.066-0.006,0.173-0.014,0.319-0.022
		c0.147-0.009,0.299-0.017,0.455-0.022s0.297-0.011,0.423-0.014s0.201-0.004,0.225-0.004c0.024-0.006,0.049-0.01,0.072-0.01
		c0.024,0,0.048,0,0.072,0h0.144c0.156,0,0.305,0.004,0.446,0.01c0.141,0.006,0.256,0.009,0.346,0.009
		c0.078-0.019,0.15-0.027,0.217-0.027c0.197,0,0.352,0.058,0.463,0.171c0.111,0.114,0.167,0.237,0.167,0.369
		c0,0.084-0.022,0.162-0.067,0.234c-0.046,0.072-0.119,0.126-0.221,0.162L154.983,223.74z"/>
</g>
<g>
	<path fill="#FFFFFF" d="M224.706,157.379c-0.054-0.139-0.098-0.281-0.13-0.428c-0.033-0.146-0.05-0.293-0.05-0.437
		c-0.006-0.006-0.009-0.03-0.009-0.072c0.029-0.282,0.091-0.529,0.185-0.742c0.093-0.213,0.199-0.434,0.319-0.661
		c0.102-0.192,0.186-0.335,0.252-0.428c0.065-0.094,0.149-0.158,0.252-0.193c0.03-0.012,0.067-0.021,0.112-0.027
		s0.089-0.01,0.131-0.01c0.12,0,0.22,0.031,0.301,0.091s0.122,0.168,0.122,0.323v0.045c-0.012,0.061-0.048,0.136-0.108,0.226
		c-0.06,0.09-0.144,0.204-0.252,0.343c-0.078,0.084-0.143,0.18-0.193,0.287c-0.051,0.108-0.09,0.218-0.117,0.328
		c-0.026,0.111-0.045,0.223-0.054,0.334s-0.014,0.211-0.014,0.301v0.036c0.084,0.276,0.219,0.525,0.405,0.747
		c0.186,0.223,0.384,0.402,0.594,0.54c0.12,0.078,0.258,0.117,0.414,0.117c0.174,0,0.328-0.048,0.464-0.144
		c0.135-0.097,0.208-0.229,0.22-0.396c0-0.023,0.004-0.039,0.01-0.045c0.09-0.217,0.166-0.43,0.229-0.639
		c0.063-0.211,0.133-0.418,0.211-0.621c0.066-0.342,0.181-0.615,0.342-0.819c0.162-0.204,0.337-0.349,0.522-0.433
		c0.048-0.012,0.102-0.021,0.162-0.031c0.06-0.009,0.102-0.016,0.126-0.021c0.012,0,0.081,0.023,0.207,0.071
		s0.252,0.129,0.378,0.243c0.144,0.132,0.274,0.283,0.392,0.454s0.217,0.37,0.302,0.599c0.029,0.12,0.065,0.244,0.107,0.373
		s0.063,0.287,0.063,0.473c0.006,0.049,0.01,0.098,0.013,0.148s0.005,0.102,0.005,0.148c0,0.199-0.021,0.41-0.063,0.635
		c-0.042,0.225-0.101,0.449-0.176,0.671s-0.162,0.435-0.261,0.639c-0.1,0.204-0.207,0.384-0.324,0.54s-0.24,0.281-0.369,0.373
		c-0.129,0.094-0.26,0.141-0.392,0.141s-0.255-0.049-0.369-0.145l-0.009-0.009c-0.066-0.066-0.104-0.151-0.112-0.257
		s-0.02-0.199-0.031-0.283h0.009c0.048-0.09,0.104-0.16,0.166-0.212c0.063-0.051,0.128-0.097,0.193-0.14
		c0.156-0.102,0.293-0.228,0.41-0.377c0.117-0.15,0.217-0.307,0.301-0.469c0.03-0.119,0.056-0.225,0.077-0.314
		c0.021-0.09,0.037-0.173,0.049-0.248c0.013-0.074,0.021-0.146,0.027-0.211c0.006-0.066,0.009-0.139,0.009-0.217
		c0-0.035-0.001-0.098-0.004-0.184c-0.003-0.088-0.008-0.176-0.014-0.266s-0.014-0.174-0.022-0.252s-0.02-0.127-0.031-0.145
		c-0.006-0.036-0.021-0.081-0.045-0.135c-0.024-0.055-0.056-0.106-0.095-0.158c-0.039-0.051-0.084-0.094-0.135-0.13
		c-0.052-0.036-0.106-0.054-0.167-0.054h-0.036c-0.048,0.006-0.093,0.025-0.135,0.059s-0.087,0.1-0.135,0.202
		c-0.061,0.042-0.114,0.149-0.162,0.323c-0.048,0.175-0.093,0.354-0.135,0.541c-0.024,0.102-0.049,0.201-0.072,0.297
		c-0.024,0.096-0.057,0.186-0.1,0.27c-0.023,0.03-0.045,0.064-0.063,0.104s-0.039,0.086-0.063,0.14
		c-0.065,0.138-0.148,0.274-0.247,0.409s-0.21,0.257-0.333,0.365c-0.123,0.107-0.255,0.197-0.396,0.27
		c-0.141,0.072-0.283,0.111-0.427,0.117c-0.139,0-0.282-0.031-0.433-0.095c-0.149-0.063-0.314-0.143-0.495-0.238
		c-0.21-0.114-0.426-0.304-0.647-0.567s-0.414-0.566-0.576-0.908L224.706,157.379z"/>
	<path fill="#FFFFFF" d="M225.273,151.394c0.096,0.06,0.175,0.108,0.238,0.144c0.063,0.037,0.147,0.07,0.252,0.1
		c0.105,0.03,0.249,0.066,0.432,0.107c0.184,0.043,0.438,0.098,0.766,0.167s0.747,0.159,1.26,0.271s1.153,0.253,1.922,0.428h0.063
		c0.138,0,0.235,0.057,0.293,0.17c0.057,0.114,0.085,0.234,0.085,0.36c0,0.09-0.012,0.173-0.036,0.247
		c-0.023,0.076-0.054,0.122-0.09,0.141h0.009c-0.102,0.084-0.174,0.136-0.216,0.156c-0.042,0.021-0.093,0.032-0.152,0.032
		c-0.013-0.006-0.032-0.014-0.059-0.022c-0.027-0.01-0.089-0.023-0.185-0.045s-0.239-0.051-0.428-0.09
		c-0.189-0.039-0.453-0.094-0.792-0.162c-0.339-0.069-0.768-0.156-1.287-0.262c-0.519-0.104-1.153-0.232-1.903-0.383l-0.045,0.01
		l0.009-0.01l-0.099,0.082v1.008c0,0.132-0.006,0.248-0.019,0.346c-0.012,0.1-0.032,0.213-0.063,0.338
		c-0.072,0.042-0.158,0.078-0.257,0.108s-0.193,0.045-0.283,0.045s-0.17-0.019-0.238-0.054c-0.069-0.036-0.11-0.1-0.122-0.189
		c-0.012-0.234-0.022-0.408-0.031-0.521c-0.009-0.114-0.014-0.211-0.014-0.289v-0.152c0-0.061,0.002-0.141,0.005-0.243
		c0.003-0.102,0.004-0.239,0.004-0.414v-0.711c-0.006-0.065-0.014-0.173-0.022-0.319s-0.017-0.299-0.022-0.455
		c-0.006-0.155-0.011-0.297-0.014-0.422c-0.003-0.127-0.004-0.201-0.004-0.226c-0.006-0.024-0.01-0.048-0.01-0.071
		c0-0.024,0-0.049,0-0.072v-0.145c0-0.156,0.004-0.305,0.01-0.445s0.009-0.256,0.009-0.347c-0.019-0.077-0.027-0.149-0.027-0.216
		c0-0.198,0.058-0.353,0.171-0.463c0.114-0.111,0.237-0.167,0.369-0.167c0.084,0,0.162,0.022,0.234,0.067s0.126,0.119,0.162,0.221
		L225.273,151.394z"/>
	<path fill="#FFFFFF" d="M226.074,143.608c0.21,0.048,0.409,0.162,0.599,0.343c0.188,0.18,0.363,0.398,0.521,0.656
		c0.159,0.258,0.301,0.539,0.424,0.842s0.223,0.602,0.301,0.896l0.055,0.054l0.081,0.027l0.035-0.01
		c0.217-0.174,0.427-0.391,0.63-0.652c0.204-0.261,0.396-0.513,0.572-0.756c0.177-0.242,0.334-0.451,0.473-0.625
		c0.138-0.174,0.249-0.262,0.333-0.262c0.071,0,0.12,0.061,0.144,0.181c0.12,0,0.201,0.038,0.243,0.112
		c0.042,0.075,0.081,0.166,0.117,0.274c-0.156,0.366-0.34,0.687-0.55,0.963s-0.455,0.562-0.737,0.855
		c-0.036,0.048-0.063,0.081-0.081,0.099c-0.019,0.018-0.033,0.033-0.045,0.045v-0.009c-0.114,0.138-0.234,0.278-0.36,0.423
		s-0.255,0.295-0.387,0.45v0.026c0.132,0.061,0.294,0.127,0.485,0.199c0.192,0.071,0.383,0.143,0.572,0.211
		c0.188,0.068,0.358,0.132,0.508,0.189c0.15,0.057,0.249,0.098,0.298,0.121l0.035,0.018h0.019c0.113,0,0.208,0.03,0.283,0.09
		c0.075,0.061,0.112,0.139,0.112,0.234v0.018c0,0.049-0.023,0.116-0.071,0.203c-0.049,0.087-0.085,0.146-0.108,0.176
		c-0.12,0.18-0.249,0.275-0.387,0.287h-0.072c-0.024,0-0.056-0.002-0.095-0.008c-0.039-0.007-0.112-0.02-0.221-0.041
		c-0.107-0.021-0.262-0.053-0.463-0.095s-0.478-0.103-0.828-0.181c-0.352-0.077-0.791-0.175-1.318-0.292
		c-0.528-0.116-1.173-0.259-1.936-0.427c-0.018-0.006-0.052-0.019-0.104-0.037c-0.051-0.018-0.106-0.039-0.166-0.063
		s-0.118-0.051-0.176-0.081c-0.057-0.03-0.104-0.06-0.14-0.09h0.01c-0.091-0.065-0.158-0.146-0.203-0.239
		c-0.045-0.092-0.076-0.189-0.095-0.292c-0.018-0.102-0.028-0.206-0.031-0.315c-0.003-0.107-0.008-0.213-0.014-0.314
		c0-0.378,0.033-0.771,0.1-1.179c0.065-0.408,0.207-0.847,0.423-1.313c0.149-0.211,0.279-0.368,0.387-0.473
		c0.108-0.105,0.246-0.17,0.414-0.194L226.074,143.608z M226.173,144.842c-0.071-0.03-0.136-0.057-0.193-0.081
		c-0.057-0.024-0.098-0.036-0.121-0.036c-0.042,0.006-0.084,0.023-0.126,0.055c-0.042,0.029-0.084,0.064-0.126,0.104
		s-0.08,0.079-0.112,0.121c-0.033,0.041-0.064,0.074-0.095,0.099l-0.019,0.019v-0.01c-0.077,0.108-0.138,0.237-0.18,0.387
		c-0.042,0.15-0.075,0.309-0.099,0.473c-0.024,0.166-0.039,0.329-0.045,0.49c-0.006,0.162-0.01,0.307-0.01,0.433
		c0.03,0.006,0.122,0.034,0.274,0.085c0.153,0.052,0.329,0.107,0.527,0.167c0.197,0.06,0.398,0.114,0.603,0.162
		s0.372,0.071,0.504,0.071c0.162,0,0.243-0.041,0.243-0.125c0-0.061-0.039-0.139-0.117-0.234c-0.012-0.18-0.026-0.346-0.045-0.5
		c-0.018-0.152-0.045-0.299-0.081-0.44s-0.084-0.28-0.144-0.419c-0.061-0.138-0.136-0.285-0.226-0.44l-0.009-0.019L226.173,144.842z
		"/>
	<path fill="#FFFFFF" d="M224.104,138.965c-0.019-0.019-0.058-0.063-0.117-0.136c-0.06-0.071-0.09-0.138-0.09-0.197
		c0-0.049,0.006-0.105,0.018-0.172c0.013-0.065,0.03-0.13,0.054-0.193c0.024-0.063,0.053-0.121,0.086-0.175
		c0.033-0.055,0.07-0.094,0.112-0.117c0.12-0.03,0.22-0.048,0.297-0.055c0.078-0.006,0.171-0.009,0.279-0.009
		c0.372,0.042,0.756,0.106,1.152,0.193c0.396,0.088,0.771,0.179,1.125,0.275c0.408,0.102,0.821,0.216,1.241,0.342
		c0.421,0.126,0.803,0.285,1.148,0.477c0.345,0.192,0.627,0.428,0.846,0.707c0.219,0.278,0.328,0.619,0.328,1.021v0.035
		c0,0.019,0.003,0.03,0.009,0.036v0.072c0,0.066-0.001,0.131-0.004,0.193c-0.003,0.063-0.005,0.122-0.005,0.176
		c0,0.06,0.003,0.105,0.009,0.135c0,0.229-0.043,0.449-0.13,0.662s-0.241,0.457-0.464,0.733l-0.026,0.063
		c-0.168,0.198-0.36,0.333-0.576,0.405s-0.438,0.107-0.666,0.107c-0.114,0-0.227-0.006-0.338-0.018s-0.221-0.027-0.328-0.045
		c-0.162-0.024-0.3-0.047-0.414-0.067c-0.114-0.021-0.222-0.042-0.324-0.063c-0.102-0.021-0.205-0.046-0.311-0.076
		c-0.104-0.03-0.229-0.064-0.373-0.104c-0.145-0.039-0.313-0.089-0.509-0.148s-0.434-0.132-0.716-0.216
		c-0.162-0.042-0.292-0.077-0.392-0.104c-0.099-0.027-0.16-0.047-0.185-0.059h0.01l-0.055-0.009
		c-0.216-0.139-0.358-0.254-0.427-0.347c-0.069-0.093-0.104-0.193-0.104-0.302c0.018-0.072,0.046-0.151,0.085-0.238
		s0.084-0.168,0.135-0.243c0.052-0.075,0.108-0.14,0.171-0.193c0.063-0.054,0.128-0.081,0.194-0.081h0.018
		c0.18,0.018,0.305,0.028,0.374,0.031c0.068,0.003,0.127,0.011,0.175,0.022c0.048,0.013,0.105,0.029,0.171,0.05
		c0.066,0.021,0.187,0.062,0.36,0.121c0.174,0.061,0.422,0.14,0.742,0.239c0.321,0.099,0.758,0.229,1.31,0.391
		c0.229,0.066,0.436,0.119,0.621,0.158c0.187,0.039,0.349,0.059,0.486,0.059c0.023,0.006,0.054,0.009,0.09,0.009
		c0.108,0,0.202-0.03,0.283-0.09c0.081-0.061,0.148-0.131,0.203-0.212c0.054-0.081,0.093-0.162,0.116-0.243
		c0.024-0.081,0.036-0.146,0.036-0.193v-0.045c0-0.036-0.001-0.088-0.004-0.157s-0.013-0.147-0.027-0.234s-0.037-0.176-0.067-0.266
		s-0.072-0.171-0.126-0.242l-0.036-0.027l-0.441-0.333c-0.084-0.06-0.203-0.122-0.359-0.185c-0.156-0.063-0.33-0.126-0.522-0.189
		c-0.191-0.063-0.393-0.122-0.603-0.18c-0.21-0.057-0.414-0.109-0.612-0.157c-0.342-0.084-0.622-0.146-0.842-0.185
		c-0.219-0.039-0.424-0.073-0.616-0.104L224.104,138.965z"/>
	<path fill="#FFFFFF" d="M225.165,133.979v0.026c0,0.211,0.062,0.414,0.185,0.612s0.274,0.381,0.455,0.549
		c0.216,0.234,0.479,0.45,0.787,0.648s0.625,0.381,0.949,0.549c0.324,0.156,0.654,0.252,0.99,0.288
		c0.018,0.006,0.063,0.009,0.135,0.009h0.108c0.168-0.029,0.318-0.095,0.45-0.193s0.252-0.205,0.359-0.319
		c0.108-0.271,0.178-0.478,0.207-0.621c0.03-0.144,0.045-0.264,0.045-0.36c0-0.168-0.009-0.278-0.026-0.333
		c-0.084-0.306-0.17-0.555-0.257-0.747c-0.087-0.191-0.173-0.365-0.257-0.521v0.018c-0.048-0.06-0.09-0.13-0.126-0.211
		s-0.065-0.158-0.09-0.229c-0.023-0.072-0.042-0.134-0.054-0.185s-0.019-0.08-0.019-0.086v-0.036c0-0.252,0.147-0.378,0.441-0.378
		h-0.018c0.06,0.03,0.116,0.067,0.171,0.113c0.054,0.045,0.123,0.118,0.207,0.22c0.281,0.372,0.499,0.733,0.652,1.085
		c0.152,0.351,0.229,0.751,0.229,1.201c0,0.108-0.006,0.212-0.019,0.311c-0.012,0.1-0.023,0.196-0.035,0.293
		c-0.049,0.336-0.134,0.666-0.257,0.989c-0.123,0.324-0.329,0.595-0.616,0.811l-0.234,0.198c-0.102,0.054-0.208,0.094-0.319,0.121
		s-0.248,0.047-0.41,0.059c-0.018,0.006-0.051,0.009-0.099,0.009h-0.117c-0.443-0.048-0.873-0.149-1.287-0.306
		s-0.804-0.355-1.17-0.599c-0.365-0.243-0.7-0.523-1.003-0.842c-0.303-0.317-0.568-0.663-0.797-1.035
		c-0.048-0.155-0.082-0.3-0.104-0.432c-0.021-0.132-0.031-0.246-0.031-0.342c0-0.09,0.008-0.176,0.022-0.257
		s0.039-0.168,0.072-0.261c0.032-0.093,0.076-0.199,0.13-0.319c0.055-0.12,0.123-0.262,0.207-0.423
		c0.103-0.204,0.212-0.374,0.329-0.509c0.116-0.135,0.253-0.221,0.409-0.257h0.072c0.012-0.006,0.029-0.009,0.054-0.009
		c0.072,0,0.154,0.042,0.247,0.126c0.094,0.084,0.173,0.195,0.239,0.333c0,0.006-0.02,0.047-0.059,0.121
		c-0.039,0.075-0.075,0.143-0.108,0.203c-0.033,0.06-0.053,0.096-0.059,0.107L225.165,133.979z"/>
	<path fill="#FFFFFF" d="M225.273,129.272c0.096,0.06,0.175,0.107,0.238,0.144s0.147,0.069,0.252,0.099
		c0.105,0.03,0.249,0.066,0.432,0.108c0.184,0.042,0.438,0.098,0.766,0.167c0.327,0.068,0.747,0.158,1.26,0.27
		s1.153,0.254,1.922,0.428h0.063c0.138,0,0.235,0.057,0.293,0.171c0.057,0.114,0.085,0.233,0.085,0.36
		c0,0.09-0.012,0.172-0.036,0.247c-0.023,0.075-0.054,0.121-0.09,0.14h0.009c-0.102,0.084-0.174,0.137-0.216,0.157
		c-0.042,0.021-0.093,0.031-0.152,0.031c-0.013-0.006-0.032-0.013-0.059-0.022c-0.027-0.009-0.089-0.023-0.185-0.045
		c-0.096-0.021-0.239-0.051-0.428-0.09c-0.189-0.039-0.453-0.093-0.792-0.162c-0.339-0.068-0.768-0.156-1.287-0.261
		c-0.519-0.105-1.153-0.232-1.903-0.383l-0.045,0.009l0.009-0.009l-0.099,0.081v1.008c0,0.133-0.006,0.248-0.019,0.347
		c-0.012,0.1-0.032,0.212-0.063,0.338c-0.072,0.042-0.158,0.078-0.257,0.107c-0.099,0.03-0.193,0.045-0.283,0.045
		s-0.17-0.018-0.238-0.054c-0.069-0.036-0.11-0.099-0.122-0.188c-0.012-0.234-0.022-0.408-0.031-0.522s-0.014-0.21-0.014-0.288
		v-0.152c0-0.061,0.002-0.142,0.005-0.243c0.003-0.103,0.004-0.24,0.004-0.414v-0.711c-0.006-0.066-0.014-0.173-0.022-0.319
		c-0.009-0.147-0.017-0.299-0.022-0.455s-0.011-0.297-0.014-0.423s-0.004-0.201-0.004-0.225c-0.006-0.024-0.01-0.049-0.01-0.072
		c0-0.024,0-0.048,0-0.072v-0.144c0-0.156,0.004-0.305,0.01-0.446c0.006-0.141,0.009-0.256,0.009-0.346
		c-0.019-0.078-0.027-0.15-0.027-0.217c0-0.197,0.058-0.352,0.171-0.463c0.114-0.111,0.237-0.167,0.369-0.167
		c0.084,0,0.162,0.022,0.234,0.067c0.072,0.046,0.126,0.119,0.162,0.221L225.273,129.272z"/>
	<path fill="#FFFFFF" d="M224.104,122.522c-0.019-0.019-0.058-0.063-0.117-0.136c-0.06-0.071-0.09-0.138-0.09-0.197
		c0-0.049,0.006-0.105,0.018-0.172c0.013-0.065,0.03-0.13,0.054-0.193c0.024-0.063,0.053-0.121,0.086-0.175
		c0.033-0.055,0.07-0.094,0.112-0.117c0.12-0.03,0.22-0.048,0.297-0.055c0.078-0.006,0.171-0.009,0.279-0.009
		c0.372,0.042,0.756,0.106,1.152,0.193c0.396,0.088,0.771,0.179,1.125,0.275c0.408,0.102,0.821,0.216,1.241,0.342
		c0.421,0.126,0.803,0.285,1.148,0.477c0.345,0.192,0.627,0.428,0.846,0.707c0.219,0.278,0.328,0.619,0.328,1.021v0.035
		c0,0.019,0.003,0.03,0.009,0.036v0.072c0,0.066-0.001,0.131-0.004,0.193c-0.003,0.063-0.005,0.122-0.005,0.176
		c0,0.06,0.003,0.105,0.009,0.135c0,0.229-0.043,0.449-0.13,0.662s-0.241,0.457-0.464,0.733l-0.026,0.063
		c-0.168,0.198-0.36,0.333-0.576,0.405s-0.438,0.107-0.666,0.107c-0.114,0-0.227-0.006-0.338-0.018s-0.221-0.027-0.328-0.045
		c-0.162-0.024-0.3-0.047-0.414-0.067c-0.114-0.021-0.222-0.042-0.324-0.063c-0.102-0.021-0.205-0.046-0.311-0.076
		c-0.104-0.03-0.229-0.064-0.373-0.104c-0.145-0.039-0.313-0.089-0.509-0.148s-0.434-0.132-0.716-0.216
		c-0.162-0.042-0.292-0.077-0.392-0.104c-0.099-0.027-0.16-0.047-0.185-0.059h0.01l-0.055-0.009
		c-0.216-0.139-0.358-0.254-0.427-0.347c-0.069-0.093-0.104-0.193-0.104-0.302c0.018-0.072,0.046-0.151,0.085-0.238
		s0.084-0.168,0.135-0.243c0.052-0.075,0.108-0.14,0.171-0.193c0.063-0.054,0.128-0.081,0.194-0.081h0.018
		c0.18,0.018,0.305,0.028,0.374,0.031c0.068,0.003,0.127,0.011,0.175,0.022c0.048,0.013,0.105,0.029,0.171,0.05
		c0.066,0.021,0.187,0.062,0.36,0.121c0.174,0.061,0.422,0.14,0.742,0.239c0.321,0.099,0.758,0.229,1.31,0.391
		c0.229,0.066,0.436,0.119,0.621,0.158c0.187,0.039,0.349,0.059,0.486,0.059c0.023,0.006,0.054,0.009,0.09,0.009
		c0.108,0,0.202-0.03,0.283-0.09c0.081-0.061,0.148-0.131,0.203-0.212c0.054-0.081,0.093-0.162,0.116-0.243
		c0.024-0.081,0.036-0.146,0.036-0.193v-0.045c0-0.036-0.001-0.088-0.004-0.157s-0.013-0.147-0.027-0.234s-0.037-0.176-0.067-0.266
		s-0.072-0.171-0.126-0.242l-0.036-0.027l-0.441-0.333c-0.084-0.06-0.203-0.122-0.359-0.185c-0.156-0.063-0.33-0.126-0.522-0.189
		c-0.191-0.063-0.393-0.122-0.603-0.18c-0.21-0.057-0.414-0.109-0.612-0.157c-0.342-0.084-0.622-0.146-0.842-0.185
		c-0.219-0.039-0.424-0.073-0.616-0.104L224.104,122.522z"/>
	<path fill="#FFFFFF" d="M226.074,115.781c0.21,0.048,0.409,0.162,0.599,0.342c0.188,0.18,0.363,0.399,0.521,0.657
		c0.159,0.258,0.301,0.538,0.424,0.841c0.123,0.304,0.223,0.602,0.301,0.896l0.055,0.055l0.081,0.026l0.035-0.009
		c0.217-0.174,0.427-0.392,0.63-0.652c0.204-0.261,0.396-0.513,0.572-0.756s0.334-0.451,0.473-0.626
		c0.138-0.174,0.249-0.261,0.333-0.261c0.071,0,0.12,0.061,0.144,0.18c0.12,0,0.201,0.038,0.243,0.113
		c0.042,0.074,0.081,0.166,0.117,0.274c-0.156,0.365-0.34,0.687-0.55,0.963c-0.21,0.275-0.455,0.561-0.737,0.854
		c-0.036,0.049-0.063,0.081-0.081,0.1c-0.019,0.018-0.033,0.032-0.045,0.045v-0.01c-0.114,0.139-0.234,0.279-0.36,0.424
		c-0.126,0.144-0.255,0.294-0.387,0.449v0.027c0.132,0.061,0.294,0.126,0.485,0.198c0.192,0.072,0.383,0.143,0.572,0.211
		c0.188,0.069,0.358,0.133,0.508,0.189c0.15,0.057,0.249,0.098,0.298,0.121l0.035,0.019h0.019c0.113,0,0.208,0.03,0.283,0.09
		s0.112,0.138,0.112,0.234v0.018c0,0.048-0.023,0.115-0.071,0.202c-0.049,0.088-0.085,0.146-0.108,0.176
		c-0.12,0.18-0.249,0.276-0.387,0.288h-0.072c-0.024,0-0.056-0.003-0.095-0.009s-0.112-0.02-0.221-0.041
		c-0.107-0.021-0.262-0.052-0.463-0.094s-0.478-0.103-0.828-0.181c-0.352-0.078-0.791-0.175-1.318-0.292
		c-0.528-0.117-1.173-0.26-1.936-0.428c-0.018-0.006-0.052-0.018-0.104-0.036c-0.051-0.018-0.106-0.039-0.166-0.063
		c-0.06-0.024-0.118-0.052-0.176-0.081c-0.057-0.03-0.104-0.061-0.14-0.091h0.01c-0.091-0.065-0.158-0.145-0.203-0.238
		c-0.045-0.093-0.076-0.19-0.095-0.292c-0.018-0.103-0.028-0.207-0.031-0.315c-0.003-0.107-0.008-0.213-0.014-0.314
		c0-0.378,0.033-0.771,0.1-1.18c0.065-0.407,0.207-0.846,0.423-1.313c0.149-0.21,0.279-0.368,0.387-0.473
		c0.108-0.104,0.246-0.17,0.414-0.193L226.074,115.781z M226.173,117.014c-0.071-0.029-0.136-0.057-0.193-0.081
		c-0.057-0.023-0.098-0.036-0.121-0.036c-0.042,0.007-0.084,0.024-0.126,0.055s-0.084,0.064-0.126,0.104s-0.08,0.079-0.112,0.121
		c-0.033,0.042-0.064,0.075-0.095,0.1l-0.019,0.018v-0.009c-0.077,0.107-0.138,0.237-0.18,0.387
		c-0.042,0.15-0.075,0.308-0.099,0.473c-0.024,0.165-0.039,0.328-0.045,0.49s-0.01,0.307-0.01,0.433
		c0.03,0.006,0.122,0.034,0.274,0.085c0.153,0.051,0.329,0.106,0.527,0.167c0.197,0.06,0.398,0.113,0.603,0.161
		c0.204,0.049,0.372,0.072,0.504,0.072c0.162,0,0.243-0.042,0.243-0.126c0-0.06-0.039-0.138-0.117-0.233
		c-0.012-0.181-0.026-0.347-0.045-0.5c-0.018-0.153-0.045-0.3-0.081-0.441c-0.036-0.141-0.084-0.28-0.144-0.418
		c-0.061-0.138-0.136-0.285-0.226-0.441l-0.009-0.018L226.173,117.014z"/>
	<path fill="#FFFFFF" d="M225.129,114.891c-0.186-0.042-0.334-0.08-0.445-0.113c-0.11-0.032-0.196-0.077-0.257-0.135
		c-0.06-0.057-0.099-0.133-0.116-0.229c-0.019-0.096-0.027-0.225-0.027-0.387c0.006-0.066,0.009-0.129,0.009-0.189
		c0-0.065,0-0.123,0-0.171v-0.702c0-0.132,0.003-0.295,0.009-0.49c0.007-0.194,0.014-0.397,0.022-0.607
		c0.01-0.21,0.02-0.417,0.032-0.621c0.012-0.204,0.021-0.384,0.026-0.54c0.013-0.12,0.024-0.222,0.036-0.306
		c0.013-0.084,0.028-0.153,0.05-0.207s0.05-0.1,0.085-0.135c0.036-0.036,0.085-0.069,0.145-0.1h0.072
		c0.054,0,0.109,0.024,0.166,0.072c0.058,0.048,0.101,0.141,0.131,0.279c0,0.006,0.009,0.018,0.026,0.036
		c0.007,0.006,0.01,0.035,0.01,0.09v0.342l0.071,1.692v0.359c0,0.061,0.002,0.108,0.005,0.145c0.003,0.035,0.006,0.07,0.009,0.104
		c0.003,0.032,0.006,0.067,0.009,0.104c0.004,0.035,0.008,0.087,0.014,0.152l0.019,0.045l0.018,0.027v-0.009
		c0.048,0.018,0.137,0.045,0.266,0.081s0.267,0.073,0.414,0.112s0.286,0.075,0.418,0.107c0.133,0.033,0.226,0.056,0.279,0.068
		l0.036-0.01l0.09-0.063c0.019-0.138,0.028-0.321,0.031-0.549c0.004-0.229,0.005-0.456,0.005-0.685v-1.008
		c0-0.174,0.014-0.333,0.041-0.477c0.026-0.145,0.1-0.231,0.22-0.262h0.171c0.085,0,0.165,0.019,0.243,0.055
		s0.129,0.135,0.153,0.297c0,0.018,0.002,0.054,0.005,0.107c0.003,0.055,0.007,0.113,0.013,0.176
		c0.007,0.063,0.011,0.123,0.014,0.18c0.003,0.058,0.005,0.098,0.005,0.122c0.023,0.252,0.043,0.465,0.059,0.639
		c0.015,0.174,0.026,0.326,0.036,0.455c0.009,0.129,0.015,0.242,0.018,0.342c0.003,0.099,0.005,0.196,0.005,0.292v0.189
		c0,0.03,0,0.063,0,0.099c0,0.03-0.003,0.066-0.01,0.108v0.171l0.019,0.054v0.009l0.009,0.019c0.048,0.018,0.148,0.047,0.302,0.085
		c0.152,0.039,0.317,0.078,0.495,0.117c0.177,0.039,0.35,0.075,0.518,0.108s0.291,0.053,0.368,0.059l0.036-0.009l0.081-0.081
		l0.009-0.036c-0.029-0.216-0.051-0.437-0.063-0.662c-0.012-0.225-0.024-0.448-0.036-0.67c0-0.048-0.003-0.108-0.009-0.181
		c-0.006-0.071-0.011-0.144-0.014-0.216c-0.003-0.071-0.008-0.135-0.014-0.188c-0.006-0.055-0.009-0.087-0.009-0.1
		c0-0.023,0.002-0.045,0.005-0.063c0.003-0.019,0.004-0.039,0.004-0.063c0-0.138-0.012-0.278-0.036-0.423
		c-0.023-0.144-0.036-0.282-0.036-0.414c0.013-0.102,0.027-0.219,0.046-0.351c0.018-0.132,0.06-0.229,0.126-0.288v-0.045
		c0.035-0.006,0.068-0.009,0.099-0.009c0.024,0,0.048,0,0.072,0c0.065,0,0.115,0.007,0.148,0.022
		c0.033,0.015,0.067,0.04,0.104,0.076c0.012,0.012,0.026,0.045,0.045,0.099c0.018,0.055,0.033,0.145,0.045,0.271l0.396,2.781v0.018
		c0.03,0.192,0.058,0.355,0.081,0.49c0.024,0.136,0.036,0.287,0.036,0.455c0,0.054-0.02,0.115-0.059,0.185
		c-0.039,0.068-0.087,0.143-0.144,0.22c-0.058,0.078-0.117,0.158-0.18,0.239c-0.063,0.081-0.119,0.157-0.167,0.229L225.129,114.891z
		"/>
	<path fill="#FFFFFF" d="M230.305,109.625c-0.091,0.114-0.217,0.181-0.379,0.198l-0.009,0.009h-0.126
		c-0.39-0.048-0.757-0.1-1.103-0.157c-0.345-0.057-0.686-0.121-1.021-0.193s-0.675-0.151-1.017-0.238s-0.708-0.185-1.099-0.293
		c-0.029-0.012-0.051-0.02-0.063-0.022s-0.033-0.004-0.063-0.004c-0.149-0.03-0.516-0.156-1.098-0.378l-0.099-0.586
		c0-0.252,0.004-0.479,0.014-0.684c0.009-0.204,0.034-0.384,0.076-0.54v-0.018c0.066-0.517,0.173-0.956,0.319-1.318
		c0.147-0.363,0.324-0.66,0.531-0.892c0.207-0.23,0.438-0.4,0.692-0.509c0.256-0.107,0.521-0.161,0.797-0.161
		c0.42,0,0.848,0.109,1.282,0.328c0.436,0.219,0.836,0.516,1.202,0.891c0.365,0.375,0.672,0.813,0.918,1.314s0.39,1.033,0.432,1.598
		l0.045,0.063l-0.018,0.019c0.018,0.084,0.034,0.188,0.049,0.314c0.016,0.126,0.022,0.258,0.022,0.396L230.305,109.625z
		 M225.255,107.466l0.027,0.035v-0.009c0.09,0.03,0.232,0.075,0.428,0.135c0.194,0.061,0.42,0.127,0.675,0.198
		c0.255,0.072,0.531,0.148,0.828,0.229s0.591,0.156,0.882,0.226c0.291,0.068,0.571,0.129,0.842,0.18
		c0.27,0.051,0.504,0.086,0.702,0.104l0.054-0.027l0.045-0.054l0.027-0.054c-0.049-0.174-0.1-0.338-0.153-0.491
		c-0.054-0.152-0.093-0.247-0.117-0.283c-0.18-0.384-0.393-0.75-0.639-1.098s-0.503-0.652-0.77-0.914
		c-0.268-0.261-0.537-0.469-0.811-0.625c-0.272-0.156-0.532-0.237-0.778-0.243l-0.063,0.009c-0.12,0.013-0.257,0.062-0.41,0.148
		c-0.152,0.087-0.316,0.248-0.49,0.481c-0.108,0.156-0.186,0.394-0.234,0.711c-0.048,0.318-0.071,0.741-0.071,1.27L225.255,107.466z
		"/>
	<path fill="#FFFFFF" d="M230.305,100.49c-0.091,0.114-0.217,0.181-0.379,0.198l-0.009,0.009h-0.126
		c-0.39-0.048-0.757-0.1-1.103-0.157c-0.345-0.057-0.686-0.121-1.021-0.193s-0.675-0.151-1.017-0.238s-0.708-0.185-1.099-0.293
		c-0.029-0.012-0.051-0.02-0.063-0.022s-0.033-0.004-0.063-0.004c-0.149-0.03-0.516-0.156-1.098-0.378l-0.099-0.586
		c0-0.252,0.004-0.479,0.014-0.684c0.009-0.204,0.034-0.384,0.076-0.54v-0.018c0.066-0.517,0.173-0.956,0.319-1.318
		c0.147-0.363,0.324-0.66,0.531-0.892c0.207-0.23,0.438-0.4,0.692-0.509c0.256-0.107,0.521-0.161,0.797-0.161
		c0.42,0,0.848,0.109,1.282,0.328c0.436,0.219,0.836,0.516,1.202,0.891c0.365,0.375,0.672,0.813,0.918,1.314s0.39,1.033,0.432,1.598
		l0.045,0.063l-0.018,0.019c0.018,0.084,0.034,0.188,0.049,0.314c0.016,0.126,0.022,0.258,0.022,0.396L230.305,100.49z
		 M225.255,98.331l0.027,0.035v-0.009c0.09,0.03,0.232,0.075,0.428,0.135c0.194,0.061,0.42,0.127,0.675,0.198
		c0.255,0.072,0.531,0.148,0.828,0.229s0.591,0.156,0.882,0.226c0.291,0.068,0.571,0.129,0.842,0.18
		c0.27,0.051,0.504,0.086,0.702,0.104l0.054-0.027l0.045-0.054l0.027-0.054c-0.049-0.174-0.1-0.338-0.153-0.491
		c-0.054-0.152-0.093-0.247-0.117-0.283c-0.18-0.384-0.393-0.75-0.639-1.098s-0.503-0.652-0.77-0.914
		c-0.268-0.261-0.537-0.469-0.811-0.625c-0.272-0.156-0.532-0.237-0.778-0.243l-0.063,0.009c-0.12,0.013-0.257,0.062-0.41,0.148
		c-0.152,0.087-0.316,0.248-0.49,0.481c-0.108,0.156-0.186,0.394-0.234,0.711c-0.048,0.318-0.071,0.741-0.071,1.27L225.255,98.331z"
		/>
	<path fill="#FFFFFF" d="M229.107,90.645l-0.027,0.018l-0.036,0.036v0.01l-0.026,0.063v0.099c0,0.15,0.006,0.354,0.018,0.612
		s0.024,0.513,0.036,0.765c0.012,0.181,0.021,0.343,0.027,0.486c0,0.012,0.001,0.021,0.004,0.027s0.005,0.015,0.005,0.026v0.1
		l0.009,0.036c0.06,0.06,0.123,0.11,0.189,0.152c0.065,0.042,0.139,0.083,0.22,0.122s0.175,0.081,0.279,0.126
		c0.105,0.045,0.227,0.101,0.364,0.166c0.187,0.084,0.311,0.189,0.374,0.315c0.063,0.126,0.095,0.267,0.095,0.423
		c0,0.06-0.011,0.121-0.032,0.185c-0.021,0.063-0.051,0.121-0.09,0.176c-0.039,0.054-0.087,0.098-0.144,0.13
		c-0.058,0.033-0.119,0.05-0.185,0.05h-0.117c-0.103,0-0.195-0.011-0.279-0.031c-0.084-0.021-0.177-0.053-0.278-0.095
		c-0.246-0.114-0.52-0.252-0.819-0.414s-0.606-0.333-0.918-0.513c-0.313-0.181-0.616-0.361-0.914-0.545
		c-0.297-0.183-0.568-0.35-0.814-0.499c-0.144-0.097-0.288-0.182-0.432-0.257s-0.279-0.143-0.405-0.202
		c-0.144-0.072-0.275-0.14-0.396-0.203c-0.12-0.063-0.226-0.146-0.315-0.247c-0.09-0.103-0.168-0.237-0.233-0.405
		c-0.066-0.168-0.12-0.393-0.162-0.675h0.009v-0.027c0-0.065,0.005-0.118,0.014-0.157s0.02-0.082,0.031-0.131
		c0.078-0.204,1.902-0.555,5.472-1.053l0.019-0.009c0.071-0.03,0.149-0.045,0.233-0.045c0.103,0,0.2,0.022,0.293,0.067
		s0.16,0.118,0.202,0.221c0.03,0.065,0.051,0.121,0.063,0.166c0.012,0.045,0.018,0.086,0.018,0.122
		c-0.018,0.102-0.036,0.188-0.054,0.261c-0.019,0.072-0.048,0.135-0.09,0.188c-0.042,0.055-0.101,0.1-0.176,0.136
		c-0.075,0.035-0.176,0.065-0.302,0.09l-0.459,0.09L229.107,90.645z M228.145,90.95l-0.063-0.063l-0.036-0.019l-1.926,0.234
		l-0.045,0.045l-0.018,0.09l0.026,0.063l1.936,1.161h0.036l0.099-0.055l0.009-0.026v-1.413l-0.018-0.036V90.95z"/>
	<path fill="#FFFFFF" d="M225.273,86.019c0.096,0.06,0.175,0.107,0.238,0.144s0.147,0.069,0.252,0.099
		c0.105,0.03,0.249,0.066,0.432,0.108c0.184,0.042,0.438,0.098,0.766,0.167c0.327,0.068,0.747,0.158,1.26,0.27
		s1.153,0.254,1.922,0.428h0.063c0.138,0,0.235,0.057,0.293,0.171c0.057,0.114,0.085,0.233,0.085,0.36
		c0,0.09-0.012,0.172-0.036,0.247c-0.023,0.075-0.054,0.121-0.09,0.14h0.009c-0.102,0.084-0.174,0.137-0.216,0.157
		c-0.042,0.021-0.093,0.031-0.152,0.031c-0.013-0.006-0.032-0.013-0.059-0.022c-0.027-0.009-0.089-0.023-0.185-0.045
		c-0.096-0.021-0.239-0.051-0.428-0.09c-0.189-0.039-0.453-0.093-0.792-0.162c-0.339-0.068-0.768-0.156-1.287-0.261
		c-0.519-0.105-1.153-0.232-1.903-0.383l-0.045,0.009l0.009-0.009l-0.099,0.081v1.008c0,0.133-0.006,0.248-0.019,0.347
		c-0.012,0.1-0.032,0.212-0.063,0.338c-0.072,0.042-0.158,0.078-0.257,0.107c-0.099,0.03-0.193,0.045-0.283,0.045
		s-0.17-0.018-0.238-0.054c-0.069-0.036-0.11-0.099-0.122-0.188c-0.012-0.234-0.022-0.408-0.031-0.522s-0.014-0.21-0.014-0.288
		v-0.152c0-0.061,0.002-0.142,0.005-0.243c0.003-0.103,0.004-0.24,0.004-0.414v-0.711c-0.006-0.066-0.014-0.173-0.022-0.319
		c-0.009-0.147-0.017-0.299-0.022-0.455s-0.011-0.297-0.014-0.423s-0.004-0.201-0.004-0.225c-0.006-0.024-0.01-0.049-0.01-0.072
		c0-0.024,0-0.048,0-0.072V85.02c0-0.156,0.004-0.305,0.01-0.446c0.006-0.141,0.009-0.256,0.009-0.346
		c-0.019-0.078-0.027-0.15-0.027-0.217c0-0.197,0.058-0.352,0.171-0.463c0.114-0.111,0.237-0.167,0.369-0.167
		c0.084,0,0.162,0.022,0.234,0.067c0.072,0.046,0.126,0.119,0.162,0.221L225.273,86.019z"/>
	<path fill="#FFFFFF" d="M229.107,80.916l-0.027,0.018l-0.036,0.036v0.01l-0.026,0.063v0.099c0,0.15,0.006,0.354,0.018,0.612
		s0.024,0.513,0.036,0.765c0.012,0.181,0.021,0.343,0.027,0.486c0,0.012,0.001,0.021,0.004,0.027s0.005,0.015,0.005,0.026v0.1
		l0.009,0.036c0.06,0.06,0.123,0.11,0.189,0.152c0.065,0.042,0.139,0.083,0.22,0.122s0.175,0.081,0.279,0.126
		c0.105,0.045,0.227,0.101,0.364,0.166c0.187,0.084,0.311,0.189,0.374,0.315c0.063,0.126,0.095,0.267,0.095,0.423
		c0,0.06-0.011,0.121-0.032,0.185c-0.021,0.063-0.051,0.121-0.09,0.176c-0.039,0.054-0.087,0.098-0.144,0.13
		c-0.058,0.033-0.119,0.05-0.185,0.05h-0.117c-0.103,0-0.195-0.011-0.279-0.031c-0.084-0.021-0.177-0.053-0.278-0.095
		c-0.246-0.114-0.52-0.252-0.819-0.414s-0.606-0.333-0.918-0.513c-0.313-0.181-0.616-0.361-0.914-0.545
		c-0.297-0.183-0.568-0.35-0.814-0.499c-0.144-0.097-0.288-0.182-0.432-0.257s-0.279-0.143-0.405-0.202
		c-0.144-0.072-0.275-0.14-0.396-0.203c-0.12-0.063-0.226-0.146-0.315-0.247c-0.09-0.103-0.168-0.237-0.233-0.405
		c-0.066-0.168-0.12-0.393-0.162-0.675h0.009v-0.027c0-0.065,0.005-0.118,0.014-0.157s0.02-0.082,0.031-0.131
		c0.078-0.204,1.902-0.555,5.472-1.053l0.019-0.009c0.071-0.03,0.149-0.045,0.233-0.045c0.103,0,0.2,0.022,0.293,0.067
		s0.16,0.118,0.202,0.221c0.03,0.065,0.051,0.121,0.063,0.166c0.012,0.045,0.018,0.086,0.018,0.122
		c-0.018,0.102-0.036,0.188-0.054,0.261c-0.019,0.072-0.048,0.135-0.09,0.188c-0.042,0.055-0.101,0.1-0.176,0.136
		c-0.075,0.035-0.176,0.065-0.302,0.09l-0.459,0.09L229.107,80.916z M228.145,81.222l-0.063-0.063l-0.036-0.019l-1.926,0.234
		l-0.045,0.045l-0.018,0.09l0.026,0.063l1.936,1.161h0.036l0.099-0.055l0.009-0.026V81.24l-0.018-0.036V81.222z"/>
	<path fill="#FFFFFF" d="M229.558,75.012h0.018l0.063-0.026l0.035-0.036l0.027-0.081v0.018c-0.012-0.228-0.021-0.407-0.027-0.54
		c-0.006-0.132-0.013-0.249-0.022-0.351c-0.009-0.102-0.02-0.204-0.031-0.306c-0.012-0.103-0.027-0.234-0.045-0.396
		c0-0.018-0.003-0.03-0.009-0.036c-0.012-0.072-0.021-0.138-0.027-0.198c-0.006-0.06-0.012-0.127-0.018-0.202
		s-0.013-0.163-0.019-0.266c-0.006-0.102-0.015-0.233-0.026-0.396c-0.006-0.013-0.01-0.033-0.01-0.063
		c0-0.084,0.036-0.163,0.108-0.238s0.168-0.112,0.288-0.112c0.048,0,0.09,0.006,0.126,0.018c0.036,0.013,0.081,0.033,0.135,0.063
		c0.078,0.288,0.138,0.574,0.181,0.859c0.041,0.285,0.077,0.574,0.107,0.868c0.03,0.271,0.062,0.559,0.095,0.864
		s0.079,0.66,0.14,1.062c0,0.091-0.009,0.178-0.027,0.262c-0.018,0.084-0.06,0.186-0.126,0.306h-0.027
		c-0.048,0.061-0.107,0.101-0.18,0.121c-0.072,0.021-0.168,0.038-0.288,0.05c-0.054,0-0.121-0.006-0.202-0.018
		c-0.081-0.013-0.164-0.025-0.248-0.041c-0.084-0.015-0.168-0.031-0.252-0.049c-0.084-0.019-0.155-0.033-0.216-0.046
		c-0.366-0.077-0.681-0.144-0.945-0.197c-0.264-0.055-0.494-0.103-0.692-0.145s-0.374-0.078-0.526-0.107
		c-0.153-0.03-0.307-0.063-0.459-0.1c-0.153-0.036-0.316-0.074-0.491-0.117c-0.174-0.041-0.378-0.093-0.611-0.152h0.009
		c-0.096,0-0.186-0.006-0.271-0.019c-0.084-0.012-0.158-0.042-0.225-0.09h-0.018c-0.162-0.029-0.274-0.099-0.338-0.207
		c-0.063-0.107-0.101-0.27-0.112-0.485c-0.019-0.114-0.027-0.22-0.027-0.315c0-0.216,0.044-0.364,0.131-0.445
		s0.199-0.122,0.337-0.122c0.091,0,0.189,0.014,0.298,0.041c0.107,0.027,0.217,0.06,0.328,0.099s0.222,0.08,0.333,0.122
		s0.218,0.081,0.319,0.116l0.045,0.046l3.15,0.944h0.018l0.162,0.036h0.019C229.536,75.003,229.552,75.006,229.558,75.012z"/>
	<path fill="#FFFFFF" d="M229.558,70.521h0.018l0.063-0.026l0.035-0.036l0.027-0.081v0.018c-0.012-0.228-0.021-0.407-0.027-0.54
		c-0.006-0.132-0.013-0.249-0.022-0.351c-0.009-0.102-0.02-0.204-0.031-0.306c-0.012-0.103-0.027-0.234-0.045-0.396
		c0-0.018-0.003-0.03-0.009-0.036c-0.012-0.072-0.021-0.138-0.027-0.198c-0.006-0.06-0.012-0.127-0.018-0.202
		s-0.013-0.163-0.019-0.266c-0.006-0.102-0.015-0.233-0.026-0.396c-0.006-0.013-0.01-0.033-0.01-0.063
		c0-0.084,0.036-0.163,0.108-0.238s0.168-0.112,0.288-0.112c0.048,0,0.09,0.006,0.126,0.018c0.036,0.013,0.081,0.033,0.135,0.063
		c0.078,0.288,0.138,0.574,0.181,0.859c0.041,0.285,0.077,0.574,0.107,0.868c0.03,0.271,0.062,0.559,0.095,0.864
		s0.079,0.66,0.14,1.062c0,0.091-0.009,0.178-0.027,0.262c-0.018,0.084-0.06,0.186-0.126,0.306h-0.027
		c-0.048,0.061-0.107,0.101-0.18,0.121c-0.072,0.021-0.168,0.038-0.288,0.05c-0.054,0-0.121-0.006-0.202-0.018
		c-0.081-0.013-0.164-0.025-0.248-0.041c-0.084-0.015-0.168-0.031-0.252-0.049c-0.084-0.019-0.155-0.033-0.216-0.046
		c-0.366-0.077-0.681-0.144-0.945-0.197c-0.264-0.055-0.494-0.103-0.692-0.145s-0.374-0.078-0.526-0.107
		c-0.153-0.03-0.307-0.063-0.459-0.1c-0.153-0.036-0.316-0.074-0.491-0.117c-0.174-0.041-0.378-0.093-0.611-0.152h0.009
		c-0.096,0-0.186-0.006-0.271-0.019c-0.084-0.012-0.158-0.042-0.225-0.09h-0.018c-0.162-0.029-0.274-0.099-0.338-0.207
		c-0.063-0.107-0.101-0.27-0.112-0.485c-0.019-0.114-0.027-0.22-0.027-0.315c0-0.216,0.044-0.364,0.131-0.445
		s0.199-0.122,0.337-0.122c0.091,0,0.189,0.014,0.298,0.041c0.107,0.027,0.217,0.06,0.328,0.099s0.222,0.08,0.333,0.122
		s0.218,0.081,0.319,0.116l0.045,0.046l3.15,0.944h0.018l0.162,0.036h0.019C229.536,70.512,229.552,70.515,229.558,70.521z"/>
	<path fill="#FFFFFF" d="M225.165,63.384v0.026c0,0.211,0.062,0.414,0.185,0.612s0.274,0.381,0.455,0.549
		c0.216,0.234,0.479,0.45,0.787,0.648s0.625,0.381,0.949,0.549c0.324,0.156,0.654,0.252,0.99,0.288
		c0.018,0.006,0.063,0.009,0.135,0.009h0.108c0.168-0.029,0.318-0.095,0.45-0.193s0.252-0.205,0.359-0.319
		c0.108-0.271,0.178-0.478,0.207-0.621c0.03-0.144,0.045-0.264,0.045-0.36c0-0.168-0.009-0.278-0.026-0.333
		c-0.084-0.306-0.17-0.555-0.257-0.747c-0.087-0.191-0.173-0.365-0.257-0.521v0.018c-0.048-0.06-0.09-0.13-0.126-0.211
		s-0.065-0.158-0.09-0.229c-0.023-0.072-0.042-0.134-0.054-0.185s-0.019-0.08-0.019-0.086V62.24c0-0.252,0.147-0.378,0.441-0.378
		h-0.018c0.06,0.03,0.116,0.067,0.171,0.113c0.054,0.045,0.123,0.118,0.207,0.22c0.281,0.372,0.499,0.733,0.652,1.085
		c0.152,0.351,0.229,0.751,0.229,1.201c0,0.108-0.006,0.212-0.019,0.311c-0.012,0.1-0.023,0.196-0.035,0.293
		c-0.049,0.336-0.134,0.666-0.257,0.989c-0.123,0.324-0.329,0.595-0.616,0.811l-0.234,0.198c-0.102,0.054-0.208,0.094-0.319,0.121
		s-0.248,0.047-0.41,0.059c-0.018,0.006-0.051,0.009-0.099,0.009h-0.117c-0.443-0.048-0.873-0.149-1.287-0.306
		s-0.804-0.355-1.17-0.599c-0.365-0.243-0.7-0.523-1.003-0.842c-0.303-0.317-0.568-0.663-0.797-1.035
		c-0.048-0.155-0.082-0.3-0.104-0.432c-0.021-0.132-0.031-0.246-0.031-0.342c0-0.09,0.008-0.176,0.022-0.257
		s0.039-0.168,0.072-0.261c0.032-0.093,0.076-0.199,0.13-0.319c0.055-0.12,0.123-0.262,0.207-0.423
		c0.103-0.204,0.212-0.374,0.329-0.509c0.116-0.135,0.253-0.221,0.409-0.257h0.072c0.012-0.006,0.029-0.009,0.054-0.009
		c0.072,0,0.154,0.042,0.247,0.126c0.094,0.084,0.173,0.195,0.239,0.333c0,0.006-0.02,0.047-0.059,0.121
		c-0.039,0.075-0.075,0.143-0.108,0.203c-0.033,0.06-0.053,0.096-0.059,0.107L225.165,63.384z"/>
</g>
<line fill="none" stroke="#FFFFFF" stroke-width="1.5" stroke-linecap="round" stroke-miterlimit="10" x1="24.641" y1="201.709" x2="24.641" y2="219.709"/>
<line fill="none" stroke="#FFFFFF" stroke-width="1.5" stroke-linecap="round" stroke-miterlimit="10" x1="186.021" y1="201.709" x2="186.021" y2="219.709"/>
<line fill="none" stroke="#FFFFFF" stroke-width="0.5" stroke-linecap="round" stroke-linejoin="round" stroke-miterlimit="10" x1="2.625" y1="96.375" x2="258.625" y2="96.375"/>
<line fill="none" stroke="#FFFFFF" stroke-width="0.5" stroke-linecap="round" stroke-linejoin="round" stroke-miterlimit="10" x1="2.625" y1="160.375" x2="258.625" y2="160.375"/>
<line fill="none" stroke="#FFFFFF" stroke-width="0.5" stroke-linecap="round" stroke-linejoin="round" stroke-miterlimit="10" x1="2.625" y1="224.375" x2="258.625" y2="224.375"/>
<line fill="none" stroke="#FFFFFF" stroke-width="0.5" stroke-linecap="round" stroke-linejoin="round" stroke-miterlimit="10" x1="2.625" y1="32.375" x2="258.625" y2="32.375"/>
<line fill="none" stroke="#FFFFFF" stroke-width="0.5" stroke-linecap="round" stroke-linejoin="round" stroke-miterlimit="10" x1="98.625" y1="256.375" x2="98.625" y2="0.375"/>
<line fill="none" stroke="#FFFFFF" stroke-width="0.5" stroke-linecap="round" stroke-linejoin="round" stroke-miterlimit="10" x1="162.625" y1="256.375" x2="162.625" y2="0.375"/>
<line fill="none" stroke="#FFFFFF" stroke-width="0.5" stroke-linecap="round" stroke-linejoin="round" stroke-miterlimit="10" x1="226.625" y1="256.375" x2="226.625" y2="0.375"/>
<line fill="none" stroke="#FFFFFF" stroke-width="0.5" stroke-linecap="round" stroke-linejoin="round" stroke-miterlimit="10" x1="34.625" y1="256.375" x2="34.625" y2="0.375"/>
<g>
	
		<line fill="none" stroke="#FFFFFF" stroke-width="0.75" stroke-linecap="round" stroke-linejoin="round" stroke-miterlimit="10" x1="2.625" y1="128.375" x2="258.625" y2="128.375"/>
	
		<line fill="none" stroke="#FFFFFF" stroke-width="0.75" stroke-linecap="round" stroke-linejoin="round" stroke-miterlimit="10" x1="2.625" y1="192.375" x2="258.625" y2="192.375"/>
	
		<line fill="none" stroke="#FFFFFF" stroke-width="0.75" stroke-linecap="round" stroke-linejoin="round" stroke-miterlimit="10" x1="2.625" y1="64.375" x2="258.625" y2="64.375"/>
	
		<line fill="none" stroke="#FFFFFF" stroke-width="0.75" stroke-linecap="round" stroke-linejoin="round" stroke-miterlimit="10" x1="130.625" y1="256.375" x2="130.625" y2="0.375"/>
	
		<line fill="none" stroke="#FFFFFF" stroke-width="0.75" stroke-linecap="round" stroke-linejoin="round" stroke-miterlimit="10" x1="194.625" y1="256.375" x2="194.625" y2="0.375"/>
	
		<line fill="none" stroke="#FFFFFF" stroke-width="0.75" stroke-linecap="round" stroke-linejoin="round" stroke-miterlimit="10" x1="66.625" y1="256.375" x2="66.625" y2="0.375"/>
</g>
<g>
	<path fill="none" stroke="#FFFFFF" stroke-width="2" stroke-linecap="round" stroke-linejoin="round" stroke-miterlimit="10" d="
		M70.75,100.498c-7.71,11.873-15.42,23.745-23.131,35.617"/>
	<path fill="none" stroke="#FFFFFF" stroke-width="2" stroke-linecap="round" stroke-linejoin="round" stroke-miterlimit="10" d="
		M114.735,32.766c-2.275,3.503-4.55,7.007-6.826,10.51"/>
	<path fill="none" stroke="#FFFFFF" stroke-width="2" stroke-linecap="round" stroke-linejoin="round" stroke-miterlimit="10" d="
		M67.801,122.964c-6.628,10.217-13.222,20.457-19.742,30.743"/>
	<path fill="none" stroke="#FFFFFF" stroke-width="2" stroke-linecap="round" stroke-linejoin="round" stroke-miterlimit="10" d="
		M75.693,110.829c-0.753,1.155-1.505,2.31-2.257,3.466"/>
	<path fill="none" stroke="#FFFFFF" stroke-width="2" stroke-linecap="round" stroke-linejoin="round" stroke-miterlimit="10" d="
		M123.475,37.008c-2.593,4.103-5.199,8.198-7.815,12.287"/>
	<path fill="none" stroke="#FFFFFF" stroke-width="2" stroke-linecap="round" stroke-linejoin="round" stroke-miterlimit="10" d="
		M38.724,186.697c-1.215,1.881-2.446,3.752-3.698,5.608"/>
	<path fill="none" stroke="#FFFFFF" stroke-width="2" stroke-linecap="round" stroke-linejoin="round" stroke-miterlimit="10" d="
		M68.98,138.957c-7.792,11.057-14.736,22.675-21.794,34.205"/>
	<path fill="none" stroke="#FFFFFF" stroke-width="2" stroke-linecap="round" stroke-linejoin="round" stroke-miterlimit="10" d="
		M88.587,110.211c-0.965,1.546-1.927,3.094-2.885,4.645"/>
	<path fill="none" stroke="#FFFFFF" stroke-width="2" stroke-linecap="round" stroke-linejoin="round" stroke-miterlimit="10" d="
		M132.549,42.628c-3.166,4.802-6.338,9.601-9.509,14.4"/>
	<path fill="none" stroke="#FFFFFF" stroke-width="2" stroke-linecap="round" stroke-linejoin="round" stroke-miterlimit="10" d="
		M69.232,157.857c-6.994,10.641-13.784,21.412-20.568,32.186"/>
	<path fill="none" stroke="#FFFFFF" stroke-width="2" stroke-linecap="round" stroke-linejoin="round" stroke-miterlimit="10" d="
		M103.483,106.047c-3.347,4.956-6.703,9.906-10.064,14.852"/>
	<path fill="none" stroke="#FFFFFF" stroke-width="2" stroke-linecap="round" stroke-linejoin="round" stroke-miterlimit="10" d="
		M141.191,49.085c-4.989,7.73-10.021,15.432-15.089,23.111"/>
	<path fill="none" stroke="#FFFFFF" stroke-width="2" stroke-linecap="round" stroke-linejoin="round" stroke-miterlimit="10" d="
		M71.412,172.738c-4.322,6.523-8.603,13.072-12.861,19.637"/>
	<path fill="none" stroke="#FFFFFF" stroke-width="2" stroke-linecap="round" stroke-linejoin="round" stroke-miterlimit="10" d="
		M108.555,116.455c-2.918,4.304-5.868,8.586-8.853,12.844"/>
	<path fill="none" stroke="#FFFFFF" stroke-width="2" stroke-linecap="round" stroke-linejoin="round" stroke-miterlimit="10" d="
		M147.442,55.996c-11.336,18.241-22.784,36.416-34.721,54.271"/>
	<path fill="none" stroke="#FFFFFF" stroke-width="2" stroke-linecap="round" stroke-linejoin="round" stroke-miterlimit="10" d="
		M76.252,184.6c-1.259,1.936-2.518,3.871-3.778,5.807"/>
	<path fill="none" stroke="#FFFFFF" stroke-width="2" stroke-linecap="round" stroke-linejoin="round" stroke-miterlimit="10" d="
		M116.547,122.296c-3.505,5.44-7.012,10.88-10.521,16.318"/>
	<path fill="none" stroke="#FFFFFF" stroke-width="2" stroke-linecap="round" stroke-linejoin="round" stroke-miterlimit="10" d="
		M149.298,71.41c-7.781,12.091-15.56,24.184-23.341,36.274"/>
	<path fill="none" stroke="#FFFFFF" stroke-width="2" stroke-linecap="round" stroke-linejoin="round" stroke-miterlimit="10" d="
		M85.567,187.844c-0.883,1.36-1.766,2.721-2.649,4.08"/>
	<path fill="none" stroke="#FFFFFF" stroke-width="2" stroke-linecap="round" stroke-linejoin="round" stroke-miterlimit="10" d="
		M123.245,129.826c-3.68,5.666-7.359,11.331-11.038,16.997"/>
	<path fill="none" stroke="#FFFFFF" stroke-width="2" stroke-linecap="round" stroke-linejoin="round" stroke-miterlimit="10" d="
		M129.253,138.936c-3.809,5.863-7.617,11.728-11.425,17.592"/>
	<path fill="none" stroke="#FFFFFF" stroke-width="2" stroke-linecap="round" stroke-linejoin="round" stroke-miterlimit="10" d="
		M33.052,29.604c-0.939,1.502-1.872,3.008-2.798,4.517"/>
	<path fill="none" stroke="#FFFFFF" stroke-width="2" stroke-linecap="round" stroke-linejoin="round" stroke-miterlimit="10" d="
		M45.067,29.879c-1.645,2.533-3.29,5.066-4.935,7.599"/>
	<path fill="none" stroke="#FFFFFF" stroke-width="2" stroke-linecap="round" stroke-linejoin="round" stroke-miterlimit="10" d="
		M57.384,29.154c-3.217,4.983-6.434,9.967-9.649,14.951"/>
	<path fill="none" stroke="#FFFFFF" stroke-width="2" stroke-linecap="round" stroke-linejoin="round" stroke-miterlimit="10" d="
		M68.551,30.235c-7.023,10.717-14.006,21.462-20.875,32.279"/>
	<path fill="none" stroke="#FFFFFF" stroke-width="2" stroke-linecap="round" stroke-linejoin="round" stroke-miterlimit="10" d="
		M68.645,47.298c-7.037,10.871-13.949,21.823-20.636,32.914"/>
	<path fill="none" stroke="#FFFFFF" stroke-width="2" stroke-linecap="round" stroke-linejoin="round" stroke-miterlimit="10" d="
		M80.22,29.623c-2.005,3.032-4.004,6.068-5.996,9.108"/>
	<path fill="none" stroke="#FFFFFF" stroke-width="2" stroke-linecap="round" stroke-linejoin="round" stroke-miterlimit="10" d="
		M71.374,63.292c-7.852,11.97-15.72,23.929-23.587,35.889"/>
	<path fill="none" stroke="#FFFFFF" stroke-width="2" stroke-linecap="round" stroke-linejoin="round" stroke-miterlimit="10" d="
		M93.351,29.662c-1.888,2.903-3.779,5.805-5.671,8.706"/>
	<path fill="none" stroke="#FFFFFF" stroke-width="2" stroke-linecap="round" stroke-linejoin="round" stroke-miterlimit="10" d="
		M71.017,81.726c-7.981,12.289-15.961,24.579-23.942,36.868"/>
	<path fill="none" stroke="#FFFFFF" stroke-width="2" stroke-linecap="round" stroke-linejoin="round" stroke-miterlimit="10" d="
		M103.699,31.398c-1.647,2.536-3.293,5.072-4.94,7.607"/>
	<path fill="none" stroke="#FFFFFF" stroke-width="2" stroke-linecap="round" stroke-linejoin="round" stroke-miterlimit="10" d="
		M135.081,148.322c-3.679,5.664-7.358,11.33-11.037,16.995"/>
	<path fill="none" stroke="#FFFFFF" stroke-width="2" stroke-linecap="round" stroke-linejoin="round" stroke-miterlimit="10" d="
		M140.433,158.441c-3.656,5.631-7.312,11.26-10.968,16.89"/>
	<path fill="none" stroke="#FFFFFF" stroke-width="2" stroke-linecap="round" stroke-linejoin="round" stroke-miterlimit="10" d="
		M147.512,165.94c-3.591,5.617-7.196,11.225-10.813,16.825"/>
	<path fill="none" stroke="#FFFFFF" stroke-width="2" stroke-linecap="round" stroke-linejoin="round" stroke-miterlimit="10" d="
		M153.063,175.73c-3.079,4.766-6.157,9.531-9.238,14.295"/>
	<path fill="none" stroke="#FFFFFF" stroke-width="2" stroke-linecap="round" stroke-linejoin="round" stroke-miterlimit="10" d="
		M162.156,180.072c-2.529,3.895-5.058,7.789-7.587,11.684"/>
	<path fill="none" stroke="#FFFFFF" stroke-width="2" stroke-linecap="round" stroke-linejoin="round" stroke-miterlimit="10" d="
		M170.543,185.52c-1.228,1.943-2.457,3.885-3.688,5.825"/>
	<path fill="none" stroke="#FFFFFF" stroke-width="2" stroke-linecap="round" stroke-linejoin="round" stroke-miterlimit="10" d="
		M180.83,188.039c-0.471,0.932-0.959,1.854-1.464,2.768"/>
</g>
<path fill="none" stroke="#FFFFFF" stroke-width="2" stroke-linecap="round" stroke-linejoin="round" stroke-miterlimit="10" d="
	M164.487,181.561c-5.503-3.508-12.082-10.605-19.738-21.294l-33.496-46.536c13.637-3.03,23.705-8.213,30.206-15.552
	c6.499-7.336,9.749-15.989,9.749-25.959c0-9.331-2.852-17.365-8.553-24.105c-5.703-6.739-12.642-11.365-20.815-13.877
	c-8.176-2.513-20.876-3.769-38.103-3.769H24.641v4.426h6.101c6.14,0,10.767,1.755,13.877,5.264c2.232,2.473,3.35,8.813,3.35,19.021
	v104.794c0,9.253-0.837,15.115-2.512,17.586c-2.952,4.467-7.856,6.699-14.714,6.699h-6.101v4.426h69.504v-4.426h-6.34
	c-6.063,0-10.608-1.754-13.638-5.264c-2.234-2.471-3.35-8.812-3.35-19.021v-47.133c1.275,0.081,2.512,0.14,3.708,0.18
	c1.196,0.041,2.312,0.06,3.35,0.06c2.551,0,5.861-0.079,9.93-0.239l54.909,75.844h43.306v-4.426
	C177.168,187.303,169.99,185.07,164.487,181.561z M77.517,109.424c-0.718,0-1.636-0.019-2.751-0.06
	c-1.118-0.04-2.434-0.06-3.948-0.06V41.834c7.896-1.514,14.156-2.273,18.782-2.273c10.447,0,18.842,3.17,25.182,9.511
	c6.341,6.34,9.511,14.576,9.511,24.703c0,10.369-3.929,18.901-11.783,25.601C104.652,106.075,92.988,109.424,77.517,109.424z"/>
<g>
	<g>
		
			<line fill="none" stroke="#FFFFFF" stroke-width="1.5" stroke-miterlimit="10" x1="30.562" y1="215.375" x2="180.1" y2="215.375"/>
		<g>
			<polygon fill="#FFFFFF" points="31.765,219.465 24.641,215.353 31.765,211.238 			"/>
		</g>
		<g>
			<polygon fill="#FFFFFF" points="178.896,219.465 186.021,215.353 178.896,211.238 			"/>
		</g>
	</g>
</g>
<g>
	<g>
		
			<line fill="none" stroke="#FFFFFF" stroke-width="1.5" stroke-miterlimit="10" x1="216.292" y1="36.39" x2="216.292" y2="186.766"/>
		<g>
			<polygon fill="#FFFFFF" points="212.201,37.593 216.314,30.469 220.429,37.593 			"/>
		</g>
		<g>
			<polygon fill="#FFFFFF" points="212.201,185.563 216.314,192.686 220.429,185.563 			"/>
		</g>
	</g>
</g>
<line fill="none" stroke="#FFFFFF" stroke-width="1.5" stroke-linecap="round" stroke-miterlimit="10" x1="134.948" y1="30.469" x2="221.292" y2="30.469"/>
<line fill="none" stroke="#FFFFFF" stroke-width="1.5" stroke-linecap="round" stroke-miterlimit="10" x1="194.625" y1="192.686" x2="221.292" y2="192.686"/>
</svg>
