<?xml version="1.0" encoding="utf-8"?>
<!-- Generator: Adobe Illustrator 15.1.0, SVG Export Plug-In . SVG Version: 6.00 Build 0)  -->
<!DOCTYPE svg PUBLIC "-//W3C//DTD SVG 1.1//EN" "http://www.w3.org/Graphics/SVG/1.1/DTD/svg11.dtd">
<svg version="1.1" id="Layer_1" xmlns="http://www.w3.org/2000/svg" xmlns:xlink="http://www.w3.org/1999/xlink" x="0px" y="0px"
	 width="128px" height="128px" viewBox="0 0 128 128" enable-background="new 0 0 128 128" xml:space="preserve">
<path d="M39.239,45.125v67.097c0,1.685,1.366,3.05,3.051,3.05h60.019C117.905,103.601,128,84.979,128,64
	c0-7.702-1.362-15.085-3.856-21.924H42.29C40.605,42.076,39.239,43.441,39.239,45.125z M63.312,54.813l2.136-3.477l11.927,7.381
	v3.478l-11.896,7.382l-2.166-3.295l9.883-5.826L63.312,54.813z M44.647,48.895h6.648c5.766,0,8.693,2.044,8.693,6.436
	c0,3.02-1.86,4.85-4.209,5.795l5.521,8.907h-5.674l-4.575-8.083h-1.403v8.083h-5.002V48.895z"/>
<path fill="#F05123" d="M33.14,115.272V35.976c0-3.368,2.731-6.1,6.1-6.1h78.895C106.797,11.929,86.798,0,64,0
	C28.653,0,0,28.654,0,64c0,35.346,28.653,64,64,64c10.188,0,19.814-2.393,28.365-6.628H39.239
	C35.871,121.372,33.14,118.642,33.14,115.272z"/>
<path d="M54.835,55.331c0-2.043-1.189-2.928-3.539-2.928h-1.646v6.101h1.861C53.676,58.503,54.835,57.558,54.835,55.331z"/>
<circle fill="#939598" cx="51.726" cy="36.167" r="3.05"/>
<circle fill="#939598" cx="42.29" cy="36.167" r="3.05"/>
<path fill="#D9D9D9" d="M42.29,115.272c-1.685,0-3.051-1.365-3.051-3.05V45.125c0-1.685,1.366-3.05,3.051-3.05h81.854
	c-1.569-4.304-3.6-8.384-6.01-12.2H39.239c-3.368,0-6.1,2.731-6.1,6.1v79.297c0,3.369,2.731,6.1,6.1,6.1h53.126
	c3.507-1.737,6.838-3.774,9.943-6.1H42.29z M51.726,33.117c1.684,0,3.05,1.365,3.05,3.05c0,1.684-1.366,3.05-3.05,3.05
	c-1.685,0-3.051-1.366-3.051-3.05C48.675,34.482,50.041,33.117,51.726,33.117z M42.29,33.117c1.684,0,3.05,1.365,3.05,3.05
	c0,1.684-1.366,3.05-3.05,3.05c-1.685,0-3.051-1.366-3.051-3.05C39.239,34.482,40.605,33.117,42.29,33.117z"/>
<path fill="#FFFFFF" d="M49.649,61.95h1.403l4.575,8.083h5.674l-5.521-8.907c2.349-0.945,4.209-2.776,4.209-5.795
	c0-4.392-2.928-6.436-8.693-6.436h-6.648v21.138h5.002V61.95z M49.649,52.403h1.646c2.35,0,3.539,0.885,3.539,2.928
	c0,2.227-1.159,3.172-3.324,3.172h-1.861V52.403z"/>
<polygon fill="#FFFFFF" points="65.478,69.576 77.374,62.194 77.374,58.717 65.447,51.335 63.312,54.813 73.194,60.456 
	63.312,66.281 "/>
</svg>
