<?xml version="1.0" encoding="utf-8"?>
<!-- Generator: Adobe Illustrator 15.1.0, SVG Export Plug-In . SVG Version: 6.00 Build 0)  -->
<!DOCTYPE svg PUBLIC "-//W3C//DTD SVG 1.1//EN" "http://www.w3.org/Graphics/SVG/1.1/DTD/svg11.dtd">
<svg version="1.1" id="Layer_1" xmlns="http://www.w3.org/2000/svg" xmlns:xlink="http://www.w3.org/1999/xlink" x="0px" y="0px"
	 width="142.677px" height="70.836px" viewBox="0 0 142.677 70.836" enable-background="new 0 0 142.677 70.836"
	 xml:space="preserve">
<g>
	<g>
		<g>
			<path d="M92.609,69.836c-0.611,0-1.224-0.271-1.873-0.828c-1.305-1.132-3.589-3.867-6.986-8.364l-5.283-7.141
				c-1.995-2.992-4.738-7.617-8.179-13.787l-0.028-0.051l-0.022-0.054c-0.039-0.095-0.074-0.165-0.101-0.214
				c-1.557-0.018-4.066-0.201-7.646-0.558c0.005,0.964,0.021,2.839,0.046,5.633c0.032,3.504,0.049,7.196,0.049,11.075
				c0,8.726,1.128,9.638,1.257,9.713l8.638-0.014c0.876,0,1.489,0.612,1.489,1.489v1.612c0,1.023-0.721,1.489-1.391,1.489H46.684
				c-0.242,0-0.979,0-1.372-0.596c-0.172-0.252-0.263-0.557-0.263-0.893v-1.514c0-0.698,0.233-1.17,0.692-1.404
				c0.25-0.124,0.53-0.182,0.845-0.182h6.144c0.02-0.105,0.039-0.27,0.039-0.515V18.416c-0.07-9.457-0.703-11.839-1.004-12.436
				h-5.911c-1.022,0-1.488-0.721-1.488-1.391V2.782c0-0.819,0.572-1.391,1.391-1.391h14.608c0.314,0,1.532-0.034,5.554-0.194
				C70.348,1.021,71.199,1,71.455,1c2.159,0,4.3,0.169,6.364,0.501c4.679,0.746,8.508,2.529,11.381,5.3
				c3.377,3.205,5.093,7.312,5.093,12.201c0,5.512-1.667,10.113-4.955,13.674c-1.946,2.111-5.076,3.93-9.309,5.411
				c1.49,3.543,4.688,8.105,9.519,13.573c2.743,3.107,4.671,5.259,5.895,6.578c2.123,2.219,3.954,3.908,5.434,5.007
				c1.894,1.392,4.324,2.099,7.22,2.099c1.696,0,1.782,1.159,1.782,1.391v1.514c0,1.096-0.699,1.586-1.391,1.586H92.609z
				 M62.488,34.349c0.644,0.087,2.174,0.167,5.889,0.167c1.347,0,2.883-0.128,4.567-0.379c1.314-0.197,1.872-0.288,2.107-0.329
				l0.157-0.041c6.04-1.579,8.976-5.561,8.976-12.175c0-4.084-1.305-7.315-3.99-9.878c-3.792-3.576-9.413-5.391-16.702-5.391
				c-0.414,0-0.665,0.037-0.808,0.071c-0.002,9.086-0.068,14.858-0.197,17.159L62.488,34.349z"/>
			<path fill="#FFFFFF" d="M71.455,2c2.117,0,4.185,0.163,6.205,0.489c4.495,0.717,8.11,2.394,10.846,5.032
				c3.192,3.029,4.788,6.856,4.788,11.481c0,5.277-1.563,9.609-4.69,12.996c-1.922,2.085-5.065,3.86-9.43,5.325
				c-0.261,0.131-0.359,0.326-0.293,0.586c1.433,3.746,4.739,8.55,9.918,14.413c2.704,3.063,4.673,5.261,5.912,6.596
				c2.181,2.281,4.038,3.991,5.57,5.13c2.083,1.531,4.69,2.296,7.817,2.296c0.52,0,0.782,0.131,0.782,0.391v1.514
				c0,0.391-0.131,0.586-0.391,0.586H92.609c-0.358,0-0.766-0.195-1.221-0.586c-1.239-1.075-3.518-3.811-6.84-8.208
				c-1.759-2.377-3.518-4.754-5.277-7.133c-1.954-2.932-4.658-7.491-8.11-13.68c-0.229-0.553-0.489-0.831-0.782-0.831
				c-1.532,0-4.235-0.196-8.11-0.586c-0.13-0.041-0.244-0.061-0.342-0.061c-0.293,0-0.439,0.183-0.439,0.549
				c0,0.62,0.017,2.68,0.049,6.181c0.032,3.501,0.049,7.19,0.049,11.065c0,7.133,0.733,10.7,2.199,10.7h8.696
				c0.326,0,0.489,0.163,0.489,0.489v1.612c0,0.327-0.13,0.489-0.391,0.489H46.684c-0.293,0-0.473-0.049-0.537-0.146
				c-0.066-0.098-0.098-0.211-0.098-0.342v-1.514c0-0.293,0.049-0.464,0.146-0.514c0.098-0.048,0.228-0.073,0.391-0.073h6.4
				c0.52,0,0.782-0.504,0.782-1.515V38.643V18.416C53.702,9.459,53.133,4.98,52.059,4.98h-6.205c-0.326,0-0.488-0.13-0.488-0.391
				V2.782c0-0.26,0.129-0.391,0.391-0.391h14.608c0.456,0,2.32-0.064,5.594-0.195C69.231,2.065,71.064,2,71.455,2 M68.376,35.516
				c1.4,0,2.972-0.13,4.715-0.391c1.742-0.26,2.531-0.391,2.369-0.391c6.48-1.693,9.723-6.074,9.723-13.143
				c0-4.332-1.434-7.866-4.3-10.602c-4.006-3.778-9.803-5.667-17.393-5.667c-1.107,0-1.71,0.229-1.808,0.684
				c0,9.348-0.066,15.179-0.195,17.491v11.139c0,0.358,0.227,0.586,0.684,0.684C62.92,35.451,64.989,35.516,68.376,35.516 M71.455,0
				c-0.286,0-1.178,0.022-5.575,0.197c-4.218,0.168-5.266,0.194-5.515,0.194H45.756c-1.363,0-2.391,1.028-2.391,2.391v1.808
				c0,1.363,1.07,2.391,2.488,2.391h5.183c0.264,1.091,0.677,3.981,0.732,11.45v20.212v25.604h-5.182
				c-0.468,0-0.896,0.093-1.271,0.277c-0.491,0.25-1.267,0.862-1.267,2.31v1.514c0,0.533,0.153,1.04,0.444,1.467
				c0.299,0.454,0.938,1.022,2.191,1.022h25.894c1.363,0,2.391-1.07,2.391-2.489v-1.612c0-1.419-1.07-2.489-2.489-2.489h-8.094
				c-0.275-0.697-0.801-2.801-0.801-8.7c0-3.829-0.017-7.558-0.049-11.084c-0.018-1.96-0.031-3.466-0.04-4.521
				c2.623,0.25,4.61,0.396,6.019,0.441c3.407,6.104,6.129,10.69,8.092,13.635l0.027,0.041l0.029,0.04l3.285,4.44l1.992,2.693
				c3.453,4.57,5.783,7.354,7.137,8.529c0.834,0.716,1.683,1.076,2.532,1.076h15.878c1.188,0,2.391-0.888,2.391-2.586v-1.514
				c0-1.152-0.871-2.391-2.782-2.391c-2.716,0-4.886-0.624-6.632-1.908c-1.426-1.06-3.215-2.711-5.309-4.901
				c-1.197-1.291-3.12-3.436-5.857-6.537c-4.33-4.902-7.32-9.043-8.913-12.339c3.913-1.475,6.764-3.218,8.688-5.306
				c3.463-3.751,5.219-8.58,5.219-14.352c0-5.174-1.82-9.525-5.411-12.932c-3.011-2.904-7.021-4.777-11.908-5.557
				C75.861,0.173,73.667,0,71.455,0L71.455,0z M63.488,23.552c0.124-2.275,0.189-7.73,0.195-16.229
				c6.933,0.031,12.257,1.754,15.829,5.122c2.468,2.356,3.672,5.35,3.672,9.146c0,6.179-2.615,9.741-8.229,11.208l-0.117,0.031
				c-0.234,0.041-0.78,0.129-2.042,0.317c-1.636,0.245-3.123,0.369-4.42,0.369c-2.594,0-4.061-0.04-4.889-0.083V23.552
				L63.488,23.552z"/>
		</g>
	</g>
	<g>
		<g>
			<path d="M36.035,60.305c-0.702,0-1.486-0.313-2.396-0.956L3.086,38.351C2.193,37.746,1,36.796,1,35.58
				c0-1.215,1.193-2.166,2.091-2.775l30.205-20.766c1.135-0.786,2.022-1.153,2.79-1.153c0.664,0,1.232,0.288,1.602,0.81
				c0.403,0.579,0.596,1.094,0.596,1.58c0,0.818-0.659,1.75-2.274,3.218L14.708,35.581l21.651,19.434
				c1.802,1.649,2.289,3.1,1.455,4.319C37.412,59.953,36.775,60.305,36.035,60.305z"/>
			<path fill="#FFFFFF" d="M36.086,11.886c0.341,0,0.603,0.129,0.785,0.387c0.274,0.394,0.413,0.729,0.413,1.003
				c0,0.472-0.649,1.299-1.947,2.479L13.21,35.58l22.481,20.179c1.376,1.26,1.809,2.263,1.298,3.01
				c-0.232,0.357-0.55,0.536-0.954,0.536c-0.484,0-1.09-0.257-1.82-0.772L3.652,37.527C2.55,36.78,2,36.131,2,35.58
				c0-0.551,0.55-1.199,1.652-1.947l30.21-20.77C34.803,12.212,35.544,11.886,36.086,11.886 M36.086,9.886L36.086,9.886
				c-0.981,0-2.05,0.423-3.362,1.333L2.519,31.985C1.443,32.715,0,33.89,0,35.58c0,1.691,1.444,2.866,2.53,3.602l30.552,20.999
				c1.064,0.751,2.037,1.124,2.953,1.124c1.074,0,2.033-0.527,2.63-1.446c0.626-0.914,1.286-2.911-1.624-5.575L16.206,35.582
				l20.466-18.337c1.883-1.711,2.612-2.821,2.612-3.968c0-0.697-0.252-1.399-0.771-2.145C37.951,10.335,37.069,9.886,36.086,9.886
				L36.086,9.886z"/>
		</g>
		<g>
			<path d="M106.62,60.274c-0.677,0-1.243-0.299-1.596-0.843c-0.38-0.543-0.574-1.059-0.574-1.548c0-0.817,0.659-1.749,2.275-3.217
				l21.301-19.086l-21.651-19.435c-1.787-1.632-2.301-3.073-1.535-4.287c0.423-0.65,1.063-1.002,1.812-1.002
				c0.707,0,1.502,0.31,2.432,0.947l30.565,21.006c1.386,0.977,2.027,1.855,2.027,2.771c0,0.917-0.642,1.795-2.019,2.765
				l-30.219,20.776C108.271,59.909,107.377,60.274,106.62,60.274z"/>
			<path fill="#FFFFFF" d="M106.652,11.855c0.493,0,1.115,0.257,1.867,0.772l30.564,21.005c1.062,0.748,1.594,1.396,1.594,1.947
				c0,0.551-0.532,1.2-1.594,1.947l-30.21,20.77c-0.966,0.652-1.717,0.978-2.253,0.978c-0.337,0-0.589-0.129-0.757-0.387
				c-0.275-0.394-0.413-0.729-0.413-1.004c0-0.472,0.648-1.297,1.947-2.477l22.126-19.826L107.043,15.4
				c-1.377-1.258-1.829-2.261-1.357-3.009C105.919,12.034,106.241,11.855,106.652,11.855 M106.652,9.855L106.652,9.855
				c-1.082,0-2.045,0.527-2.643,1.446c-0.745,1.18-1.043,3.083,1.685,5.576l20.835,18.702l-20.466,18.337
				c-1.883,1.711-2.613,2.821-2.613,3.967c0,0.693,0.248,1.389,0.756,2.125c0.538,0.805,1.415,1.266,2.413,1.266
				c0.966,0,2.037-0.419,3.372-1.319l30.224-20.78c1.066-0.75,2.461-1.925,2.461-3.595c0-1.668-1.394-2.843-2.442-3.582
				l-30.583-21.019C108.547,10.223,107.567,9.855,106.652,9.855L106.652,9.855z"/>
		</g>
	</g>
</g>
</svg>
